<svg width="117" height="117" viewBox="0 0 117 117" fill="none" xmlns="http://www.w3.org/2000/svg">
<mask id="mask0_2008_43" style="mask-type:luminance" maskUnits="userSpaceOnUse" x="0" y="0" width="117" height="117">
<path d="M117 0H0V117H117V0Z" fill="white"/>
</mask>
<g mask="url(#mask0_2008_43)">
<path fill-rule="evenodd" clip-rule="evenodd" d="M58.5006 0.665054C90.4415 0.665054 116.336 26.5585 116.336 58.5006C116.336 90.4427 90.4426 116.336 58.5006 116.336C26.5585 116.336 0.665039 90.4415 0.665039 58.5006C0.665039 26.5596 26.5585 0.665054 58.5006 0.665054Z" fill="#32954E"/>
<path fill-rule="evenodd" clip-rule="evenodd" d="M58.5007 7.41667C86.7132 7.41667 109.585 30.2881 109.585 58.5006C109.585 86.7131 86.7132 109.584 58.5007 109.584C30.2882 109.584 7.41675 86.7131 7.41675 58.5006C7.41675 30.2881 30.287 7.41667 58.5007 7.41667Z" fill="white"/>
<path d="M51.9097 107.127H50.6416V102.347C50.1787 102.78 49.632 103.101 49.0037 103.308V102.158C49.3345 102.05 49.694 101.844 50.0822 101.542C50.4705 101.24 50.7369 100.887 50.8805 100.484H51.9097V107.128V107.127Z" fill="#231F20"/>
<path d="M53.8324 105.596L55.0603 105.461C55.0901 105.71 55.1683 105.896 55.2946 106.016C55.4209 106.136 55.5875 106.196 55.7954 106.196C56.0573 106.196 56.2801 106.075 56.4639 105.835C56.6477 105.594 56.7648 105.096 56.8154 104.338C56.4961 104.707 56.0975 104.892 55.6197 104.892C55.0993 104.892 54.6502 104.691 54.2723 104.289C53.8944 103.887 53.7061 103.365 53.7061 102.721C53.7061 102.078 53.9048 101.51 54.3045 101.098C54.7031 100.687 55.2108 100.483 55.8276 100.483C56.4984 100.483 57.0486 100.742 57.4793 101.262C57.91 101.781 58.1248 102.634 58.1248 103.823C58.1248 105.012 57.9008 105.905 57.4529 106.441C57.0049 106.976 56.4214 107.244 55.7012 107.244C55.1832 107.244 54.7651 107.106 54.4469 106.831C54.1276 106.556 53.9231 106.144 53.8336 105.596H53.8324ZM56.7028 102.825C56.7028 102.416 56.6086 102.098 56.4203 101.873C56.2319 101.647 56.0148 101.534 55.7678 101.534C55.5209 101.534 55.3382 101.627 55.1832 101.812C55.0281 101.997 54.9512 102.3 54.9512 102.721C54.9512 103.143 55.035 103.462 55.2039 103.662C55.3727 103.862 55.5829 103.962 55.8356 103.962C56.0883 103.962 56.2847 103.865 56.4513 103.674C56.6178 103.481 56.7017 103.198 56.7017 102.825H56.7028Z" fill="#231F20"/>
<path d="M58.9646 105.425L60.2281 105.294C60.2637 105.58 60.3705 105.807 60.5486 105.973C60.7255 106.14 60.9311 106.224 61.1619 106.224C61.4261 106.224 61.6513 106.116 61.8339 105.901C62.0177 105.686 62.1096 105.361 62.1096 104.928C62.1096 104.521 62.0188 104.217 61.8362 104.014C61.6547 103.81 61.4169 103.709 61.1252 103.709C60.7611 103.709 60.4349 103.87 60.1454 104.192L59.1162 104.042L59.7664 100.599H63.1192V101.785H60.7266L60.5279 102.909C60.8105 102.767 61.0999 102.696 61.394 102.696C61.9568 102.696 62.4335 102.901 62.8252 103.31C63.2168 103.718 63.4121 104.25 63.4121 104.903C63.4121 105.447 63.2536 105.933 62.9377 106.36C62.507 106.944 61.9097 107.236 61.1459 107.236C60.5348 107.236 60.0374 107.071 59.6515 106.744C59.2667 106.417 59.0358 105.975 58.9612 105.422L58.9646 105.425Z" fill="#231F20"/>
<path d="M64.0415 105.37L65.2694 105.221C65.3084 105.533 65.4141 105.773 65.5853 105.939C65.7564 106.104 65.9643 106.187 66.2078 106.187C66.4697 106.187 66.6902 106.088 66.8694 105.889C67.0486 105.691 67.1382 105.423 67.1382 105.086C67.1382 104.767 67.0521 104.514 66.8809 104.328C66.7098 104.142 66.5007 104.048 66.2538 104.048C66.0918 104.048 65.8977 104.079 65.6714 104.143L65.8115 103.11C66.155 103.119 66.4169 103.044 66.5972 102.886C66.7775 102.727 66.8683 102.518 66.8683 102.256C66.8683 102.033 66.8016 101.857 66.6696 101.723C66.5375 101.591 66.3606 101.525 66.1412 101.525C65.9218 101.525 65.7392 101.6 65.5864 101.75C65.4336 101.9 65.3395 102.12 65.3061 102.409L64.1368 102.21C64.2184 101.811 64.3401 101.49 64.5044 101.251C64.6687 101.012 64.8972 100.824 65.1901 100.687C65.483 100.551 65.8127 100.482 66.1756 100.482C66.7982 100.482 67.2979 100.68 67.6735 101.078C67.9836 101.403 68.1386 101.77 68.1386 102.179C68.1386 102.761 67.8216 103.223 67.1864 103.569C67.5655 103.651 67.8687 103.832 68.0961 104.115C68.3236 104.397 68.4373 104.74 68.4373 105.139C68.4373 105.721 68.2248 106.214 67.801 106.624C67.3771 107.035 66.8487 107.238 66.217 107.238C65.6186 107.238 65.1212 107.066 64.7272 106.721C64.3333 106.376 64.1047 105.926 64.0415 105.369V105.37Z" fill="#231F20"/>
<path fill-rule="evenodd" clip-rule="evenodd" d="M58.4994 22.0053C78.6554 22.0053 94.9946 38.3445 94.9946 58.5006C94.9946 78.6566 78.6554 94.9958 58.4994 94.9958C38.3433 94.9958 22.0042 78.6566 22.0042 58.5006C22.0042 38.3445 38.3445 22.0053 58.4994 22.0053Z" fill="#32954E"/>
<path d="M85.468 31.532C78.5671 24.6299 69.0323 20.3617 58.5006 20.3617C47.9689 20.3617 38.4341 24.6311 31.5332 31.532C24.6311 38.433 20.3628 47.9677 20.3628 58.4994C20.3628 69.0312 24.6323 78.5659 31.5332 85.4668C38.4341 92.3678 47.9689 96.6372 58.5006 96.6372C69.0323 96.6372 78.5671 92.3678 85.468 85.4668C92.3689 78.5659 96.6384 69.0312 96.6384 58.4994C96.6384 47.9677 92.3689 38.433 85.468 31.532ZM58.4994 18.9132C69.4309 18.9132 79.3286 23.3446 86.4926 30.5086C93.6565 37.6726 98.0879 47.5703 98.0879 58.5006C98.0879 69.4309 93.6565 79.3286 86.4926 86.4925C79.3286 93.6565 69.432 98.0879 58.4994 98.0879C47.5668 98.0879 37.6714 93.6565 30.5075 86.4925C23.3435 79.3286 18.9121 69.432 18.9121 58.5006C18.9121 47.5691 23.3435 37.6714 30.5075 30.5086C37.6714 23.3446 47.568 18.9132 58.4994 18.9132Z" fill="#32954E"/>
<path fill-rule="evenodd" clip-rule="evenodd" d="M60.2349 55.6129L60.2453 55.6279L60.305 55.5475L60.2349 55.6118V55.6129ZM55.2648 61.2102L55.1603 61.2446L54.7445 61.3825L54.3643 61.5203L54.0174 61.6938L53.7061 61.8661L53.4293 62.0739L53.187 62.2818L52.9446 62.4886L52.7367 62.731L52.5633 62.9722L52.4254 63.2145L52.3209 63.4914L52.2175 63.7682L52.113 64.0461L52.0441 64.3574L52.0096 64.6687L51.9752 64.98V65.637L52.0096 65.9827L52.0441 66.3296L52.113 66.6753L52.1475 67.0211L52.2164 67.4013L52.3197 67.7826L52.3898 68.1628L52.4932 68.5442L52.5966 68.9243L55.2614 78.6808L56.7833 84.2516L58.651 91.2065L60.0351 85.8436L61.5914 79.8236L64.4285 68.9243L64.4975 68.5442L64.602 68.1628L64.6709 67.7826L64.7743 67.4013L64.8432 67.0211L64.8777 66.6753L64.9466 66.3296L64.981 65.9827L65.0155 65.637V64.98L64.981 64.6687L64.9466 64.3574L64.8777 64.0461L64.7731 63.7682L64.7042 63.4914L64.5664 63.2145L64.4274 62.9722L64.254 62.731L64.0461 62.4886L63.8037 62.2818L63.5613 62.0739L63.2845 61.8661L62.9732 61.6938L62.6264 61.5203L62.2462 61.3825L61.8315 61.2446L61.5891 61.1746L61.3824 61.1057L60.9321 61.0023L60.413 60.8989L60.0328 60.83L59.8593 60.7955L59.2712 60.7255V58.7843C59.6663 58.6269 60.0029 58.3559 60.2395 58.0101L61.8912 57.9711H67.4621L67.531 58.4213L67.601 58.8371L67.67 59.2173L67.7733 59.5631L67.8767 59.9088L68.0157 60.2201L68.1535 60.4969L68.2925 60.7393L68.4315 60.9805L68.6038 61.1884L68.8117 61.3951L68.9851 61.5686L69.193 61.7064L69.4009 61.8442L69.6088 61.9488L69.8512 62.0521L70.0924 62.1555L70.3348 62.19L70.5771 62.2589L70.8195 62.2933L71.0618 62.3278H71.8923L72.1691 62.2933L72.4459 62.2589L72.7228 62.2244L72.9996 62.19L73.3109 62.121L73.5877 62.0521L73.8645 62.0177L74.1413 61.9143L90.6803 57.3474L74.1413 53.1262L73.8645 53.0573L73.5877 53.0228L73.3109 52.9539L72.9996 52.885L72.7228 52.8505L72.4459 52.7816L72.1691 52.7471H71.8923L71.6155 52.7127H71.0618L70.8195 52.7471L70.5771 52.7816L70.3348 52.816L70.0924 52.8861L69.8512 52.955L69.6088 53.0584L69.4009 53.1618L69.193 53.2996L68.9851 53.4386L68.8117 53.612L68.6038 53.7855L68.4315 54.0267L68.2925 54.2346L68.1535 54.5114L68.0157 54.7882L67.8767 55.0995L67.7733 55.4464L67.67 55.8266L67.601 56.2068L67.531 56.6226L67.4621 57.0717H61.8912L60.5875 57.1016C60.6002 57.0097 60.6071 56.9143 60.6071 56.8179C60.6071 56.711 60.599 56.6076 60.583 56.5043L61.8912 55.0972L65.3164 51.4297L65.6966 51.7409L66.0424 51.9833L66.3536 52.1912L66.6994 52.3979L67.0107 52.5369L67.2875 52.6748L67.5987 52.7781L67.8756 52.8827L68.1524 52.9171L68.4292 52.9516H68.9484L69.1907 52.9171L69.4331 52.8482L69.6755 52.7793L69.9178 52.6759L70.1257 52.5725L70.3336 52.4335L70.5415 52.2946L70.7494 52.1567L70.9573 51.9833L71.0607 51.8098L71.1296 51.7754L71.3375 51.6031L71.511 51.3952L71.6833 51.1528L71.8567 50.9449L72.0301 50.7026L72.1691 50.4602L72.3426 50.219L72.4804 49.9766L72.6194 49.7343L72.7572 49.4575L81.4075 34.7528L71.0618 40.8083L66.7028 43.4031L66.4605 43.5765L66.2181 43.7143L65.9757 43.8533L65.7334 44.0268L65.491 44.1646L65.2487 44.338L65.0063 44.5115L64.7984 44.6838L64.5905 44.8572L64.4182 45.064L64.2103 45.2374L64.038 45.4453L63.899 45.6532L63.7256 45.8611L63.6222 46.0679L63.4844 46.2758L63.4143 46.5181L63.3454 46.7605L63.2765 47.0029L63.242 47.2452L63.2076 47.4876L63.242 47.7644V48.0412L63.3109 48.318L63.3798 48.596L63.4844 48.9073L63.6222 49.1841L63.7956 49.4954L64.0024 49.8411L64.2103 50.1524L64.4527 50.4981L64.7295 50.845L61.8924 53.8555L60.2142 55.5923C59.9409 55.2098 59.5423 54.9238 59.0794 54.7905H59.1116V49.0129L59.5274 48.9785L59.8731 48.9096H59.942L60.3222 48.8407L60.6679 48.7361L61.0137 48.6328L61.325 48.4949L61.4283 48.426L61.6018 48.3559L61.8441 48.2181L62.0865 48.0803L62.2944 47.9068L62.5012 47.6989L62.6746 47.5266L62.8124 47.3187L62.9514 47.1108L63.0559 46.9029L63.1593 46.6606L63.2627 46.4182L63.2971 46.1758L63.3661 45.9335L63.4005 45.6911L63.435 45.4143V44.6183L63.4005 44.3415L63.3661 44.0647L63.3316 43.7879L63.2971 43.511L63.2282 43.1998L63.1593 42.9229L63.1249 42.6461L63.0559 42.3348L61.4295 36.4183L59.8731 30.813L58.489 25.7958L56.6213 32.6818L55.0994 38.1481L53.9577 42.3348L53.8543 42.6461L53.8199 42.9229L53.7509 43.1998L53.6809 43.511L53.6464 43.7879L53.5775 44.0647L53.543 44.3415V44.6183L53.5086 44.8963V45.4155L53.543 45.6923L53.5775 45.9346L53.6119 46.177L53.6809 46.4194L53.7509 46.6617L53.8543 46.9041L53.9577 47.112L54.0967 47.3199L54.2357 47.5278L54.4079 47.7001L54.5814 47.908L54.8237 48.0814L55.0305 48.2192L55.0994 48.2537L55.3073 48.3571L55.5841 48.4961L55.8954 48.6339L56.2412 48.7373L56.6213 48.8418L57.0027 48.9107L57.4185 48.9796L57.9032 49.0141V54.7917H57.9135C57.4461 54.9261 57.0452 55.2167 56.7707 55.6038L56.6225 55.4487L55.1006 53.8578L52.2635 50.8473L52.5403 50.5004L52.7826 50.1547L52.9905 49.8434L53.1973 49.4977L53.3707 49.1864L53.5086 48.9096L53.6119 48.5983L53.6809 48.3203L53.7509 48.0435V47.7667L53.7854 47.4899L53.7509 47.2475L53.7165 47.0052L53.6464 46.7628L53.5775 46.5204L53.5086 46.2781L53.3707 46.0702L53.2674 45.8634L53.0951 45.6555L52.9561 45.4476L52.7826 45.2397L52.5747 45.0663L52.4013 44.8595L52.1945 44.6861L51.9866 44.5138L51.7443 44.3403L51.5019 44.1669L51.2596 44.0291L51.0172 43.8556L50.7748 43.7166L50.5325 43.5788L50.2901 43.4054L45.9311 40.8106L35.5854 34.7551L44.2357 49.4598L44.3736 49.7366L44.5125 49.9789L44.6504 50.2213L44.8238 50.4625L44.9617 50.7049L45.1351 50.9472L45.3085 51.1551L45.482 51.3975L45.6554 51.6054L45.8633 51.7777L45.9323 51.8121L46.0356 51.9856L46.2435 52.159L46.4514 52.2969L46.6582 52.4358L46.8661 52.5748L47.074 52.6782L47.3152 52.7816L47.5576 52.8505L47.7999 52.9194L48.0423 52.9539H48.5614L48.8383 52.9194L49.1151 52.885L49.3919 52.7804L49.7032 52.6771L49.98 52.5392L50.2913 52.4002L50.637 52.1935L50.9483 51.9856L51.294 51.7432L51.6742 51.4319L55.0994 55.0995L56.4123 56.471C56.3939 56.5847 56.3836 56.6995 56.3836 56.819C56.3836 56.9051 56.3882 56.989 56.3985 57.0717H49.5286L49.4597 56.6226L49.3908 56.2068L49.3207 55.8266L49.2173 55.4464L49.1139 55.0995L48.9761 54.7882L48.8371 54.5114L48.6993 54.2346L48.5603 54.0267L48.3869 53.7855L48.179 53.612L48.0055 53.4386L47.7976 53.2996L47.5897 53.1618L47.3818 53.0584L47.1395 52.955L46.8982 52.8861L46.6559 52.816L46.4135 52.7816L46.1712 52.7471L45.9288 52.7127H45.3752L45.0983 52.7471H44.8215L44.5447 52.7816L44.2679 52.8505L43.9911 52.885L43.6798 52.9539L43.403 53.0228L43.1262 53.0573L42.8493 53.1262L26.3103 57.3474L42.8493 61.9143L43.1262 62.0177L43.403 62.0521L43.6798 62.121L43.9911 62.19L44.2679 62.2244L44.5447 62.2589L44.8215 62.2933L45.0983 62.3278H45.9288L46.1712 62.2933L46.4135 62.2589L46.6559 62.19L46.8982 62.1555L47.1395 62.0521L47.3818 61.9488L47.5897 61.8442L47.7976 61.7064L48.0055 61.5686L48.179 61.3951L48.3869 61.1884L48.5603 60.9805L48.6993 60.7393L48.8371 60.4969L48.9761 60.2201L49.1139 59.9088L49.2173 59.5631L49.3207 59.2173L49.3908 58.8371L49.4597 58.4213L49.5286 57.9711H56.7247C56.9694 58.3455 57.3289 58.6373 57.7539 58.7981V60.7255L57.1302 60.7955L56.7844 60.8645L56.5765 60.8989L56.0574 61.0023L55.6071 61.1057L55.2614 61.2102H55.2648Z" fill="white"/>
<path d="M10.4179 54.6998L10.5799 53.2674L13.4078 53.5856L13.4112 53.5569C13.1803 53.3869 12.9701 53.2089 12.7576 53.0412L10.7958 51.3504L10.9957 49.5758L13.4801 51.9982L17.4038 50.1822L17.2132 51.8719L14.275 53.1262L14.8872 53.7522L16.9742 53.9876L16.8123 55.42L10.4167 54.6998H10.4179Z" fill="#231F20"/>
<path d="M16.3082 47.8333L17.7899 48.6959L17.4074 50.1558L11.6792 46.6215L12.1628 44.7734L18.8949 44.4736L18.4974 45.9886L16.7733 46.0506L16.3059 47.8333H16.3082ZM15.6684 45.9783L14.2452 46.0196C13.8467 46.0334 13.3562 46.0231 12.9622 46.0196L12.9576 46.038C13.3034 46.2275 13.7502 46.4435 14.0833 46.6387L15.3077 47.3543L15.6684 45.9783Z" fill="#231F20"/>
<path d="M19.4058 43.3249L16.9535 42.359L12.6714 42.8575L13.2802 41.3114L14.9606 41.2655C15.4694 41.2505 15.8381 41.2517 16.2884 41.2551L16.2953 41.2379C15.9748 40.9576 15.6842 40.6785 15.3282 40.3328L14.1267 39.1612L14.7251 37.6416L17.4393 40.9898L19.9353 41.9742L19.4035 43.3249H19.4058Z" fill="#231F20"/>
<path d="M19.5655 39.0567C19.9285 38.8074 20.3914 38.3744 20.6866 37.8288C21.0047 37.2407 20.9289 36.7985 20.5602 36.5986C20.2076 36.4079 19.8607 36.5676 19.2485 37.1155C18.4123 37.8793 17.5589 38.2101 16.7364 37.7645C15.7705 37.2418 15.4684 36.0358 16.1909 34.6999C16.5366 34.0613 16.926 33.6639 17.2579 33.41L18.1366 34.2543C17.9046 34.422 17.5267 34.739 17.2269 35.2926C16.9271 35.8474 17.0328 36.2517 17.3268 36.4114C17.6875 36.6066 18.0206 36.3746 18.6926 35.7934C19.6034 34.994 20.3787 34.8056 21.1759 35.2375C22.1246 35.7509 22.5359 36.9179 21.6951 38.472C21.3447 39.1187 20.8313 39.6666 20.4821 39.8894L19.5644 39.0567H19.5655Z" fill="#231F20"/>
<path d="M23.271 30.7774L21.9041 32.7117L23.1515 33.5938L24.6781 31.4332L25.6532 32.1224L23.2836 35.4764L18.0264 31.7629L20.319 28.518L21.2942 29.2072L19.8446 31.2587L20.937 32.0305L22.3038 30.0962L23.271 30.7797V30.7774Z" fill="#231F20"/>
<path d="M21.4596 27.2201C21.7181 26.8227 22.1454 26.269 22.6668 25.6982C23.3101 24.9929 23.866 24.5955 24.4438 24.5013C24.9273 24.4255 25.4006 24.5725 25.8382 24.9711C26.4447 25.5247 26.4688 26.3345 26.2437 26.879L26.2643 26.8985C26.7008 26.6894 27.1855 26.7951 27.7323 27.0742C28.4042 27.4154 29.16 27.8335 29.4265 27.9081L28.4226 29.0085C28.2181 28.9637 27.7265 28.7225 27.0121 28.3297C26.3034 27.9162 25.9542 27.9724 25.5487 28.4043L25.2524 28.7294L27.1224 30.4339L26.1506 31.4999L21.4585 27.2212L21.4596 27.2201ZM24.4782 28.0207L24.8642 27.5968C25.3535 27.0604 25.3742 26.4988 24.9584 26.1186C24.5207 25.72 24.0314 25.8165 23.5743 26.3046C23.3365 26.5654 23.2228 26.7331 23.1653 26.8238L24.4782 28.0207Z" fill="#231F20"/>
<path d="M25.0111 21.9295C24.7619 21.6527 24.7894 21.2427 25.0651 20.9923C25.3339 20.7487 25.7325 20.7763 25.9817 21.052C26.2126 21.307 26.2114 21.7193 25.9427 21.9628C25.659 22.219 25.242 22.1845 25.0111 21.9295ZM26.7237 21.7584L31.0391 26.5344L29.9548 27.5141L25.6394 22.7382L26.7237 21.7584Z" fill="#231F20"/>
<path d="M31.5021 18.1264C31.8444 17.8266 32.3521 17.4487 33.1091 16.9847C33.874 16.5161 34.5092 16.3277 35.056 16.3966C35.5751 16.4586 36.0909 16.7699 36.4205 17.3075C36.7502 17.845 36.8501 18.4101 36.7146 18.919C36.5354 19.5771 36.0185 20.1411 35.2857 20.5902C35.1226 20.6902 34.971 20.7717 34.8469 20.8257L36.0495 22.7875L34.8205 23.541L31.501 18.1276L31.5021 18.1264ZM34.2588 19.8643C34.3794 19.8241 34.515 19.7517 34.6942 19.6426C35.3535 19.2383 35.5556 18.6548 35.211 18.0931C34.9021 17.5889 34.3668 17.5016 33.7477 17.8806C33.495 18.0357 33.3388 18.1643 33.2653 18.2436L34.2588 19.8631V19.8643Z" fill="#231F20"/>
<path d="M39.5849 18.9236L39.8503 20.6178L38.4765 21.2415L37.6082 14.5668L39.3472 13.7777L43.8245 18.8145L42.3979 19.4623L41.2631 18.1632L39.5849 18.9247V18.9236ZM40.6221 17.2569L39.6929 16.1795C39.431 15.8786 39.1289 15.4915 38.8843 15.1837L38.867 15.1917C38.9383 15.5788 39.052 16.0624 39.1106 16.4448L39.3276 17.8462L40.6233 17.2581L40.6221 17.2569Z" fill="#231F20"/>
<path d="M44.4207 18.6146L42.6667 12.4212L44.3024 11.9583L46.2321 13.8639C46.7846 14.4118 47.3704 15.0803 47.8436 15.7005L47.8712 15.6925C47.5473 14.9011 47.2831 14.0718 47.02 13.1437L46.5077 11.3335L47.7942 10.9694L49.5482 17.1627L48.0779 17.5785L46.0782 15.5639C45.5234 15.0068 44.8928 14.321 44.3839 13.6813L44.3587 13.6985C44.6275 14.506 44.8928 15.3732 45.1788 16.384L45.7072 18.2493L44.4207 18.6135V18.6146Z" fill="#231F20"/>
<path d="M55.2304 16.1784C54.9834 16.3461 54.4057 16.5677 53.6292 16.6723C51.4238 16.9675 50.1041 15.7465 49.8617 13.9294C49.5711 11.7516 50.9609 10.333 52.8918 10.0746C53.6395 9.97465 54.2276 10.0505 54.501 10.1481L54.3609 11.3323C54.0507 11.2485 53.6292 11.1887 53.1181 11.2577C51.9729 11.4104 51.1757 12.2202 51.3653 13.6411C51.5364 14.9195 52.4013 15.6224 53.6889 15.4501C54.1242 15.3916 54.594 15.233 54.8628 15.0814L55.2315 16.1784H55.2304Z" fill="#231F20"/>
<path d="M57.5964 14.6553L57.1117 16.3001L55.6035 16.276L57.6745 9.87242L59.5846 9.90343L61.4764 16.3713L59.9109 16.3461L59.4411 14.6863L57.5987 14.6564L57.5964 14.6553ZM59.247 13.5928L58.8679 12.2214C58.7599 11.8377 58.6531 11.3587 58.5635 10.9751H58.544C58.4418 11.3553 58.3395 11.8412 58.2281 12.211L57.8238 13.5698L59.247 13.5928Z" fill="#231F20"/>
<path d="M63.0422 10.1515C63.5166 10.1435 64.215 10.186 64.9799 10.2963C65.9253 10.433 66.5662 10.6707 66.9682 11.0957C67.3025 11.4529 67.446 11.9273 67.361 12.5131C67.2439 13.3263 66.5857 13.8007 66.0091 13.919L66.0045 13.9477C66.4226 14.1913 66.6075 14.653 66.6833 15.2618C66.7775 16.0084 66.8556 16.8698 66.9429 17.1329L65.4681 16.9192C65.39 16.7251 65.3142 16.183 65.2384 15.3709C65.1832 14.5519 64.9409 14.2958 64.3562 14.2016L63.9209 14.1384L63.5591 16.6436L62.1313 16.4368L63.0399 10.1515H63.0422ZM64.0725 13.0989L64.6399 13.1805C65.3578 13.2838 65.8357 12.9863 65.9161 12.4293C66.0011 11.8435 65.6461 11.4931 64.9857 11.3875C64.6365 11.3369 64.4332 11.3369 64.3264 11.3404L64.0725 13.0989Z" fill="#231F20"/>
<path d="M71.3663 11.6275L72.7331 12.0858L71.8291 14.7839L71.8567 14.7931C72.0715 14.6036 72.2886 14.4348 72.4976 14.2625L74.5629 12.698L76.2559 13.2655L73.366 15.1883L74.3205 19.406L72.709 18.8661L72.0968 15.7304L71.3559 16.1979L70.6886 18.1908L69.3206 17.7325L71.364 11.6287L71.3663 11.6275Z" fill="#231F20"/>
<path d="M81.111 19.1395C80.1669 21.0267 78.4497 21.5976 76.7669 20.7556C75.0589 19.9011 74.7051 18.1115 75.5264 16.4713C76.3902 14.746 78.1372 14.0086 79.8361 14.8586C81.6038 15.743 81.9059 17.5498 81.111 19.1384V19.1395ZM76.914 17.134C76.35 18.2608 76.4821 19.3199 77.3527 19.7563C78.2326 20.1963 79.1549 19.6116 79.7155 18.4928C80.2323 17.4591 80.1818 16.3231 79.2859 15.8751C78.406 15.4352 77.4745 16.0153 76.9151 17.134H76.914Z" fill="#231F20"/>
<path d="M86.937 23.2332C85.7057 24.9481 83.9208 25.241 82.3919 24.1429C80.8401 23.0288 80.7735 21.2059 81.8429 19.7161C82.9685 18.1494 84.8098 17.6968 86.3535 18.8053C87.9593 19.9585 87.9731 21.7905 86.937 23.2332ZM83.1098 20.5902C82.3747 21.6137 82.3379 22.6807 83.1293 23.2493C83.9288 23.8225 84.9315 23.3917 85.6621 22.3752C86.3363 21.4368 86.465 20.3065 85.6506 19.7219C84.8511 19.1487 83.8403 19.5737 83.111 20.5902H83.1098Z" fill="#231F20"/>
<path d="M89.9439 21.848C90.3207 22.1041 90.8146 22.4993 91.4544 23.1149C92.1011 23.7375 92.4433 24.3049 92.5146 24.8505C92.5858 25.3697 92.4146 25.9463 91.977 26.4011C91.5405 26.856 91.0179 27.0949 90.4907 27.0915C89.8084 27.0846 89.133 26.7262 88.5139 26.1301C88.3761 25.998 88.2589 25.8716 88.1762 25.7648L86.5808 27.4234L85.5413 26.4241L89.9439 21.8468V21.848ZM88.9573 24.9539C89.0273 25.0607 89.1307 25.1732 89.2823 25.3191C89.8394 25.8555 90.4551 25.9038 90.9122 25.4294C91.3223 25.0033 91.2717 24.4634 90.748 23.9603C90.5343 23.7547 90.3701 23.6364 90.2747 23.5847L88.9573 24.9539Z" fill="#231F20"/>
<path d="M93.87 31.447L92.3768 29.6092L91.1914 30.5729L92.8592 32.6267L91.9323 33.379L89.3433 30.1916L94.3386 26.1335L96.8426 29.2164L95.9157 29.9688L94.3317 28.0195L93.2945 28.8626L94.7877 30.7004L93.8688 31.447H93.87Z" fill="#231F20"/>
<path d="M97.7846 30.6648C98.097 31.0209 98.5151 31.5826 98.924 32.2384C99.4294 33.0482 99.6615 33.6914 99.596 34.2726C99.5386 34.7585 99.2698 35.1743 98.7667 35.4879C98.0695 35.9221 97.2838 35.7268 96.8198 35.3627L96.7956 35.3776C96.8795 35.8543 96.6463 36.2931 96.2294 36.7433C95.7194 37.2981 95.1129 37.9126 94.9682 38.1492L94.1791 36.8858C94.2779 36.7008 94.642 36.2931 95.214 35.7119C95.8032 35.141 95.8434 34.7907 95.5379 34.283L95.3059 33.9108L93.1591 35.2501L92.3953 34.0268L97.7835 30.666L97.7846 30.6648ZM96.1984 33.3549L96.5016 33.8408C96.8852 34.4564 97.4216 34.6287 97.8995 34.3312C98.4014 34.0176 98.4405 33.5203 98.0947 32.9483C97.9075 32.6485 97.7777 32.4934 97.7054 32.4142L96.1984 33.3549Z" fill="#231F20"/>
<path d="M97.3918 39.4506L95.6953 39.701L95.0842 38.3215L101.766 37.5129L102.54 39.2588L97.463 43.6914L96.829 42.259L98.1384 41.1357L97.3918 39.4506ZM99.0481 40.5028L100.135 39.5827C100.438 39.3231 100.827 39.0256 101.139 38.7833L101.131 38.7661C100.742 38.8338 100.259 38.9429 99.8751 38.9981L98.4715 39.2014L99.0481 40.5028Z" fill="#231F20"/>
<path d="M102.72 43.24L102.207 41.5894L103.374 41.2264L104.842 45.9496L103.675 46.3125L103.153 44.6344L98.1739 46.1816L97.7397 44.786L102.719 43.2388L102.72 43.24Z" fill="#231F20"/>
<path d="M105.376 48.588L99.078 49.9192L98.7759 48.4892L105.074 47.1579L105.376 48.588ZM106.089 47.0224C106.453 46.9454 106.796 47.1751 106.873 47.5404C106.947 47.8953 106.724 48.2261 106.36 48.3031C106.024 48.3743 105.668 48.1664 105.593 47.8115C105.514 47.4382 105.754 47.0947 106.09 47.0235L106.089 47.0224Z" fill="#231F20"/>
<path d="M105.703 50.2546L106.167 54.1622L104.982 54.3023L104.69 51.8466L103.23 52.02L103.502 54.315L102.326 54.454L102.054 52.159L99.4833 52.4634L99.311 51.0127L105.703 50.2546Z" fill="#231F20"/>
<path d="M106.261 57.1486L99.8279 57.3347L99.7854 55.8748L106.219 55.6887L106.261 57.1486ZM107.242 55.7347C107.614 55.7243 107.91 56.0115 107.92 56.3837C107.93 56.7466 107.652 57.0315 107.28 57.0418C106.937 57.0522 106.623 56.7834 106.613 56.4216C106.601 56.0402 106.899 55.745 107.242 55.7347Z" fill="#231F20"/>
</g>
</svg>
