<svg width="16" height="17" viewBox="0 0 16 17" fill="none" xmlns="http://www.w3.org/2000/svg">
<path d="M14.2775 12.4625H11.1425C10.8732 12.4634 10.6063 12.4108 10.3574 12.3078C10.1085 12.2048 9.88254 12.0534 9.69254 11.8625C9.42284 11.5923 5.90459 8.07624 5.77004 7.93751L2.61254 4.78001C2.56419 4.7354 2.50082 4.71063 2.43504 4.71063C2.36926 4.71063 2.30589 4.7354 2.25754 4.78001L1.24254 5.79751C1.08807 5.95252 1.00134 6.16243 1.00134 6.38126C1.00134 6.60009 1.08807 6.81 1.24254 6.96501L8.50754 14.2275C8.59591 14.3173 8.6912 14.4001 8.79254 14.475C9.23102 14.8014 9.76345 14.9768 10.31 14.975H13.6C13.9713 14.9748 14.3272 14.8272 14.5897 14.5647C14.8522 14.3022 14.9998 13.9462 15 13.575V13.195C15.0003 13.0024 14.9246 12.8174 14.7893 12.6803C14.6541 12.5431 14.4702 12.4649 14.2775 12.4625Z" fill="#00CE7C"/>
<path d="M6.12251 7.585L6.28251 7.745C6.33756 6.88411 6.47766 4.83261 6.53001 4L6.58251 3.2125C6.59508 2.98782 6.53944 2.76458 6.42289 2.57208C6.30633 2.37958 6.13431 2.22681 5.92938 2.13381C5.72446 2.04082 5.49621 2.01194 5.27459 2.05098C5.05296 2.09001 4.84831 2.19513 4.68749 2.35254L2.75751 4.2825C2.83402 4.31589 2.90357 4.36338 2.96251 4.4225L6.12251 7.585Z" fill="#00CE7C"/>
<path d="M11.1425 11.9625H13.815C12.8303 10.8483 12.0386 9.57746 11.4725 8.20251C11.2562 8.42138 10.7869 8.88613 10.5675 9.10751C10.5203 9.15395 10.4567 9.17982 10.3905 9.17946C10.3244 9.17909 10.261 9.15252 10.2144 9.10557C10.1678 9.05861 10.1417 8.99509 10.1418 8.92892C10.1419 8.86275 10.1682 8.79931 10.215 8.75251L11.28 7.68751C11.065 7.09501 10.8825 6.57251 10.7275 6.12251C10.4702 6.37976 9.54842 7.30158 9.27497 7.57501C9.25215 7.59872 9.22477 7.61759 9.19449 7.63048C9.1642 7.64337 9.13163 7.65001 9.09872 7.65001C9.0658 7.65001 9.03323 7.64337 9.00294 7.63048C8.97266 7.61759 8.94529 7.59872 8.92247 7.57501C8.89929 7.55188 8.88089 7.52441 8.86835 7.49417C8.8558 7.46392 8.84934 7.4315 8.84934 7.39876C8.84934 7.36601 8.8558 7.33359 8.86835 7.30335C8.88089 7.2731 8.89929 7.24563 8.92247 7.22251C9.20938 6.93563 10.2852 5.85968 10.5525 5.59251C10.2861 4.77337 10.1369 3.91918 9.14493 3.90503C8.91664 3.90536 8.69334 3.97191 8.50209 4.09659C8.31085 4.22127 8.15988 4.39875 8.06747 4.60751C7.92087 4.96492 7.52983 5.03941 7.17747 5.00748C7.05394 5.02236 6.93788 4.90386 6.96 5.09002L6.95747 5.14252C6.92929 5.51706 6.77708 7.89625 6.75247 8.21752L10.045 11.51C10.1889 11.6543 10.36 11.7685 10.5484 11.8462C10.7368 11.9239 10.9387 11.9634 11.1425 11.9625Z" fill="#00CE7C"/>
<path opacity="0.5" d="M8.155 14.58L8.05 14.475H1.25C1.18437 14.476 1.12177 14.5028 1.07571 14.5496C1.02966 14.5964 1.00385 14.6594 1.00385 14.725C1.00385 14.7906 1.02966 14.8537 1.07571 14.9004C1.12177 14.9472 1.18437 14.974 1.25 14.975H8.6375C8.46139 14.8632 8.29939 14.7306 8.155 14.58Z" fill="#00CE7C"/>
<path opacity="0.5" d="M4.99999 12.9629C5.06545 12.9616 5.12779 12.9347 5.17364 12.888C5.21948 12.8412 5.24515 12.7784 5.24515 12.7129C5.24515 12.6474 5.21947 12.5846 5.17362 12.5378C5.12778 12.4911 5.06543 12.4642 4.99997 12.4629H1.24999C1.18453 12.4642 1.12218 12.4911 1.07634 12.5378C1.0305 12.5846 1.00482 12.6474 1.00482 12.7129C1.00482 12.7784 1.03051 12.8412 1.07635 12.888C1.12219 12.9347 1.18454 12.9616 1.25 12.9629H4.99999Z" fill="#00CE7C"/>
</svg>
