<svg width="16" height="16" viewBox="0 0 16 16" fill="none" xmlns="http://www.w3.org/2000/svg">
<path d="M8.00001 1.88867C6.3989 1.88867 5.09723 3.19034 5.09723 4.79145C5.09723 6.36201 6.32556 7.63312 7.92667 7.68812C7.97556 7.68201 8.02445 7.68201 8.06112 7.68812C8.07334 7.68812 8.07945 7.68812 8.09167 7.68812C8.09778 7.68812 8.09778 7.68812 8.1039 7.68812C9.66834 7.63312 10.8967 6.36201 10.9028 4.79145C10.9028 3.19034 9.60112 1.88867 8.00001 1.88867Z" fill="#1E293B"/>
<path d="M11.1044 9.31344C9.39942 8.17677 6.61887 8.17677 4.90164 9.31344C4.12553 9.83288 3.69775 10.5357 3.69775 11.2873C3.69775 12.039 4.12553 12.7357 4.89553 13.249C5.75109 13.8234 6.87553 14.1107 7.99998 14.1107C9.12442 14.1107 10.2489 13.8234 11.1044 13.249C11.8744 12.7295 12.3022 12.0329 12.3022 11.2751C12.2961 10.5234 11.8744 9.82677 11.1044 9.31344Z" fill="#0F172A"/>
</svg>
