<svg width="12" height="18" viewBox="0 0 12 18" fill="none" xmlns="http://www.w3.org/2000/svg">
<path d="M10.3008 8.54042C10.4725 8.24709 10.5715 7.90345 10.5715 7.53634C10.5715 6.46311 9.72645 5.58996 8.68773 5.58996H6.47251V4.69196C7.02268 4.49035 7.41787 3.94748 7.41787 3.31078C7.41787 2.16477 6.445 1.12648 6.33405 1.01186L5.99984 0.666504L5.66562 1.01186C5.55467 1.12648 4.58181 2.16477 4.58181 3.31078C4.58181 3.94748 4.977 4.49035 5.52716 4.69196V5.58996H3.31195C2.27326 5.58996 1.4282 6.46311 1.4282 7.53634C1.4282 7.90345 1.52718 8.24706 1.69883 8.54042C0.827558 8.71103 0.166504 9.50318 0.166504 10.4523V10.4849C0.166504 11.2518 0.598152 11.9163 1.22347 12.2333L1.87917 17.3332H10.1205L10.7762 12.2333C11.4015 11.9164 11.8332 11.2519 11.8332 10.4849V10.4523C11.8332 9.50318 11.1721 8.71103 10.3008 8.54042ZM5.99981 2.11948C6.23157 2.45319 6.47251 2.90573 6.47251 3.31081C6.47251 3.58011 6.26047 3.7992 5.99984 3.7992C5.7392 3.7992 5.52716 3.58011 5.52716 3.31081C5.52716 2.90567 5.76819 2.45302 5.99981 2.11948ZM3.31195 6.56675H8.68776C9.20518 6.56675 9.62615 7.00171 9.62615 7.53634C9.62615 8.07097 9.20518 8.50594 8.68776 8.50594H3.31195C2.79452 8.50594 2.37356 8.07097 2.37356 7.53634C2.37356 7.00171 2.79452 6.56675 3.31195 6.56675ZM2.20261 12.4313H3.35171L3.60403 16.3564H2.70724L2.20261 12.4313ZM7.70056 12.4313L7.44824 16.3564H6.47251V12.4313H7.70056ZM5.52716 16.3564H4.55143L4.29912 12.4313H5.52716V16.3564ZM9.29244 16.3564H8.39565L8.64796 12.4313H9.79707L9.29244 16.3564ZM10.8878 10.4849C10.8878 11.0195 10.4669 11.4545 9.94946 11.4545H2.05025C1.53282 11.4545 1.11189 11.0195 1.11189 10.4849V10.4523C1.11189 9.91769 1.53282 9.48273 2.05025 9.48273H9.94946C10.4669 9.48273 10.8878 9.91769 10.8878 10.4523V10.4849Z" fill="#00CE7C"/>
</svg>
