<svg width="9" height="5" viewBox="0 0 9 5" fill="none" xmlns="http://www.w3.org/2000/svg">
<g clip-path="url(#clip0_5_6)">
<path d="M7.9753 4.63883e-05L0.975407 4.57764e-05C0.839986 4.57646e-05 0.722762 0.0494909 0.623843 0.148464C0.524979 0.24741 0.475342 0.36458 0.475342 0.500001C0.475342 0.635422 0.524952 0.752537 0.623843 0.85162L4.12381 4.35158C4.2227 4.45042 4.33984 4.5 4.47534 4.5C4.61085 4.5 4.72799 4.45042 4.82696 4.35158L8.32692 0.851621C8.4259 0.752647 8.47534 0.635423 8.47534 0.500002C8.47534 0.364608 8.4259 0.247411 8.32692 0.148465C8.22784 0.0494916 8.1107 4.64002e-05 7.9753 4.63883e-05Z" fill="#E7E7E7"/>
</g>
<defs>
<clipPath id="clip0_5_6">
<rect width="9" height="5" fill="white"/>
</clipPath>
</defs>
</svg>
