<svg width="9" height="5" viewBox="0 0 9 5" fill="none" xmlns="http://www.w3.org/2000/svg">
<path d="M7.9753 4.43021e-05L0.975407 4.36902e-05C0.839986 4.36784e-05 0.722762 0.0494888 0.623843 0.148462C0.524979 0.247408 0.475342 0.364578 0.475342 0.499999C0.475342 0.63542 0.524952 0.752535 0.623843 0.851618L4.12381 4.35158C4.2227 4.45042 4.33984 4.5 4.47534 4.5C4.61085 4.5 4.72799 4.45042 4.82696 4.35158L8.32692 0.851619C8.4259 0.752645 8.47534 0.635421 8.47534 0.5C8.47534 0.364606 8.4259 0.247409 8.32692 0.148463C8.22784 0.0494895 8.1107 4.4314e-05 7.9753 4.43021e-05Z" fill="#3F556E"/>
</svg>
