<svg width="20" height="19" viewBox="0 0 20 19" fill="none" xmlns="http://www.w3.org/2000/svg">
<path fill-rule="evenodd" clip-rule="evenodd" d="M5.00016 4.7877C4.42487 4.7877 3.9585 5.20965 3.9585 5.73015V14.7777C3.9585 15.2983 4.42487 15.7202 5.00016 15.7202H15.0002C15.5755 15.7202 16.0418 15.2983 16.0418 14.7777V5.73015C16.0418 5.20965 15.5755 4.7877 15.0002 4.7877H5.00016ZM2.7085 5.73015C2.7085 4.58504 3.73451 3.65675 5.00016 3.65675H15.0002C16.2658 3.65675 17.2918 4.58504 17.2918 5.73015V14.7777C17.2918 15.9229 16.2658 16.8512 15.0002 16.8512H5.00016C3.73451 16.8512 2.7085 15.9229 2.7085 14.7777V5.73015Z" fill="#00CE7C"/>
<path fill-rule="evenodd" clip-rule="evenodd" d="M13.3335 2.14881C13.6787 2.14881 13.9585 2.40198 13.9585 2.71429V5.73016C13.9585 6.04246 13.6787 6.29563 13.3335 6.29563C12.9883 6.29563 12.7085 6.04246 12.7085 5.73016V2.71429C12.7085 2.40198 12.9883 2.14881 13.3335 2.14881Z" fill="#00CE7C"/>
<path fill-rule="evenodd" clip-rule="evenodd" d="M6.66683 2.14881C7.01201 2.14881 7.29183 2.40198 7.29183 2.71429V5.73016C7.29183 6.04246 7.01201 6.29563 6.66683 6.29563C6.32165 6.29563 6.04183 6.04246 6.04183 5.73016V2.71429C6.04183 2.40198 6.32165 2.14881 6.66683 2.14881Z" fill="#00CE7C"/>
<path fill-rule="evenodd" clip-rule="evenodd" d="M2.7085 8.74603C2.7085 8.43373 2.98832 8.18056 3.3335 8.18056H16.6668C17.012 8.18056 17.2918 8.43373 17.2918 8.74603C17.2918 9.05829 17.012 9.31154 16.6668 9.31154H3.3335C2.98832 9.31154 2.7085 9.05829 2.7085 8.74603Z" fill="#00CE7C"/>
<path fill-rule="evenodd" clip-rule="evenodd" d="M8.3335 11.7619C8.3335 11.3455 8.70659 11.008 9.16683 11.008H10.0002C10.4604 11.008 10.8335 11.3455 10.8335 11.7619C10.8335 12.1783 10.4604 12.5158 10.0002 12.5158H9.16683C8.70659 12.5158 8.3335 12.1783 8.3335 11.7619Z" fill="#00CE7C"/>
<path fill-rule="evenodd" clip-rule="evenodd" d="M10.0002 11.1964C10.3453 11.1964 10.6252 11.4496 10.6252 11.7619V14.0238C10.6252 14.3361 10.3453 14.5893 10.0002 14.5893C9.65498 14.5893 9.37516 14.3361 9.37516 14.0238V11.7619C9.37516 11.4496 9.65498 11.1964 10.0002 11.1964Z" fill="#00CE7C"/>
</svg>
