<svg width="20" height="21" viewBox="0 0 20 21" fill="none" xmlns="http://www.w3.org/2000/svg">
<path fill-rule="evenodd" clip-rule="evenodd" d="M5.00016 5.29167C4.42487 5.29167 3.9585 5.75804 3.9585 6.33333V16.3333C3.9585 16.9086 4.42487 17.375 5.00016 17.375H15.0002C15.5755 17.375 16.0418 16.9086 16.0418 16.3333V6.33333C16.0418 5.75804 15.5755 5.29167 15.0002 5.29167H5.00016ZM2.7085 6.33333C2.7085 5.06768 3.73451 4.04167 5.00016 4.04167H15.0002C16.2658 4.04167 17.2918 5.06768 17.2918 6.33333V16.3333C17.2918 17.599 16.2658 18.625 15.0002 18.625H5.00016C3.73451 18.625 2.7085 17.599 2.7085 16.3333V6.33333Z" fill="#64748B"/>
<path fill-rule="evenodd" clip-rule="evenodd" d="M13.3335 2.375C13.6787 2.375 13.9585 2.65482 13.9585 3V6.33333C13.9585 6.67851 13.6787 6.95833 13.3335 6.95833C12.9883 6.95833 12.7085 6.67851 12.7085 6.33333V3C12.7085 2.65482 12.9883 2.375 13.3335 2.375Z" fill="#64748B"/>
<path fill-rule="evenodd" clip-rule="evenodd" d="M6.66683 2.375C7.01201 2.375 7.29183 2.65482 7.29183 3V6.33333C7.29183 6.67851 7.01201 6.95833 6.66683 6.95833C6.32165 6.95833 6.04183 6.67851 6.04183 6.33333V3C6.04183 2.65482 6.32165 2.375 6.66683 2.375Z" fill="#64748B"/>
<path fill-rule="evenodd" clip-rule="evenodd" d="M2.7085 9.66667C2.7085 9.32149 2.98832 9.04167 3.3335 9.04167H16.6668C17.012 9.04167 17.2918 9.32149 17.2918 9.66667C17.2918 10.0118 17.012 10.2917 16.6668 10.2917H3.3335C2.98832 10.2917 2.7085 10.0118 2.7085 9.66667Z" fill="#64748B"/>
<path fill-rule="evenodd" clip-rule="evenodd" d="M8.3335 13C8.3335 12.5398 8.70659 12.1667 9.16683 12.1667H10.0002C10.4604 12.1667 10.8335 12.5398 10.8335 13C10.8335 13.4602 10.4604 13.8333 10.0002 13.8333H9.16683C8.70659 13.8333 8.3335 13.4602 8.3335 13Z" fill="#64748B"/>
<path fill-rule="evenodd" clip-rule="evenodd" d="M10.0002 12.375C10.3453 12.375 10.6252 12.6548 10.6252 13V15.5C10.6252 15.8452 10.3453 16.125 10.0002 16.125C9.65498 16.125 9.37516 15.8452 9.37516 15.5V13C9.37516 12.6548 9.65498 12.375 10.0002 12.375Z" fill="#64748B"/>
</svg>
