<svg width="16" height="16" viewBox="0 0 16 16" fill="none" xmlns="http://www.w3.org/2000/svg">
<path d="M7.66581 3.68154C7.66581 3.67285 7.66581 3.66128 7.66581 3.65259C7.66581 3.38051 7.54665 3.13447 7.35192 2.95791C7.15719 2.78134 6.89271 2.66846 6.59626 2.66846C6.29981 2.66846 6.03533 2.77845 5.84061 2.95791C5.64879 3.13737 5.52672 3.3834 5.52672 3.65259C5.52672 3.92178 5.52672 3.67285 5.52672 3.68154C5.87548 3.62365 6.23297 3.5947 6.59336 3.5947C6.95375 3.5947 7.31123 3.62365 7.66 3.68154H7.66581ZM9.76712 6.43712C9.29047 5.64981 8.51447 4.82777 7.28217 4.03467C8.55516 4.1765 9.70027 4.71488 10.5606 5.50798C11.5284 6.39949 12.1416 7.61518 12.1968 8.96113C11.6504 8.96982 11.0517 9.00455 10.4676 9.06534C10.4879 8.31566 10.3513 7.40388 9.76421 6.43712H9.76712ZM2.63778 5.51087C3.47773 4.73804 4.58215 4.20834 5.81736 4.04914C4.77687 4.73514 4.06772 5.52245 3.59979 6.33581C2.89064 7.57177 2.74532 8.86561 2.85867 9.97711C2.28321 9.82659 1.67577 9.60372 1.0015 9.2969C1.0015 9.25059 1.0015 9.20427 1.0015 9.16086C1.0015 7.73386 1.62927 6.44291 2.6436 5.51087H2.63778ZM6.55848 4.07519C8.00876 4.9175 8.88067 5.79743 9.38638 6.63394C9.9415 7.54861 10.0607 8.41118 10.0316 9.11454C10.0025 9.11744 9.97056 9.12323 9.9415 9.12612C9.14515 9.22743 8.40403 9.36926 7.88088 9.55162C6.55557 10.0089 5.48312 10.2463 4.40486 10.2116C4.04447 10.2 3.68408 10.1566 3.30916 10.0842C3.17256 9.00745 3.29172 7.73386 3.98634 6.52685C4.49205 5.64402 5.30874 4.79303 6.55848 4.08098V4.07519ZM8.03201 9.92501C8.52028 9.75713 9.22944 9.61819 9.99672 9.52267C10.8454 9.41557 11.7609 9.35768 12.534 9.36058C12.8014 9.58056 13.0659 9.78318 13.3187 9.97711C14.0075 10.5039 14.612 10.967 14.9724 11.5517C14.9899 11.5807 15.0015 11.6125 15.0015 11.6472C15.0015 11.7572 14.9085 11.8499 14.7864 11.8528C14.4754 11.8585 14.1993 11.8528 13.9436 11.8528C13.0775 11.8441 12.4933 11.8383 11.6504 12.1856C11.3976 12.2898 11.1447 12.4114 10.8919 12.5359C9.93569 13.0019 8.95333 13.4795 7.31414 13.2942C6.39572 13.19 5.66913 12.9845 5.07332 12.5561C4.48624 12.1335 4.03575 11.5054 3.66373 10.5502C3.90787 10.585 4.14619 10.6052 4.38742 10.611C5.53253 10.6486 6.65439 10.4026 8.03201 9.92501Z" fill="#1E293B"/>
</svg>
