<svg width="16" height="16" viewBox="0 0 16 16" fill="none" xmlns="http://www.w3.org/2000/svg">
<path d="M7.66584 3.68154C7.66584 3.67285 7.66584 3.66128 7.66584 3.65259C7.66584 3.38051 7.54668 3.13447 7.35195 2.95791C7.15722 2.78134 6.89274 2.66846 6.59629 2.66846C6.29984 2.66846 6.03536 2.77845 5.84064 2.95791C5.64882 3.13737 5.52675 3.3834 5.52675 3.65259C5.52675 3.92178 5.52675 3.67285 5.52675 3.68154C5.87551 3.62365 6.233 3.5947 6.59339 3.5947C6.95378 3.5947 7.31126 3.62365 7.66003 3.68154H7.66584ZM9.76715 6.43712C9.2905 5.64981 8.5145 4.82777 7.2822 4.03467C8.55519 4.1765 9.7003 4.71488 10.5606 5.50798C11.5284 6.39949 12.1417 7.61518 12.1969 8.96113C11.6505 8.96982 11.0518 9.00455 10.4676 9.06534C10.4879 8.31566 10.3513 7.40388 9.76424 6.43712H9.76715ZM2.63781 5.51087C3.47776 4.73804 4.58218 4.20834 5.81739 4.04914C4.7769 4.73514 4.06775 5.52245 3.59982 6.33581C2.89067 7.57177 2.74535 8.86561 2.8587 9.97711C2.28324 9.82659 1.6758 9.60372 1.00153 9.2969C1.00153 9.25059 1.00153 9.20427 1.00153 9.16086C1.00153 7.73386 1.6293 6.44291 2.64363 5.51087H2.63781ZM6.55851 4.07519C8.00879 4.9175 8.8807 5.79743 9.38641 6.63394C9.94153 7.54861 10.0607 8.41118 10.0316 9.11454C10.0026 9.11744 9.97059 9.12323 9.94153 9.12612C9.14518 9.22743 8.40406 9.36926 7.88091 9.55162C6.55561 10.0089 5.48315 10.2463 4.40489 10.2116C4.0445 10.2 3.68411 10.1566 3.30919 10.0842C3.17259 9.00745 3.29175 7.73386 3.98637 6.52685C4.49208 5.64402 5.30877 4.79303 6.55851 4.08098V4.07519ZM8.03204 9.92501C8.52031 9.75713 9.22947 9.61819 9.99675 9.52267C10.8454 9.41557 11.7609 9.35768 12.534 9.36058C12.8014 9.58056 13.0659 9.78318 13.3187 9.97711C14.0075 10.5039 14.6121 10.967 14.9725 11.5517C14.9899 11.5807 15.0015 11.6125 15.0015 11.6472C15.0015 11.7572 14.9085 11.8499 14.7865 11.8528C14.4755 11.8585 14.1994 11.8528 13.9436 11.8528C13.0775 11.8441 12.4933 11.8383 11.6505 12.1856C11.3976 12.2898 11.1448 12.4114 10.8919 12.5359C9.93572 13.0019 8.95336 13.4795 7.31417 13.2942C6.39575 13.19 5.66916 12.9845 5.07336 12.5561C4.48627 12.1335 4.03578 11.5054 3.66376 10.5502C3.9079 10.585 4.14622 10.6052 4.38745 10.611C5.53256 10.6486 6.65442 10.4026 8.03204 9.92501Z" fill="#A2A2A2"/>
</svg>
