<svg width="24" height="24" viewBox="0 0 24 24" fill="none" xmlns="http://www.w3.org/2000/svg">
<path d="M12.0662 13.137C12.3997 13.137 12.6702 12.8665 12.6702 12.533C12.6702 12.1994 12.3997 11.929 12.0662 11.929H6.8965C6.56295 11.929 6.29248 12.1994 6.29248 12.533C6.29248 12.8665 6.56295 13.137 6.8965 13.137H12.0662Z" fill="#292D32"/>
<path d="M21.3961 19.2907H20.5424V5.041C20.5424 4.19093 19.8511 3.5 19.0015 3.5H10.4178C9.56813 3.5 8.87686 4.19093 8.87686 5.041V8.12971H4.99909C4.14944 8.12971 3.45818 8.82064 3.45818 9.67071V19.2914H2.6045C2.27095 19.2914 2.00049 19.562 2.00049 19.8957C2.00049 20.2294 2.27095 20.5 2.6045 20.5H21.3961C21.7296 20.5 22.0001 20.2294 22.0001 19.8957C22.0001 19.562 21.7296 19.2907 21.3961 19.2907ZM10.0849 5.041C10.0849 4.85769 10.2339 4.70863 10.4171 4.70863H19.0008C19.184 4.70863 19.333 4.85769 19.333 5.041V19.2914H15.5063V9.67004C15.5063 8.81997 14.8157 8.12904 13.966 8.12904H10.0849V5.041ZM4.66688 9.67004C4.66688 9.48673 4.81587 9.33767 4.99909 9.33767H13.9667C14.1492 9.33767 14.2982 9.48673 14.2982 9.67004V19.2907H11.8245V16.6505C11.8245 15.8851 11.2017 15.2619 10.4366 15.2619H8.52586C7.76011 15.2619 7.1373 15.8851 7.1373 16.6505V19.2907H4.66688V9.67004ZM10.6164 19.2907H8.346V16.6505C8.346 16.5511 8.42654 16.4706 8.52654 16.4706H10.4372C10.5359 16.4706 10.6171 16.5511 10.6171 16.6505V19.2907H10.6164Z" fill="#292D32"/>
</svg>
