<svg width="20" height="21" viewBox="0 0 20 21" fill="none" xmlns="http://www.w3.org/2000/svg">
<path d="M10.0552 11.4475C10.3331 11.4475 10.5585 11.2221 10.5585 10.9442C10.5585 10.6662 10.3331 10.4408 10.0552 10.4408H5.74709C5.46913 10.4408 5.24374 10.6662 5.24374 10.9442C5.24374 11.2221 5.46913 11.4475 5.74709 11.4475H10.0552Z" fill="#64748B"/>
<path d="M17.8301 16.5756H17.1187V4.70084C17.1187 3.99245 16.5426 3.41667 15.8346 3.41667H8.68149C7.97345 3.41667 7.3974 3.99245 7.3974 4.70084V7.27476H4.16592C3.45788 7.27476 2.88183 7.85054 2.88183 8.55893V16.5761H2.17043C1.89247 16.5761 1.66708 16.8016 1.66708 17.0797C1.66708 17.3578 1.89247 17.5833 2.17043 17.5833H17.8301C18.108 17.5833 18.3334 17.3578 18.3334 17.0797C18.3334 16.8016 18.108 16.5756 17.8301 16.5756ZM8.40409 4.70084C8.40409 4.54808 8.52825 4.42386 8.68093 4.42386H15.834C15.9867 4.42386 16.1109 4.54808 16.1109 4.70084V16.5761H12.9219V8.55837C12.9219 7.84998 12.3464 7.2742 11.6384 7.2742H8.40409V4.70084ZM3.88908 8.55837C3.88908 8.40561 4.01323 8.28139 4.16592 8.28139H11.6389C11.791 8.28139 11.9152 8.40561 11.9152 8.55837V16.5756H9.85373V14.3754C9.85373 13.7376 9.33472 13.2183 8.69715 13.2183H7.1049C6.46677 13.2183 5.94776 13.7376 5.94776 14.3754V16.5756H3.88908V8.55837ZM8.84703 16.5756H6.95501V14.3754C6.95501 14.2926 7.02213 14.2255 7.10546 14.2255H8.69771C8.77992 14.2255 8.84759 14.2926 8.84759 14.3754V16.5756H8.84703Z" fill="#64748B"/>
</svg>
