<svg width="20" height="20" viewBox="0 0 20 20" fill="none" xmlns="http://www.w3.org/2000/svg">
<path d="M10.0552 10.9024C10.3331 10.9024 10.5585 10.6877 10.5585 10.423C10.5585 10.1583 10.3331 9.94362 10.0552 9.94362H5.74709C5.46913 9.94362 5.24374 10.1583 5.24374 10.423C5.24374 10.6877 5.46913 10.9024 5.74709 10.9024H10.0552Z" fill="#00CE7C"/>
<path d="M17.8301 15.7863H17.1187V4.47699C17.1187 3.80233 16.5426 3.25397 15.8346 3.25397H8.68149C7.97345 3.25397 7.3974 3.80233 7.3974 4.47699V6.92834H4.16592C3.45788 6.92834 2.88183 7.4767 2.88183 8.15136V15.7868H2.17043C1.89247 15.7868 1.66708 16.0015 1.66708 16.2664C1.66708 16.5312 1.89247 16.746 2.17043 16.746H17.8301C18.108 16.746 18.3334 16.5312 18.3334 16.2664C18.3334 16.0015 18.108 15.7863 17.8301 15.7863ZM8.40409 4.47699C8.40409 4.3315 8.52825 4.2132 8.68093 4.2132H15.834C15.9867 4.2132 16.1109 4.3315 16.1109 4.47699V15.7868H12.9219V8.15083C12.9219 7.47617 12.3464 6.92781 11.6384 6.92781H8.40409V4.47699ZM3.88908 8.15083C3.88908 8.00534 4.01323 7.88704 4.16592 7.88704H11.6389C11.791 7.88704 11.9152 8.00534 11.9152 8.15083V15.7863H9.85373V13.6909C9.85373 13.0834 9.33472 12.5889 8.69715 12.5889H7.1049C6.46677 12.5889 5.94776 13.0834 5.94776 13.6909V15.7863H3.88908V8.15083ZM8.84703 15.7863H6.95501V13.6909C6.95501 13.612 7.02213 13.5481 7.10546 13.5481H8.69771C8.77992 13.5481 8.84759 13.612 8.84759 13.6909L8.84703 15.7863Z" fill="#00CE7C"/>
</svg>
