<svg width="16" height="18" viewBox="0 0 16 18" fill="none" xmlns="http://www.w3.org/2000/svg">
<path fill-rule="evenodd" clip-rule="evenodd" d="M3.00004 3.79167C2.42474 3.79167 1.95837 4.25804 1.95837 4.83333V14.8333C1.95837 15.4086 2.42474 15.875 3.00004 15.875H13C13.5753 15.875 14.0417 15.4086 14.0417 14.8333V4.83333C14.0417 4.25804 13.5753 3.79167 13 3.79167H3.00004ZM0.708374 4.83333C0.708374 3.56768 1.73439 2.54167 3.00004 2.54167H13C14.2657 2.54167 15.2917 3.56768 15.2917 4.83333V14.8333C15.2917 16.099 14.2657 17.125 13 17.125H3.00004C1.73439 17.125 0.708374 16.099 0.708374 14.8333V4.83333Z" fill="#00CE7C"/>
<path fill-rule="evenodd" clip-rule="evenodd" d="M11.3334 0.875C11.6786 0.875 11.9584 1.15482 11.9584 1.5V4.83333C11.9584 5.17851 11.6786 5.45833 11.3334 5.45833C10.9882 5.45833 10.7084 5.17851 10.7084 4.83333V1.5C10.7084 1.15482 10.9882 0.875 11.3334 0.875Z" fill="#00CE7C"/>
<path fill-rule="evenodd" clip-rule="evenodd" d="M4.66671 0.875C5.01189 0.875 5.29171 1.15482 5.29171 1.5V4.83333C5.29171 5.17851 5.01189 5.45833 4.66671 5.45833C4.32153 5.45833 4.04171 5.17851 4.04171 4.83333V1.5C4.04171 1.15482 4.32153 0.875 4.66671 0.875Z" fill="#00CE7C"/>
<path fill-rule="evenodd" clip-rule="evenodd" d="M0.708374 8.16667C0.708374 7.82149 0.988196 7.54167 1.33337 7.54167H14.6667C15.0119 7.54167 15.2917 7.82149 15.2917 8.16667C15.2917 8.51184 15.0119 8.79167 14.6667 8.79167H1.33337C0.988196 8.79167 0.708374 8.51184 0.708374 8.16667Z" fill="#00CE7C"/>
<path fill-rule="evenodd" clip-rule="evenodd" d="M6.33337 11.5C6.33337 11.0398 6.70647 10.6667 7.16671 10.6667H8.00004C8.46028 10.6667 8.83337 11.0398 8.83337 11.5C8.83337 11.9602 8.46028 12.3333 8.00004 12.3333H7.16671C6.70647 12.3333 6.33337 11.9602 6.33337 11.5Z" fill="#00CE7C"/>
<path fill-rule="evenodd" clip-rule="evenodd" d="M8.00004 10.875C8.34522 10.875 8.62504 11.1548 8.62504 11.5V14C8.62504 14.3452 8.34522 14.625 8.00004 14.625C7.65486 14.625 7.37504 14.3452 7.37504 14V11.5C7.37504 11.1548 7.65486 10.875 8.00004 10.875Z" fill="#00CE7C"/>
</svg>
