<svg width="20" height="16" viewBox="0 0 20 16" fill="none" xmlns="http://www.w3.org/2000/svg">
<path fill-rule="evenodd" clip-rule="evenodd" d="M2.78774 2.18591C2.28152 2.65597 1.94584 3.416 1.94584 4.60007V8.89175C1.94584 9.74747 2.12121 10.3793 2.40366 10.837C2.68219 11.2884 3.08636 11.6058 3.61341 11.803C3.77449 11.8615 3.94089 11.9092 4.10729 11.9358C4.11803 11.9375 4.12872 11.9396 4.13933 11.942C4.42763 12.0068 4.74658 12.0376 5.09167 12.0376H12.4167C13.4368 12.0376 14.2074 11.7824 14.7206 11.3059C15.2268 10.8359 15.5625 10.0758 15.5625 8.89175V4.60007C15.5625 4.24943 15.5257 3.94083 15.4713 3.62903C15.3146 2.84406 14.9572 2.32073 14.4695 1.98379C13.9694 1.63822 13.2817 1.45426 12.4167 1.45426H5.09167C4.07151 1.45426 3.30094 1.70937 2.78774 2.18591ZM2.07894 1.42258C2.84907 0.707473 3.91183 0.412598 5.09167 0.412598H12.4167C13.4184 0.412598 14.3347 0.624476 15.0617 1.12682C15.8 1.63699 16.2921 2.41195 16.4942 3.43219L16.4965 3.44362C16.5583 3.79651 16.6042 4.16955 16.6042 4.60007V8.89175C16.6042 10.2744 16.2065 11.3476 15.4294 12.0692C14.6593 12.7843 13.5965 13.0792 12.4167 13.0792H5.09167C4.69236 13.0792 4.30004 13.0444 3.92638 12.9617C3.683 12.9215 3.45582 12.8541 3.25535 12.7812L3.25117 12.7797C2.52925 12.5102 1.92996 12.0529 1.51719 11.384C1.10797 10.7209 0.904175 9.88603 0.904175 8.89175V4.60007C0.904175 3.21746 1.30182 2.14418 2.07894 1.42258Z" fill="#00CE7C"/>
<path fill-rule="evenodd" clip-rule="evenodd" d="M15.6169 3.16429C15.7414 3.0405 15.9198 2.98771 16.0916 3.02387C16.9784 3.21057 17.7477 3.62723 18.2902 4.32976C18.8305 5.0294 19.1051 5.95961 19.1051 7.10017V11.3919C19.1051 12.7745 18.7074 13.8477 17.9303 14.5693C17.1602 15.2844 16.0974 15.5793 14.9176 15.5793H7.59259C6.93225 15.5793 6.30866 15.4906 5.75163 15.2796C4.58259 14.8467 3.79004 13.936 3.51507 12.5517C3.48073 12.3788 3.53614 12.2003 3.66231 12.0773C3.78849 11.9543 3.96832 11.9034 4.14025 11.9421C4.42854 12.0069 4.74749 12.0377 5.09259 12.0377H12.4176C13.4378 12.0377 14.2083 11.7825 14.7215 11.306C15.2277 10.836 15.5634 10.0759 15.5634 8.89186V4.60017C15.5634 4.23836 15.5327 3.92392 15.474 3.63819C15.4388 3.46624 15.4925 3.28809 15.6169 3.16429ZM16.5978 4.27976C16.6027 4.38432 16.6051 4.49104 16.6051 4.60017V8.89186C16.6051 10.2745 16.2074 11.3477 15.4303 12.0693C14.6602 12.7845 13.5974 13.0793 12.4176 13.0793H5.09259C4.98265 13.0793 4.87324 13.0767 4.7646 13.0711C5.04786 13.6879 5.51054 14.0799 6.11489 14.3034L6.11898 14.3049C6.52809 14.4601 7.02041 14.5377 7.59259 14.5377H14.9176C15.9378 14.5377 16.7083 14.2825 17.2215 13.806C17.7277 13.336 18.0634 12.5759 18.0634 11.3919V7.10017C18.0634 6.12407 17.8297 5.43762 17.4658 4.96644C17.2413 4.67579 16.9517 4.44676 16.5978 4.27976Z" fill="#00CE7C"/>
<path fill-rule="evenodd" clip-rule="evenodd" d="M8.74872 5.0708C7.82134 5.0708 7.06954 5.8226 7.06954 6.74998C7.06954 7.67736 7.82134 8.42916 8.74872 8.42916C9.6761 8.42916 10.4279 7.67736 10.4279 6.74998C10.4279 5.8226 9.6761 5.0708 8.74872 5.0708ZM6.02787 6.74998C6.02787 5.24731 7.24604 4.02913 8.74872 4.02913C10.2514 4.02913 11.4696 5.24731 11.4696 6.74998C11.4696 8.25265 10.2514 9.47083 8.74872 9.47083C7.24604 9.47083 6.02787 8.25265 6.02787 6.74998Z" fill="#00CE7C"/>
<path fill-rule="evenodd" clip-rule="evenodd" d="M3.98335 4.3959C4.271 4.3959 4.50418 4.62909 4.50418 4.91674V8.58343C4.50418 8.87107 4.271 9.10426 3.98335 9.10426C3.6957 9.10426 3.46251 8.87107 3.46251 8.58343V4.91674C3.46251 4.62909 3.6957 4.3959 3.98335 4.3959Z" fill="#00CE7C"/>
<path fill-rule="evenodd" clip-rule="evenodd" d="M13.5181 4.39616C13.8058 4.39616 14.0389 4.62934 14.0389 4.91699V8.58368C14.0389 8.87133 13.8058 9.10451 13.5181 9.10451C13.2305 9.10451 12.9973 8.87133 12.9973 8.58368V4.91699C12.9973 4.62934 13.2305 4.39616 13.5181 4.39616Z" fill="#00CE7C"/>
</svg>
