<svg width="24" height="24" viewBox="0 0 24 24" fill="none" xmlns="http://www.w3.org/2000/svg">
<path fill-rule="evenodd" clip-rule="evenodd" d="M2.82233 10.4421C2.29581 10.1455 2 9.6262 2 9.08324C2 8.53932 2.29581 8.02005 2.82233 7.7244L10.5563 3.37027C11.4344 2.87658 12.5656 2.87658 13.4437 3.37027L21.1777 7.7244C21.7042 8.02005 22 8.53932 22 9.08324C22 9.6262 21.7042 10.1455 21.1777 10.4421L13.4437 14.7953C12.5656 15.2899 11.4344 15.2899 10.5563 14.7953L2.82233 10.4421ZM3.49675 9.19789L11.2307 13.5511C11.6986 13.8145 12.3014 13.8145 12.7693 13.5511L20.5033 9.19789C20.5545 9.16947 20.6047 9.13535 20.6047 9.08324C20.6047 9.03017 20.5545 8.99701 20.5033 8.96763L12.7693 4.61444C12.3014 4.35101 11.6986 4.35101 11.2307 4.61444L3.49675 8.96763C3.44558 8.99701 3.39535 9.03017 3.39535 9.08324C3.39535 9.13535 3.44558 9.16947 3.49675 9.19789Z" fill="#292D32"/>
<path fill-rule="evenodd" clip-rule="evenodd" d="M17.8141 11.2891C17.8141 10.8968 18.1266 10.5784 18.5117 10.5784C18.8969 10.5784 19.2094 10.8968 19.2094 11.2891V15.5532C19.2094 17.5156 17.6475 19.1066 15.721 19.1066H8.27915C6.35264 19.1066 4.79077 17.5156 4.79077 15.5532V11.2891C4.79077 10.8968 5.10333 10.5784 5.48845 10.5784C5.87356 10.5784 6.18612 10.8968 6.18612 11.2891V15.5532C6.18612 16.731 7.12287 17.6852 8.27915 17.6852H15.721C16.8773 17.6852 17.8141 16.731 17.8141 15.5532V11.2891Z" fill="#292D32"/>
<path fill-rule="evenodd" clip-rule="evenodd" d="M11.5069 9.89626C11.2344 9.61957 11.2344 9.16852 11.5069 8.89182C11.7785 8.61418 12.2213 8.61418 12.493 8.89182L15.7488 12.2084C15.8799 12.341 15.9534 12.522 15.9534 12.7106V20.2912C15.9534 20.6835 15.6409 21.0019 15.2558 21.0019C14.8706 21.0019 14.5581 20.6835 14.5581 20.2912V13.0053L11.5069 9.89626Z" fill="#292D32"/>
</svg>
