<svg width="24" height="24" viewBox="0 0 24 24" fill="none" xmlns="http://www.w3.org/2000/svg">
<path fill-rule="evenodd" clip-rule="evenodd" d="M3.58513 3.52658C4.09358 3.04824 4.79727 2.91659 5.52508 2.91659H8.89175C9.61956 2.91659 10.3232 3.04824 10.8317 3.52658C11.3517 4.01573 11.5001 4.70673 11.5001 5.41659V18.5833C11.5001 19.2931 11.3517 19.9841 10.8317 20.4733C10.3232 20.9516 9.61956 21.0833 8.89175 21.0833H5.52508C4.79727 21.0833 4.09358 20.9516 3.58513 20.4733C3.06518 19.9841 2.91675 19.2931 2.91675 18.5833V5.41659C2.91675 4.70673 3.06518 4.01573 3.58513 3.52658ZM4.61294 4.6191C4.53498 4.69244 4.41675 4.87645 4.41675 5.41659V18.5833C4.41675 19.1234 4.53498 19.3074 4.61294 19.3807C4.70241 19.4649 4.9279 19.5833 5.52508 19.5833H8.89175C9.48893 19.5833 9.71442 19.4649 9.80389 19.3807C9.88185 19.3074 10.0001 19.1234 10.0001 18.5833V5.41659C10.0001 4.87645 9.88185 4.69244 9.80389 4.6191C9.71442 4.53493 9.48893 4.41659 8.89175 4.41659H5.52508C4.9279 4.41659 4.70241 4.53493 4.61294 4.6191Z" fill="#292D32"/>
<path fill-rule="evenodd" clip-rule="evenodd" d="M13.1685 3.52658C13.6769 3.04824 14.3806 2.91659 15.1084 2.91659H18.4751C19.2029 2.91659 19.9066 3.04824 20.415 3.52658C20.935 4.01573 21.0834 4.70673 21.0834 5.41659V11.0833C21.0834 11.7931 20.935 12.4841 20.415 12.9733C19.9066 13.4516 19.2029 13.5833 18.4751 13.5833H15.1084C14.3806 13.5833 13.6769 13.4516 13.1685 12.9733C12.6485 12.4841 12.5001 11.7931 12.5001 11.0833V5.41659C12.5001 4.70673 12.6485 4.01573 13.1685 3.52658ZM14.1963 4.6191C14.1183 4.69244 14.0001 4.87645 14.0001 5.41659V11.0833C14.0001 11.6234 14.1183 11.8074 14.1963 11.8807C14.2857 11.9649 14.5112 12.0833 15.1084 12.0833H18.4751C19.0723 12.0833 19.2978 11.9649 19.3872 11.8807C19.4652 11.8074 19.5834 11.6234 19.5834 11.0833V5.41659C19.5834 4.87645 19.4652 4.69244 19.3872 4.6191C19.2978 4.53493 19.0723 4.41659 18.4751 4.41659H15.1084C14.5112 4.41659 14.2857 4.53493 14.1963 4.6191Z" fill="#292D32"/>
<path fill-rule="evenodd" clip-rule="evenodd" d="M13.1685 15.1932C13.6769 14.7149 14.3806 14.5833 15.1084 14.5833H18.4751C19.2029 14.5833 19.9066 14.7149 20.415 15.1932C20.935 15.6824 21.0834 16.3734 21.0834 17.0833V18.5833C21.0834 19.2931 20.935 19.9841 20.415 20.4733C19.9066 20.9516 19.2029 21.0833 18.4751 21.0833H15.1084C14.3806 21.0833 13.6769 20.9516 13.1685 20.4733C12.6485 19.9841 12.5001 19.2931 12.5001 18.5833V17.0833C12.5001 16.3734 12.6485 15.6824 13.1685 15.1932ZM14.1963 16.2858C14.1183 16.3591 14.0001 16.5431 14.0001 17.0833V18.5833C14.0001 19.1234 14.1183 19.3074 14.1963 19.3807C14.2857 19.4649 14.5112 19.5833 15.1084 19.5833H18.4751C19.0723 19.5833 19.2978 19.4649 19.3872 19.3807C19.4652 19.3074 19.5834 19.1234 19.5834 18.5833V17.0833C19.5834 16.5431 19.4652 16.3591 19.3872 16.2858C19.2978 16.2016 19.0723 16.0833 18.4751 16.0833H15.1084C14.5112 16.0833 14.2857 16.2016 14.1963 16.2858Z" fill="#292D32"/>
</svg>
