<svg width="12" height="12" viewBox="0 0 12 12" fill="none" xmlns="http://www.w3.org/2000/svg">
<path fill-rule="evenodd" clip-rule="evenodd" d="M3 2.875C2.65482 2.875 2.375 3.15482 2.375 3.5V9.5C2.375 9.84518 2.65482 10.125 3 10.125H9C9.34518 10.125 9.625 9.84518 9.625 9.5V3.5C9.625 3.15482 9.34518 2.875 9 2.875H3ZM1.625 3.5C1.625 2.74061 2.24061 2.125 3 2.125H9C9.75939 2.125 10.375 2.74061 10.375 3.5V9.5C10.375 10.2594 9.75939 10.875 9 10.875H3C2.24061 10.875 1.625 10.2594 1.625 9.5V3.5Z" fill="#A2A2A2"/>
<path fill-rule="evenodd" clip-rule="evenodd" d="M8 1.125C8.20711 1.125 8.375 1.29289 8.375 1.5V3.5C8.375 3.70711 8.20711 3.875 8 3.875C7.79289 3.875 7.625 3.70711 7.625 3.5V1.5C7.625 1.29289 7.79289 1.125 8 1.125Z" fill="#A2A2A2"/>
<path fill-rule="evenodd" clip-rule="evenodd" d="M4 1.125C4.20711 1.125 4.375 1.29289 4.375 1.5V3.5C4.375 3.70711 4.20711 3.875 4 3.875C3.79289 3.875 3.625 3.70711 3.625 3.5V1.5C3.625 1.29289 3.79289 1.125 4 1.125Z" fill="#A2A2A2"/>
<path fill-rule="evenodd" clip-rule="evenodd" d="M1.625 5.5C1.625 5.29289 1.79289 5.125 2 5.125H10C10.2071 5.125 10.375 5.29289 10.375 5.5C10.375 5.70711 10.2071 5.875 10 5.875H2C1.79289 5.875 1.625 5.70711 1.625 5.5Z" fill="#A2A2A2"/>
<path fill-rule="evenodd" clip-rule="evenodd" d="M5 7.5C5 7.22386 5.22386 7 5.5 7H6C6.27614 7 6.5 7.22386 6.5 7.5C6.5 7.77614 6.27614 8 6 8H5.5C5.22386 8 5 7.77614 5 7.5Z" fill="#A2A2A2"/>
<path fill-rule="evenodd" clip-rule="evenodd" d="M6 7.125C6.20711 7.125 6.375 7.29289 6.375 7.5V9C6.375 9.20711 6.20711 9.375 6 9.375C5.79289 9.375 5.625 9.20711 5.625 9V7.5C5.625 7.29289 5.79289 7.125 6 7.125Z" fill="#A2A2A2"/>
</svg>
