<svg width="10" height="10" viewBox="0 0 10 10" fill="none" xmlns="http://www.w3.org/2000/svg">
<path fill-rule="evenodd" clip-rule="evenodd" d="M2 1.875C1.65482 1.875 1.375 2.15482 1.375 2.5V8.5C1.375 8.84518 1.65482 9.125 2 9.125H8C8.34518 9.125 8.625 8.84518 8.625 8.5V2.5C8.625 2.15482 8.34518 1.875 8 1.875H2ZM0.625 2.5C0.625 1.74061 1.24061 1.125 2 1.125H8C8.75939 1.125 9.375 1.74061 9.375 2.5V8.5C9.375 9.25939 8.75939 9.875 8 9.875H2C1.24061 9.875 0.625 9.25939 0.625 8.5V2.5Z" fill="#FF5F14"/>
<path fill-rule="evenodd" clip-rule="evenodd" d="M7 0.125C7.20711 0.125 7.375 0.292893 7.375 0.5V2.5C7.375 2.70711 7.20711 2.875 7 2.875C6.79289 2.875 6.625 2.70711 6.625 2.5V0.5C6.625 0.292893 6.79289 0.125 7 0.125Z" fill="#FF5F14"/>
<path fill-rule="evenodd" clip-rule="evenodd" d="M3 0.125C3.20711 0.125 3.375 0.292893 3.375 0.5V2.5C3.375 2.70711 3.20711 2.875 3 2.875C2.79289 2.875 2.625 2.70711 2.625 2.5V0.5C2.625 0.292893 2.79289 0.125 3 0.125Z" fill="#FF5F14"/>
<path fill-rule="evenodd" clip-rule="evenodd" d="M0.625 4.5C0.625 4.29289 0.792893 4.125 1 4.125H9C9.20711 4.125 9.375 4.29289 9.375 4.5C9.375 4.70711 9.20711 4.875 9 4.875H1C0.792893 4.875 0.625 4.70711 0.625 4.5Z" fill="#FF5F14"/>
<path fill-rule="evenodd" clip-rule="evenodd" d="M4 6.5C4 6.22386 4.22386 6 4.5 6H5C5.27614 6 5.5 6.22386 5.5 6.5C5.5 6.77614 5.27614 7 5 7H4.5C4.22386 7 4 6.77614 4 6.5Z" fill="#FF5F14"/>
<path fill-rule="evenodd" clip-rule="evenodd" d="M5 6.125C5.20711 6.125 5.375 6.29289 5.375 6.5V8C5.375 8.20711 5.20711 8.375 5 8.375C4.79289 8.375 4.625 8.20711 4.625 8V6.5C4.625 6.29289 4.79289 6.125 5 6.125Z" fill="#FF5F14"/>
</svg>
