<svg width="12" height="11" viewBox="0 0 12 11" fill="none" xmlns="http://www.w3.org/2000/svg">
<path fill-rule="evenodd" clip-rule="evenodd" d="M0.5 1.83334C0.5 1.32708 0.91041 0.916672 1.41667 0.916672H10.5833C11.0896 0.916672 11.5 1.32708 11.5 1.83334C11.5 2.3396 11.0896 2.75001 10.5833 2.75001H1.41667C0.91041 2.75001 0.5 2.3396 0.5 1.83334ZM2.33333 5.50001C2.33333 4.99373 2.74374 4.58334 3.25 4.58334H8.75C9.25628 4.58334 9.66667 4.99373 9.66667 5.50001C9.66667 6.00628 9.25628 6.41667 8.75 6.41667H3.25C2.74374 6.41667 2.33333 6.00628 2.33333 5.50001ZM4.16667 9.16667C4.16667 8.6604 4.57706 8.25001 5.08333 8.25001H6.91667C7.42294 8.25001 7.83333 8.6604 7.83333 9.16667C7.83333 9.67295 7.42294 10.0833 6.91667 10.0833H5.08333C4.57706 10.0833 4.16667 9.67295 4.16667 9.16667Z" fill="#0F172A"/>
</svg>
