<svg width="20" height="21" viewBox="0 0 20 21" fill="none" xmlns="http://www.w3.org/2000/svg">
<path d="M5.06092 11.155L6.91309 9.30283C7.6216 9.8335 8.50484 10.076 9.385 9.98167C10.2652 9.88728 11.0769 9.46297 11.6568 8.79415C12.2367 8.12533 12.5417 7.26166 12.5104 6.37701C12.4791 5.49235 12.1138 4.6524 11.4881 4.02624C10.8623 3.40008 10.0227 3.03421 9.13802 3.00228C8.25339 2.97035 7.3895 3.27473 6.72027 3.85415C6.05104 4.43356 5.62616 5.24499 5.53115 6.12509C5.43615 7.00518 5.67808 7.88859 6.20824 8.59748L4.35557 10.4501L3.65022 9.7443C3.55662 9.65076 3.42969 9.59824 3.29737 9.59829C3.16504 9.59834 3.03816 9.65095 2.94462 9.74455C2.85109 9.83815 2.79856 9.96508 2.79861 10.0974C2.79866 10.2297 2.85127 10.3566 2.94487 10.4501L3.65022 11.156L2.66303 12.1427C2.61539 12.1887 2.57738 12.2437 2.55124 12.3046C2.5251 12.3655 2.51134 12.4309 2.51076 12.4972C2.51019 12.5634 2.52281 12.6291 2.54789 12.6904C2.57297 12.7517 2.61001 12.8074 2.65685 12.8542C2.70368 12.9011 2.75938 12.9381 2.82068 12.9632C2.88199 12.9883 2.94768 13.0009 3.01391 13.0003C3.08014 12.9997 3.1456 12.986 3.20646 12.9598C3.26732 12.9337 3.32236 12.8957 3.36838 12.848L4.35557 11.8608L5.06092 12.5662C5.10694 12.6138 5.16198 12.6518 5.22284 12.678C5.2837 12.7041 5.34916 12.7179 5.41539 12.7185C5.48163 12.719 5.54731 12.7064 5.60862 12.6813C5.66992 12.6563 5.72562 12.6192 5.77245 12.5724C5.81929 12.5255 5.85633 12.4698 5.88141 12.4085C5.90649 12.3472 5.91911 12.2816 5.91854 12.2153C5.91796 12.1491 5.9042 12.0836 5.87806 12.0228C5.85192 11.9619 5.81391 11.9069 5.76627 11.8608L5.06092 11.155ZM9.0017 4.0152C9.495 4.0152 9.97722 4.16148 10.3874 4.43555C10.7975 4.70961 11.1172 5.09914 11.306 5.55489C11.4948 6.01064 11.5442 6.51213 11.4479 6.99596C11.3517 7.47978 11.1142 7.92419 10.7653 8.27301C10.4165 8.62182 9.97211 8.85937 9.48829 8.95561C9.00447 9.05185 8.50297 9.00245 8.04723 8.81368C7.59148 8.6249 7.20194 8.30522 6.92788 7.89505C6.65382 7.48489 6.50754 7.00267 6.50754 6.50937C6.50754 5.84787 6.77031 5.21347 7.23806 4.74573C7.70581 4.27798 8.34021 4.0152 9.0017 4.0152Z" fill="#64748B"/>
<path d="M16.9831 8.00587H14.4889C14.3566 8.00587 14.2297 8.05842 14.1362 8.15197C14.0426 8.24552 13.9901 8.3724 13.9901 8.5047C13.9901 8.637 14.0426 8.76388 14.1362 8.85743C14.2297 8.95098 14.3566 9.00353 14.4889 9.00353H15.7789L13.0852 11.6972C12.3765 11.1669 11.4932 10.9247 10.6131 11.0194C9.73295 11.1141 8.9214 11.5387 8.34178 12.2078C7.76215 12.8768 7.45749 13.7406 7.48912 14.6252C7.52075 15.5098 7.88632 16.3496 8.51224 16.9755C9.13817 17.6015 9.97797 17.967 10.8626 17.9987C11.7472 18.0303 12.611 17.7256 13.28 17.146C13.9491 16.5664 14.3737 15.7548 14.4684 14.8747C14.5631 13.9946 14.3209 13.1113 13.7906 12.4026L16.4843 9.70888V10.9989C16.4843 11.1312 16.5368 11.258 16.6304 11.3516C16.7239 11.4451 16.8508 11.4977 16.9831 11.4977C17.1154 11.4977 17.2423 11.4451 17.3358 11.3516C17.4294 11.258 17.4819 11.1312 17.4819 10.9989V8.5047C17.4819 8.3724 17.4294 8.24552 17.3358 8.15197C17.2423 8.05842 17.1154 8.00587 16.9831 8.00587ZM10.9971 16.9849C10.5038 16.9849 10.0216 16.8386 9.61141 16.5645C9.20125 16.2905 8.88156 15.9009 8.69279 15.4452C8.50401 14.9894 8.45462 14.4879 8.55086 14.0041C8.64709 13.5203 8.88464 13.0759 9.23345 12.7271C9.58227 12.3782 10.0267 12.1407 10.5105 12.0445C10.9943 11.9482 11.4958 11.9976 11.9516 12.1864C12.4073 12.3752 12.7969 12.6948 13.0709 13.105C13.345 13.5152 13.4913 13.9974 13.4913 14.4907C13.4913 14.8182 13.4267 15.1426 13.3014 15.4452C13.1761 15.7478 12.9923 16.0227 12.7607 16.2543C12.5291 16.4859 12.2542 16.6697 11.9516 16.795C11.649 16.9203 11.3246 16.9849 10.9971 16.9849Z" fill="#64748B"/>
</svg>
