<svg width="20" height="19" viewBox="0 0 20 19" fill="none" xmlns="http://www.w3.org/2000/svg">
<path d="M5.06092 10.0926L6.91309 8.41685C7.6216 8.89698 8.50484 9.11638 9.385 9.03104C10.2652 8.94564 11.0769 8.56174 11.6568 7.95661C12.2367 7.35149 12.5417 6.57007 12.5104 5.76968C12.4791 4.96927 12.1138 4.20932 11.4881 3.64279C10.8623 3.07626 10.0227 2.74524 9.13802 2.71635C8.25339 2.68746 7.3895 2.96285 6.72027 3.48709C6.05104 4.01132 5.62616 4.74547 5.53115 5.54175C5.43615 6.33802 5.67808 7.1373 6.20824 7.77867L4.35557 9.45485L3.65022 8.81627C3.55662 8.73164 3.42969 8.68412 3.29737 8.68417C3.16504 8.68421 3.03816 8.73181 2.94462 8.8165C2.85109 8.90118 2.79856 9.01603 2.79861 9.13574C2.79866 9.25544 2.85127 9.37026 2.94487 9.45485L3.65022 10.0935L2.66303 10.9863C2.61539 11.0279 2.57738 11.0776 2.55124 11.1327C2.5251 11.1878 2.51134 11.247 2.51076 11.307C2.51019 11.3669 2.52281 11.4263 2.54789 11.4818C2.57297 11.5373 2.61001 11.5876 2.65685 11.63C2.70368 11.6724 2.75938 11.7059 2.82068 11.7286C2.88199 11.7513 2.94768 11.7627 3.01391 11.7622C3.08014 11.7616 3.1456 11.7492 3.20646 11.7255C3.26732 11.7019 3.32236 11.6675 3.36838 11.6244L4.35557 10.7312L5.06092 11.3694C5.10694 11.4125 5.16198 11.4469 5.22284 11.4706C5.2837 11.4942 5.34916 11.5067 5.41539 11.5072C5.48163 11.5077 5.54731 11.4963 5.60862 11.4736C5.66992 11.4509 5.72562 11.4174 5.77245 11.375C5.81929 11.3326 5.85633 11.2822 5.88141 11.2267C5.90649 11.1713 5.91911 11.1119 5.91854 11.0519C5.91796 10.992 5.9042 10.9328 5.87806 10.8778C5.85192 10.8227 5.81391 10.7729 5.76627 10.7312L5.06092 10.0926ZM9.0017 3.6328C9.495 3.6328 9.97722 3.76515 10.3874 4.01312C10.7975 4.26108 11.1172 4.61351 11.306 5.02585C11.4948 5.4382 11.5442 5.89193 11.4479 6.32968C11.3517 6.76742 11.1142 7.16951 10.7653 7.48511C10.4165 7.8007 9.97211 8.01562 9.48829 8.1027C9.00447 8.18977 8.50297 8.14507 8.04723 7.97428C7.59148 7.80348 7.20194 7.51425 6.92788 7.14314C6.65382 6.77204 6.50754 6.33575 6.50754 5.88943C6.50754 5.29093 6.77031 4.71695 7.23806 4.29376C7.70581 3.87055 8.34021 3.6328 9.0017 3.6328Z" fill="#00CE7C"/>
<path d="M16.9831 7.24341H14.4889C14.3566 7.24341 14.2297 7.29095 14.1362 7.37559C14.0426 7.46023 13.9901 7.57503 13.9901 7.69473C13.9901 7.81443 14.0426 7.92923 14.1362 8.01387C14.2297 8.09851 14.3566 8.14605 14.4889 8.14605H15.7789L13.0852 10.5832C12.3765 10.1034 11.4932 9.88425 10.6131 9.96994C9.73295 10.0556 8.92139 10.4398 8.34177 11.0452C7.76214 11.6504 7.45749 12.432 7.48912 13.2323C7.52075 14.0327 7.88632 14.7925 8.51224 15.3588C9.13817 15.9252 9.97797 16.2559 10.8626 16.2845C11.7472 16.3131 12.611 16.0374 13.28 15.513C13.9491 14.9886 14.3737 14.2543 14.4684 13.4581C14.5631 12.6618 14.3209 11.8626 13.7906 11.2214L16.4843 8.78423V9.95139C16.4843 10.0711 16.5368 10.1858 16.6304 10.2705C16.7239 10.3551 16.8508 10.4027 16.9831 10.4027C17.1154 10.4027 17.2423 10.3551 17.3358 10.2705C17.4294 10.1858 17.4819 10.0711 17.4819 9.95139V7.69473C17.4819 7.57503 17.4294 7.46023 17.3358 7.37559C17.2423 7.29095 17.1154 7.24341 16.9831 7.24341ZM10.9971 15.3673C10.5038 15.3673 10.0216 15.2349 9.61141 14.9869C9.20125 14.739 8.88156 14.3865 8.69279 13.9742C8.50401 13.5618 8.45462 13.1081 8.55086 12.6704C8.64709 12.2327 8.88464 11.8306 9.23345 11.515C9.58227 11.1993 10.0267 10.9844 10.5105 10.8974C10.9943 10.8103 11.4958 10.855 11.9516 11.0258C12.4073 11.1966 12.7969 11.4858 13.0709 11.8569C13.345 12.228 13.4913 12.6643 13.4913 13.1106C13.4913 13.4069 13.4267 13.7004 13.3014 13.9742C13.1761 14.248 12.9923 14.4967 12.7607 14.7063C12.5291 14.9158 12.2542 15.0821 11.9516 15.1955C11.649 15.3088 11.3246 15.3673 10.9971 15.3673Z" fill="#00CE7C"/>
</svg>
