<svg width="20" height="20" viewBox="0 0 20 20" fill="none" xmlns="http://www.w3.org/2000/svg">
<path fill-rule="evenodd" clip-rule="evenodd" d="M12.1554 8.16274C11.9797 8.16274 11.8373 8.02031 11.8373 7.84461V1.34469C11.8373 1.13577 12.0067 1.03857 12.1343 1.0679C15.494 1.8397 18.1604 4.50605 18.9322 7.86571C18.9615 7.99337 18.8643 8.16274 18.6554 8.16274H12.1554ZM10.7768 7.84461C10.7768 8.60598 11.3941 9.22319 12.1554 9.22319H18.6554C19.4668 9.22319 20.1648 8.49509 19.9657 7.62829C19.103 3.87267 16.1274 0.89713 12.3718 0.0343736C11.505 -0.164751 10.7768 0.53324 10.7768 1.34469V7.84461Z" fill="#94A3B8"/>
<path fill-rule="evenodd" clip-rule="evenodd" d="M10.1141 18.9396C5.13583 18.9396 1.06045 14.8642 1.06045 9.88597C1.06045 5.60403 4.08177 1.98871 8.09373 1.06783C8.22146 1.03851 8.39083 1.13575 8.39083 1.34469V10.7892C8.39083 11.0945 8.49218 11.3911 8.67898 11.6326L13.5255 17.898C13.5873 17.9779 13.6018 18.0702 13.5839 18.1461C13.567 18.2181 13.5231 18.2731 13.4502 18.3022C12.4191 18.7133 11.2936 18.9396 10.1141 18.9396ZM0 9.88597C0 15.4499 4.55016 20 10.1141 20C11.4303 20 12.6889 19.7473 13.8429 19.2873C14.6984 18.9462 14.8761 17.9109 14.3643 17.2492L9.51777 10.9838C9.47467 10.9281 9.45128 10.8596 9.45128 10.7892V1.34469C9.45128 0.533258 8.72328 -0.164703 7.85649 0.0342555C3.37608 1.06267 0 5.09625 0 9.88597Z" fill="#94A3B8"/>
<path fill-rule="evenodd" clip-rule="evenodd" d="M16.7769 15.9965C16.6894 16.0925 16.5012 16.1105 16.378 15.9511L13.4196 12.1218C13.2581 11.9127 13.4071 11.6092 13.6714 11.6092H18.6554C18.7531 11.6092 18.8335 11.6517 18.883 11.7097C18.9301 11.7649 18.9487 11.8314 18.9316 11.9052C18.5747 13.4498 17.8118 14.8612 16.7769 15.9965ZM15.5388 16.5994C16.0205 17.2229 16.9815 17.3462 17.5606 16.7109C18.7137 15.4459 19.5655 13.8721 19.9649 12.144C20.1653 11.2765 19.4664 10.5488 18.6554 10.5488H13.6714C12.5263 10.5488 11.8804 11.864 12.5805 12.7702L15.5388 16.5994Z" fill="#94A3B8"/>
</svg>
