<svg width="20" height="20" viewBox="0 0 20 20" fill="none" xmlns="http://www.w3.org/2000/svg">
<path d="M11.2884 0.00463501C10.9374 -0.039279 10.6273 0.234449 10.6273 0.588247V8.53615C10.6273 8.99819 11.0018 9.37274 11.4638 9.37274H19.4118C19.7656 9.37274 20.0393 9.06264 19.9954 8.71158C19.4295 4.17119 15.8288 0.570468 11.2884 0.00463501Z" fill="white"/>
<path d="M9.45081 0.588248C9.45081 0.234449 9.14071 -0.039279 8.78965 0.00463501C3.80123 0.626781 0 4.92659 0 9.96097C0 15.475 4.52502 20 10.039 20C11.9538 20 13.4312 19.4585 14.3404 19.0285C14.8416 18.7915 14.9838 18.0863 14.6445 17.6478L9.62576 11.1619C9.51234 11.0153 9.45081 10.8352 9.45081 10.6499V0.588248Z" fill="white"/>
<path d="M15.6297 16.9981C15.9612 17.4265 16.675 17.4994 17.0554 17.1138C18.0347 16.1213 19.6313 14.1333 19.9953 11.2104C20.039 10.8592 19.7651 10.5492 19.4112 10.5492H12.3454C11.6503 10.5492 11.2584 11.3479 11.6838 11.8977L15.6297 16.9981Z" fill="white"/>
</svg>
