<svg width="24" height="24" viewBox="0 0 24 24" fill="none" xmlns="http://www.w3.org/2000/svg">
<path fill-rule="evenodd" clip-rule="evenodd" d="M17.671 10.0203L12.6713 6.13516C12.4794 5.98602 12.2431 5.90495 12 5.90495C11.7569 5.90495 11.5207 5.98593 11.3288 6.13508L6.32796 10.0204C6.32796 10.0204 6.32796 10.0204 6.32796 10.0204C6.19659 10.1225 6.0903 10.2532 6.01721 10.4026C5.94413 10.5519 5.90617 10.716 5.90625 10.8823L5.90625 17.6267C5.90625 17.7509 5.95564 17.8701 6.04354 17.9579C6.13145 18.0457 6.25068 18.095 6.375 18.095H17.625C17.7493 18.095 17.8686 18.0457 17.9565 17.9579C18.0444 17.8701 18.0938 17.7509 18.0938 17.6267V10.883C18.0938 10.5456 17.9373 10.227 17.671 10.0203ZM5.46469 8.91134L10.4653 5.02617C10.9041 4.68515 11.4441 4.5 12 4.5C12.5559 4.5 13.0959 4.68515 13.5347 5.02617L18.5344 8.91134C19.1438 9.38434 19.5 10.1121 19.5 10.883V17.6267C19.5 18.1236 19.3025 18.6 18.9508 18.9513C18.5992 19.3026 18.1223 19.5 17.625 19.5H6.375C5.87772 19.5 5.40081 19.3026 5.04918 18.9513C4.69754 18.6 4.5 18.1236 4.5 17.6267V10.883C4.49982 10.5026 4.58664 10.1272 4.75383 9.78554C4.92103 9.44384 5.16417 9.14483 5.46469 8.91134Z" fill="#0F172A"/>
<path fill-rule="evenodd" clip-rule="evenodd" d="M16.3239 14.44C16.5244 14.7722 16.4175 15.2039 16.0849 15.4043C14.9147 16.1095 13.424 16.4417 11.9711 16.4417C10.5182 16.4417 9.02784 16.1095 7.85839 15.4042C7.52595 15.2037 7.41915 14.7719 7.61985 14.4397C7.82055 14.1076 8.25274 14.0009 8.58518 14.2014C9.48573 14.7446 10.7095 15.0367 11.9711 15.0367C13.2327 15.0367 14.457 14.7446 15.3586 14.2013C15.6911 14.0009 16.1233 14.1078 16.3239 14.44Z" fill="#0F172A"/>
</svg>
