<svg width="18" height="18" viewBox="0 0 18 18" fill="none" xmlns="http://www.w3.org/2000/svg">
<path fill-rule="evenodd" clip-rule="evenodd" d="M0.662255 0.604392C1.16604 0.130448 1.86327 0 2.5844 0H5.92018C6.64132 0 7.33855 0.130448 7.84233 0.604392C8.35752 1.08906 8.50459 1.77372 8.50459 2.47706V15.5229C8.50459 16.2263 8.35752 16.9109 7.84233 17.3956C7.33855 17.8696 6.64132 18 5.92018 18H2.5844C1.86327 18 1.16604 17.8696 0.662255 17.3956C0.147071 16.9109 0 16.2263 0 15.5229V2.47706C0 1.77372 0.147071 1.08906 0.662255 0.604392ZM1.68063 1.68689C1.60339 1.75956 1.48624 1.94188 1.48624 2.47706V15.5229C1.48624 16.0581 1.60339 16.2404 1.68063 16.3131C1.76928 16.3965 1.9927 16.5138 2.5844 16.5138H5.92018C6.51189 16.5138 6.73531 16.3965 6.82395 16.3131C6.9012 16.2404 7.01835 16.0581 7.01835 15.5229V2.47706C7.01835 1.94188 6.9012 1.75956 6.82395 1.68689C6.73531 1.6035 6.51189 1.48624 5.92018 1.48624H2.5844C1.9927 1.48624 1.76928 1.6035 1.68063 1.68689Z" fill="#0F172A"/>
<path fill-rule="evenodd" clip-rule="evenodd" d="M10.1577 0.604392C10.6615 0.130448 11.3587 0 12.0798 0H15.4156C16.1367 0 16.834 0.130448 17.3377 0.604392C17.8529 1.08906 18 1.77372 18 2.47706V9.74312C18 10.4465 17.8529 11.1311 17.3377 11.6158C16.834 12.0897 16.1367 12.2202 15.4156 12.2202H12.0798C11.3587 12.2202 10.6615 12.0897 10.1577 11.6158C9.64248 11.1311 9.49541 10.4465 9.49541 9.74312V2.47706C9.49541 1.77372 9.64248 1.08906 10.1577 0.604392ZM11.176 1.68689C11.0988 1.75956 10.9817 1.94188 10.9817 2.47706V9.74312C10.9817 10.2783 11.0988 10.4606 11.176 10.5333C11.2647 10.6167 11.4881 10.7339 12.0798 10.7339H15.4156C16.0073 10.7339 16.2307 10.6167 16.3194 10.5333C16.3966 10.4606 16.5138 10.2783 16.5138 9.74312V2.47706C16.5138 1.94188 16.3966 1.75956 16.3194 1.68689C16.2307 1.6035 16.0073 1.48624 15.4156 1.48624H12.0798C11.4881 1.48624 11.2647 1.6035 11.176 1.68689Z" fill="#0F172A"/>
</svg>
