<svg width="18" height="16" viewBox="0 0 18 16" fill="none" xmlns="http://www.w3.org/2000/svg">
<path d="M9.0552 8.94712C9.33316 8.94712 9.55855 8.72173 9.55855 8.44378C9.55855 8.16582 9.33316 7.94043 9.0552 7.94043H4.74712C4.46916 7.94043 4.24377 8.16582 4.24377 8.44378C4.24377 8.72173 4.46916 8.94712 4.74712 8.94712H9.0552Z" fill="#8C62FF"/>
<path d="M16.8301 14.0754H16.1187V2.20067C16.1187 1.49228 15.5427 0.916504 14.8346 0.916504H7.68152C6.97348 0.916504 6.39743 1.49228 6.39743 2.20067V4.7746H3.16595C2.45791 4.7746 1.88186 5.35037 1.88186 6.05876V14.076H1.17046C0.892501 14.076 0.667114 14.3015 0.667114 14.5796C0.667114 14.8577 0.892501 15.0832 1.17046 15.0832H16.8301C17.1081 15.0832 17.3335 14.8577 17.3335 14.5796C17.3335 14.3015 17.1081 14.0754 16.8301 14.0754ZM7.40412 2.20067C7.40412 2.04791 7.52828 1.92369 7.68096 1.92369H14.8341C14.9867 1.92369 15.1109 2.04791 15.1109 2.20067V14.076H11.9219V6.0582C11.9219 5.34981 11.3464 4.77404 10.6384 4.77404H7.40412V2.20067ZM2.88911 6.0582C2.88911 5.90544 3.01327 5.78122 3.16595 5.78122H10.639C10.7911 5.78122 10.9152 5.90544 10.9152 6.0582V14.0754H8.85376V11.8753C8.85376 11.2374 8.33475 10.7181 7.69718 10.7181H6.10493C5.4668 10.7181 4.94779 11.2374 4.94779 11.8753V14.0754H2.88911V6.0582ZM7.84706 14.0754H5.95504V11.8753C5.95504 11.7925 6.02216 11.7253 6.10549 11.7253H7.69774C7.77995 11.7253 7.84762 11.7925 7.84762 11.8753V14.0754H7.84706Z" fill="#8C62FF"/>
</svg>
