<svg width="20" height="20" viewBox="0 0 20 20" fill="none" xmlns="http://www.w3.org/2000/svg">
<path fill-rule="evenodd" clip-rule="evenodd" d="M9.99998 5.01045C6.74256 5.01045 4.09858 7.65854 4.09858 10.921C4.09858 14.1835 6.74256 16.8316 9.99998 16.8316C13.2574 16.8316 15.9014 14.1835 15.9014 10.921C15.9014 7.65854 13.2574 5.01045 9.99998 5.01045ZM2.99207 10.921C2.99207 7.04648 6.13145 3.90222 9.99998 3.90222C13.8685 3.90222 17.0079 7.04648 17.0079 10.921C17.0079 14.7955 13.8685 17.9398 9.99998 17.9398C6.13145 17.9398 2.99207 14.7955 2.99207 10.921Z" fill="#DA01C4"/>
<path fill-rule="evenodd" clip-rule="evenodd" d="M9.99998 6.48809C10.3055 6.48809 10.5532 6.73617 10.5532 7.0422V10.7363C10.5532 11.0423 10.3055 11.2904 9.99998 11.2904C9.69442 11.2904 9.44672 11.0423 9.44672 10.7363V7.0422C9.44672 6.73617 9.69442 6.48809 9.99998 6.48809Z" fill="#DA01C4"/>
<path fill-rule="evenodd" clip-rule="evenodd" d="M7.2337 2.60929C7.2337 2.30326 7.4814 2.05518 7.78695 2.05518H12.213C12.5186 2.05518 12.7663 2.30326 12.7663 2.60929C12.7663 2.91532 12.5186 3.1634 12.213 3.1634H7.78695C7.4814 3.1634 7.2337 2.91532 7.2337 2.60929Z" fill="#DA01C4"/>
</svg>
