<svg width="20" height="20" viewBox="0 0 20 20" fill="none" xmlns="http://www.w3.org/2000/svg">
<path fill-rule="evenodd" clip-rule="evenodd" d="M10.0001 5.01045C6.74268 5.01045 4.0987 7.65854 4.0987 10.921C4.0987 14.1835 6.74268 16.8316 10.0001 16.8316C13.2575 16.8316 15.9015 14.1835 15.9015 10.921C15.9015 7.65854 13.2575 5.01045 10.0001 5.01045ZM2.99219 10.921C2.99219 7.04648 6.13157 3.90222 10.0001 3.90222C13.8686 3.90222 17.008 7.04648 17.008 10.921C17.008 14.7955 13.8686 17.9398 10.0001 17.9398C6.13157 17.9398 2.99219 14.7955 2.99219 10.921Z" fill="#00CE7C"/>
<path fill-rule="evenodd" clip-rule="evenodd" d="M10.0001 6.48809C10.3057 6.48809 10.5534 6.73617 10.5534 7.0422V10.7363C10.5534 11.0423 10.3057 11.2904 10.0001 11.2904C9.69455 11.2904 9.44684 11.0423 9.44684 10.7363V7.0422C9.44684 6.73617 9.69455 6.48809 10.0001 6.48809Z" fill="#00CE7C"/>
<path fill-rule="evenodd" clip-rule="evenodd" d="M7.23382 2.60929C7.23382 2.30326 7.48152 2.05518 7.78708 2.05518H12.2131C12.5187 2.05518 12.7664 2.30326 12.7664 2.60929C12.7664 2.91532 12.5187 3.1634 12.2131 3.1634H7.78708C7.48152 3.1634 7.23382 2.91532 7.23382 2.60929Z" fill="#00CE7C"/>
</svg>
