<svg width="20" height="20" viewBox="0 0 20 20" fill="none" xmlns="http://www.w3.org/2000/svg">
<path fill-rule="evenodd" clip-rule="evenodd" d="M14.2082 3.54737C13.4867 3.54737 12.9084 4.11536 12.9084 4.82396C12.9084 5.50616 13.4426 6.05596 14.1189 6.09904C14.1756 6.09409 14.2337 6.09409 14.2904 6.09904C14.9655 6.056 15.502 5.50691 15.5079 4.8221C15.5069 4.12 14.9277 3.54737 14.2082 3.54737ZM11.8431 4.82396C11.8431 3.53745 12.8983 2.50098 14.2082 2.50098C15.5194 2.50098 16.5733 3.54575 16.5733 4.82396V4.8277C16.5642 6.08262 15.5584 7.10152 14.2914 7.14661C14.2624 7.14764 14.2334 7.14634 14.2046 7.14274C14.1759 7.14634 14.1469 7.14764 14.1179 7.14661C12.8515 7.10154 11.8431 6.08244 11.8431 4.82396Z" fill="#DA01C4"/>
<path fill-rule="evenodd" clip-rule="evenodd" d="M13.4273 7.80356C14.5071 7.61777 15.7384 7.7949 16.6334 8.37825L16.6344 8.37888C17.2462 8.77948 17.6227 9.35995 17.6227 10.0071C17.6227 10.6542 17.2462 11.2347 16.6344 11.6353C15.7459 12.2193 14.5294 12.3958 13.4524 12.2182C13.1622 12.1704 12.9665 11.9006 13.0152 11.6156C13.0639 11.3307 13.3386 11.1384 13.6288 11.1863C14.4974 11.3295 15.4253 11.1713 16.0425 10.7653L16.0434 10.7646C16.4331 10.5095 16.5573 10.225 16.5573 10.0071C16.5573 9.7893 16.4332 9.50491 16.0439 9.24985C15.4191 8.84285 14.4772 8.68524 13.6112 8.83425C13.3214 8.88411 13.0453 8.69381 12.9946 8.40919C12.9438 8.12457 13.1376 7.85342 13.4273 7.80356Z" fill="#DA01C4"/>
<path fill-rule="evenodd" clip-rule="evenodd" d="M3.4267 4.82396C3.4267 3.54575 4.48063 2.50098 5.79181 2.50098C7.10165 2.50098 8.15692 3.53745 8.15692 4.82396C8.15692 6.08244 7.14848 7.10154 5.88212 7.14661C5.85313 7.14764 5.82411 7.14634 5.79536 7.14274C5.76661 7.14634 5.73759 7.14764 5.7086 7.14661C4.44158 7.10152 3.43584 6.08262 3.42671 4.8277L3.4267 4.82396ZM4.49207 4.8221C4.49802 5.50691 5.03453 6.056 5.7096 6.09904C5.76632 6.09409 5.82441 6.09409 5.88113 6.09904C6.55736 6.05596 7.09155 5.50616 7.09155 4.82396C7.09155 4.11536 6.51326 3.54737 5.79181 3.54737C5.07234 3.54737 4.49309 4.12 4.49207 4.8221Z" fill="#DA01C4"/>
<path fill-rule="evenodd" clip-rule="evenodd" d="M3.95608 9.24984C4.58092 8.84284 5.52278 8.68524 6.38883 8.83425C6.67861 8.88411 6.95467 8.69381 7.00544 8.40919C7.0562 8.12457 6.86244 7.85342 6.57266 7.80356C5.49287 7.61777 4.26164 7.7949 3.36656 8.37825L3.3656 8.37888C2.75381 8.77948 2.37732 9.35995 2.37732 10.0071C2.37732 10.6541 2.75361 11.2344 3.36512 11.635C4.25361 12.2193 5.47036 12.3958 6.54763 12.2182C6.83776 12.1704 7.03348 11.9006 6.98477 11.6156C6.93606 11.3307 6.66138 11.1384 6.37124 11.1863C5.50264 11.3295 4.57471 11.1713 3.95753 10.7653L3.95656 10.7646C3.56691 10.5095 3.44268 10.225 3.44268 10.0071C3.44268 9.7893 3.56681 9.5049 3.95608 9.24984Z" fill="#DA01C4"/>
<path fill-rule="evenodd" clip-rule="evenodd" d="M9.94673 8.75839C9.22528 8.75839 8.64699 9.32638 8.64699 10.035C8.64699 10.7172 9.18118 11.267 9.85741 11.3101C9.91493 11.305 9.97385 11.3051 10.0313 11.3103C10.7009 11.2726 11.2405 10.7216 11.2465 10.0331C11.2454 9.33102 10.6662 8.75839 9.94673 8.75839ZM7.58162 10.035C7.58162 8.74848 8.63689 7.712 9.94673 7.712C11.2579 7.712 12.3118 8.75677 12.3118 10.035V10.0387C12.3027 11.2903 11.2996 12.3215 10.0261 12.3578C9.99838 12.3585 9.97066 12.3572 9.94318 12.3538C9.91443 12.3574 9.88541 12.3587 9.85642 12.3576C8.59006 12.3126 7.58162 11.2935 7.58162 10.035Z" fill="#DA01C4"/>
<path fill-rule="evenodd" clip-rule="evenodd" d="M10.0133 12.9544C10.8432 12.9544 11.7018 13.1574 12.3729 13.5969C12.9847 13.9975 13.3612 14.5779 13.3612 15.2251C13.3612 15.8721 12.9848 16.4525 12.3732 16.8531C11.6992 17.2957 10.8409 17.501 10.0107 17.501C9.18038 17.501 8.32213 17.2957 7.64814 16.8531C7.03648 16.4525 6.66008 15.8721 6.66008 15.2251C6.66008 14.5779 7.03657 13.9975 7.64837 13.5969L7.64965 13.596C8.32365 13.1575 9.18324 12.9544 10.0133 12.9544ZM8.2387 14.4679C7.84954 14.723 7.72545 15.0073 7.72545 15.2251C7.72545 15.443 7.84968 15.7275 8.23932 15.9826L8.23996 15.9831C8.7023 16.2867 9.34248 16.4546 10.0107 16.4546C10.6788 16.4546 11.319 16.2867 11.7813 15.9831L11.782 15.9826C12.1716 15.7275 12.2959 15.443 12.2959 15.2251C12.2959 15.0072 12.1716 14.7227 11.782 14.4675C11.3238 14.1675 10.6838 14.0008 10.0133 14.0008C9.34332 14.0008 8.70103 14.1673 8.2387 14.4679Z" fill="#DA01C4"/>
</svg>
