<svg width="20" height="20" viewBox="0 0 20 20" fill="none" xmlns="http://www.w3.org/2000/svg">
<path fill-rule="evenodd" clip-rule="evenodd" d="M10.9338 11.6888C11.2187 11.7973 11.3614 12.1157 11.2526 12.3999C10.7822 13.6285 10.0666 14.3057 9.19766 14.6445C8.39338 14.958 7.50248 14.9578 6.73497 14.9577C6.71896 14.9577 6.703 14.9577 6.6871 14.9577C5.86228 14.9577 5.17063 14.9645 4.57853 15.1953C4.03424 15.4075 3.52662 15.8319 3.15334 16.8068C3.04451 17.091 2.72533 17.2334 2.44042 17.1248C2.15551 17.0163 2.01276 16.6979 2.12158 16.4137C2.59197 15.1852 3.30767 14.5079 4.17655 14.1691C4.98083 13.8556 5.87173 13.8558 6.63923 13.8559H6.6871C7.51192 13.8559 8.20357 13.8491 8.79564 13.6183C9.33998 13.4061 9.84759 12.9817 10.2209 12.0068C10.3297 11.7225 10.6489 11.5802 10.9338 11.6888Z" fill="#DA01C4"/>
<path fill-rule="evenodd" clip-rule="evenodd" d="M10.6982 2.83887H13.7225C14.5566 2.83885 15.2383 2.83884 15.7763 2.91101C16.3389 2.98645 16.8265 3.14971 17.2158 3.53802C17.6051 3.92635 17.7688 4.41282 17.8444 4.97393C17.9167 5.51074 17.9167 6.19067 17.9167 7.02272V8.57057C17.9167 9.40259 17.9167 10.0826 17.8444 10.6193C17.7688 11.1805 17.6051 11.6669 17.2158 12.0553C16.8265 12.4436 16.3389 12.6069 15.7763 12.6823C15.2383 12.7544 14.5566 12.7544 13.7225 12.7544H12.5776C12.2726 12.7544 12.0253 12.5078 12.0253 12.2035C12.0253 11.8993 12.2726 11.6527 12.5776 11.6527H13.683C14.5663 11.6527 15.1733 11.6515 15.6292 11.5904C16.0692 11.5313 16.285 11.4257 16.4348 11.2762C16.5847 11.1267 16.6906 10.9115 16.7498 10.4725C16.8111 10.0178 16.8122 9.41229 16.8122 8.53113V7.06216C16.8122 6.18099 16.8111 5.57552 16.7498 5.12074C16.6906 4.68179 16.5847 4.46656 16.4348 4.31706C16.285 4.16757 16.0692 4.06192 15.6292 4.00291C15.1733 3.94176 14.5663 3.94059 13.683 3.94059H10.7378C9.85444 3.94059 9.24751 3.94176 8.79159 4.00291C8.35154 4.06192 8.13577 4.16757 7.9859 4.31706C7.85759 4.44507 7.76328 4.6194 7.70143 4.93434C7.63657 5.26467 7.61575 5.70372 7.61041 6.33234C7.60782 6.63657 7.3585 6.8811 7.05352 6.87851C6.74855 6.87593 6.50341 6.62722 6.506 6.323C6.51131 5.69818 6.5307 5.16502 6.61758 4.72256C6.70748 4.26472 6.87646 3.86571 7.20494 3.53802C7.59422 3.14971 8.08189 2.98645 8.64441 2.91101C9.18249 2.83884 9.86416 2.83885 10.6982 2.83887Z" fill="#DA01C4"/>
<path fill-rule="evenodd" clip-rule="evenodd" d="M6.68692 9.08171C5.97528 9.08171 5.39839 9.65718 5.39839 10.3671C5.39839 11.0769 5.97528 11.6524 6.68692 11.6524C7.39855 11.6524 7.97544 11.0769 7.97544 10.3671C7.97544 9.65718 7.39855 9.08171 6.68692 9.08171ZM4.29395 10.3671C4.29395 9.04873 5.36532 7.97998 6.68692 7.97998C8.00852 7.97998 9.07989 9.04873 9.07989 10.3671C9.07989 11.6854 8.00852 12.7541 6.68692 12.7541C5.36532 12.7541 4.29395 11.6854 4.29395 10.3671Z" fill="#DA01C4"/>
<path fill-rule="evenodd" clip-rule="evenodd" d="M9.448 6.32772C9.448 6.02349 9.69525 5.77686 10.0002 5.77686H14.418C14.723 5.77686 14.9702 6.02349 14.9702 6.32772C14.9702 6.63196 14.723 6.87858 14.418 6.87858H10.0002C9.69525 6.87858 9.448 6.63196 9.448 6.32772ZM11.6569 9.26566C11.6569 8.96143 11.9041 8.71479 12.2091 8.71479H14.418C14.723 8.71479 14.9702 8.96143 14.9702 9.26566C14.9702 9.56988 14.723 9.81652 14.418 9.81652H12.2091C11.9041 9.81652 11.6569 9.56988 11.6569 9.26566Z" fill="#DA01C4"/>
</svg>
