<svg width="20" height="20" viewBox="0 0 20 20" fill="none" xmlns="http://www.w3.org/2000/svg">
<path fill-rule="evenodd" clip-rule="evenodd" d="M14.2083 3.54737C13.4869 3.54737 12.9086 4.11536 12.9086 4.82396C12.9086 5.50616 13.4428 6.05596 14.119 6.09904C14.1757 6.09409 14.2338 6.09409 14.2905 6.09904C14.9656 6.056 15.5021 5.50691 15.508 4.8221C15.507 4.12 14.9278 3.54737 14.2083 3.54737ZM11.8432 4.82396C11.8432 3.53745 12.8985 2.50098 14.2083 2.50098C15.5195 2.50098 16.5734 3.54575 16.5734 4.82396V4.8277C16.5643 6.08262 15.5585 7.10152 14.2915 7.14661C14.2625 7.14764 14.2335 7.14634 14.2048 7.14274C14.176 7.14634 14.147 7.14764 14.118 7.14661C12.8516 7.10154 11.8432 6.08244 11.8432 4.82396Z" fill="#00CE7C"/>
<path fill-rule="evenodd" clip-rule="evenodd" d="M13.4275 7.80356C14.5072 7.61777 15.7385 7.7949 16.6336 8.37825L16.6345 8.37888C17.2463 8.77948 17.6228 9.35995 17.6228 10.0071C17.6228 10.6542 17.2463 11.2347 16.6345 11.6353C15.7461 12.2193 14.5296 12.3958 13.4525 12.2182C13.1624 12.1704 12.9666 11.9006 13.0154 11.6156C13.0641 11.3307 13.3387 11.1384 13.6289 11.1863C14.4975 11.3295 15.4254 11.1713 16.0426 10.7653L16.0436 10.7646C16.4332 10.5095 16.5574 10.225 16.5574 10.0071C16.5574 9.7893 16.4333 9.50491 16.0441 9.24985C15.4192 8.84285 14.4773 8.68524 13.6113 8.83425C13.3215 8.88411 13.0454 8.69381 12.9947 8.40919C12.9439 8.12457 13.1377 7.85342 13.4275 7.80356Z" fill="#00CE7C"/>
<path fill-rule="evenodd" clip-rule="evenodd" d="M3.42682 4.82396C3.42682 3.54575 4.48075 2.50098 5.79193 2.50098C7.10177 2.50098 8.15704 3.53745 8.15704 4.82396C8.15704 6.08244 7.1486 7.10154 5.88224 7.14661C5.85325 7.14764 5.82424 7.14634 5.79548 7.14274C5.76673 7.14634 5.73771 7.14764 5.70872 7.14661C4.4417 7.10152 3.43596 6.08262 3.42684 4.8277L3.42682 4.82396ZM4.49219 4.8221C4.49814 5.50691 5.03466 6.056 5.70972 6.09904C5.76644 6.09409 5.82453 6.09409 5.88125 6.09904C6.55748 6.05596 7.09168 5.50616 7.09168 4.82396C7.09168 4.11536 6.51339 3.54737 5.79193 3.54737C5.07246 3.54737 4.49321 4.12 4.49219 4.8221Z" fill="#00CE7C"/>
<path fill-rule="evenodd" clip-rule="evenodd" d="M3.9562 9.24984C4.58104 8.84284 5.5229 8.68524 6.38895 8.83425C6.67873 8.88411 6.95479 8.69381 7.00556 8.40919C7.05632 8.12457 6.86256 7.85342 6.57278 7.80356C5.49299 7.61777 4.26176 7.7949 3.36668 8.37825L3.36573 8.37888C2.75393 8.77948 2.37744 9.35995 2.37744 10.0071C2.37744 10.6541 2.75374 11.2344 3.36524 11.635C4.25373 12.2193 5.47049 12.3958 6.54775 12.2182C6.83789 12.1704 7.0336 11.9006 6.98489 11.6156C6.93618 11.3307 6.6615 11.1384 6.37137 11.1863C5.50276 11.3295 4.57483 11.1713 3.95765 10.7653L3.95668 10.7646C3.56703 10.5095 3.44281 10.225 3.44281 10.0071C3.44281 9.7893 3.56693 9.5049 3.9562 9.24984Z" fill="#00CE7C"/>
<path fill-rule="evenodd" clip-rule="evenodd" d="M9.94685 8.75839C9.2254 8.75839 8.64711 9.32638 8.64711 10.035C8.64711 10.7172 9.18131 11.267 9.85753 11.3101C9.91505 11.305 9.97398 11.3051 10.0315 11.3103C10.701 11.2726 11.2406 10.7216 11.2466 10.0331C11.2456 9.33102 10.6663 8.75839 9.94685 8.75839ZM7.58174 10.035C7.58174 8.74848 8.63701 7.712 9.94685 7.712C11.258 7.712 12.312 8.75677 12.312 10.035V10.0387C12.3029 11.2903 11.2997 12.3215 10.0262 12.3578C9.9985 12.3585 9.97078 12.3572 9.9433 12.3538C9.91455 12.3574 9.88553 12.3587 9.85654 12.3576C8.59018 12.3126 7.58174 11.2935 7.58174 10.035Z" fill="#00CE7C"/>
<path fill-rule="evenodd" clip-rule="evenodd" d="M10.0134 12.9544C10.8434 12.9544 11.7019 13.1574 12.3731 13.5969C12.9849 13.9975 13.3613 14.5779 13.3613 15.2251C13.3613 15.8721 12.985 16.4525 12.3733 16.8531C11.6993 17.2957 10.8411 17.501 10.0108 17.501C9.1805 17.501 8.32225 17.2957 7.64826 16.8531C7.0366 16.4525 6.6602 15.8721 6.6602 15.2251C6.6602 14.5779 7.0367 13.9975 7.64849 13.5969L7.64977 13.596C8.32378 13.1575 9.18337 12.9544 10.0134 12.9544ZM8.23882 14.4679C7.84966 14.723 7.72557 15.0073 7.72557 15.2251C7.72557 15.443 7.8498 15.7275 8.23945 15.9826L8.24009 15.9831C8.70242 16.2867 9.3426 16.4546 10.0108 16.4546C10.6789 16.4546 11.3191 16.2867 11.7815 15.9831L11.7821 15.9826C12.1718 15.7275 12.296 15.443 12.296 15.2251C12.296 15.0072 12.1718 14.7227 11.7821 14.4675C11.324 14.1675 10.6839 14.0008 10.0134 14.0008C9.34344 14.0008 8.70115 14.1673 8.23882 14.4679Z" fill="#00CE7C"/>
</svg>
