<svg width="20" height="20" viewBox="0 0 20 20" fill="none" xmlns="http://www.w3.org/2000/svg">
<path d="M14.7772 5.05033C13.5798 4.06044 12.0695 3.43515 10.4166 3.3447V5.41667H9.58329V3.3447C7.93046 3.43515 6.42021 4.06043 5.22279 5.05029L6.47313 6.30054L5.88388 6.88983L4.61038 5.61637C3.4846 6.77879 2.73195 8.30429 2.5453 10H4.18858V10.8333H2.49996C2.50098 12.5842 3.10231 14.1942 4.11003 15.4697L5.326 14.2537L5.91525 14.843L4.66308 16.0952L4.67092 16.1031L4.079 16.6897C2.58813 15.1853 1.66663 13.1142 1.66663 10.8288C1.66663 6.22875 5.39779 2.5 9.99996 2.5C14.6021 2.5 18.3333 6.22875 18.3333 10.8288C18.3333 13.1765 17.3609 15.2978 15.798 16.8113L15.2183 16.2126L15.2235 16.2075L13.7747 14.7587L14.364 14.1695L15.7891 15.5946C16.8574 14.3 17.4989 12.6418 17.5 10.8333H15.7018V10H17.4546C17.268 8.30429 16.5153 6.77883 15.3896 5.61642L14.1666 6.83925L13.5774 6.24996L14.7772 5.05033Z" fill="#DA01C4"/>
<path d="M8.59427 15.7102C8.58248 15.8737 8.63073 16.0357 8.72998 16.1661L9.53098 17.0875C9.99994 17.2919 10.2083 17.2919 10.601 17.0875L11.402 16.1661C11.5013 16.0357 11.5495 15.8737 11.5377 15.7102L10.5456 9.95936C10.4855 9.12732 9.64173 9.11978 9.58161 9.95178L8.59427 15.7102Z" fill="#DA01C4"/>
</svg>
