<svg width="20" height="20" viewBox="0 0 20 20" fill="none" xmlns="http://www.w3.org/2000/svg">
<path fill-rule="evenodd" clip-rule="evenodd" d="M10.9337 11.6888C11.2186 11.7973 11.3613 12.1157 11.2525 12.3999C10.7821 13.6285 10.0664 14.3057 9.19753 14.6445C8.39325 14.958 7.50235 14.9578 6.73485 14.9577C6.71884 14.9577 6.70288 14.9577 6.68698 14.9577C5.86216 14.9577 5.1705 14.9645 4.57841 15.1953C4.03412 15.4075 3.52649 15.8319 3.15321 16.8068C3.04439 17.091 2.72521 17.2334 2.4403 17.1248C2.15539 17.0163 2.01264 16.6979 2.12146 16.4137C2.59185 15.1852 3.30755 14.5079 4.17643 14.1691C4.98071 13.8556 5.87161 13.8558 6.63911 13.8559H6.68698C7.51179 13.8559 8.20345 13.8491 8.79552 13.6183C9.33986 13.4061 9.84747 12.9817 10.2208 12.0068C10.3296 11.7225 10.6488 11.5802 10.9337 11.6888Z" fill="#00CE7C"/>
<path fill-rule="evenodd" clip-rule="evenodd" d="M10.6981 2.83887H13.7224C14.5565 2.83885 15.2381 2.83884 15.7762 2.91101C16.3388 2.98645 16.8264 3.14971 17.2157 3.53802C17.605 3.92635 17.7686 4.41282 17.8443 4.97393C17.9166 5.51074 17.9166 6.19067 17.9166 7.02272V8.57057C17.9166 9.40259 17.9166 10.0826 17.8443 10.6193C17.7686 11.1805 17.605 11.6669 17.2157 12.0553C16.8264 12.4436 16.3388 12.6069 15.7762 12.6823C15.2381 12.7544 14.5565 12.7544 13.7224 12.7544H12.5774C12.2725 12.7544 12.0252 12.5078 12.0252 12.2035C12.0252 11.8993 12.2725 11.6527 12.5774 11.6527H13.6828C14.5662 11.6527 15.1732 11.6515 15.629 11.5904C16.0691 11.5313 16.2849 11.4257 16.4347 11.2762C16.5846 11.1267 16.6905 10.9115 16.7497 10.4725C16.8109 10.0178 16.8121 9.41229 16.8121 8.53113V7.06216C16.8121 6.18099 16.8109 5.57552 16.7497 5.12074C16.6905 4.68179 16.5846 4.46656 16.4347 4.31706C16.2849 4.16757 16.0691 4.06192 15.629 4.00291C15.1732 3.94176 14.5662 3.94059 13.6828 3.94059H10.7377C9.85432 3.94059 9.24739 3.94176 8.79147 4.00291C8.35141 4.06192 8.13565 4.16757 7.98578 4.31706C7.85747 4.44507 7.76315 4.6194 7.70131 4.93434C7.63644 5.26467 7.61563 5.70372 7.61028 6.33234C7.6077 6.63657 7.35837 6.8811 7.0534 6.87851C6.74842 6.87593 6.50329 6.62722 6.50588 6.323C6.51119 5.69818 6.53058 5.16502 6.61746 4.72256C6.70736 4.26472 6.87633 3.86571 7.20482 3.53802C7.5941 3.14971 8.08177 2.98645 8.64428 2.91101C9.18237 2.83884 9.86404 2.83885 10.6981 2.83887Z" fill="#00CE7C"/>
<path fill-rule="evenodd" clip-rule="evenodd" d="M6.68667 9.08171C5.97504 9.08171 5.39815 9.65718 5.39815 10.3671C5.39815 11.0769 5.97504 11.6524 6.68667 11.6524C7.39831 11.6524 7.9752 11.0769 7.9752 10.3671C7.9752 9.65718 7.39831 9.08171 6.68667 9.08171ZM4.2937 10.3671C4.2937 9.04873 5.36507 7.97998 6.68667 7.97998C8.00828 7.97998 9.07964 9.04873 9.07964 10.3671C9.07964 11.6854 8.00828 12.7541 6.68667 12.7541C5.36507 12.7541 4.2937 11.6854 4.2937 10.3671Z" fill="#00CE7C"/>
<path fill-rule="evenodd" clip-rule="evenodd" d="M9.448 6.32772C9.448 6.02349 9.69525 5.77686 10.0002 5.77686H14.418C14.723 5.77686 14.9702 6.02349 14.9702 6.32772C14.9702 6.63196 14.723 6.87858 14.418 6.87858H10.0002C9.69525 6.87858 9.448 6.63196 9.448 6.32772ZM11.6569 9.26566C11.6569 8.96143 11.9041 8.71479 12.2091 8.71479H14.418C14.723 8.71479 14.9702 8.96143 14.9702 9.26566C14.9702 9.56988 14.723 9.81652 14.418 9.81652H12.2091C11.9041 9.81652 11.6569 9.56988 11.6569 9.26566Z" fill="#00CE7C"/>
</svg>
