<svg width="20" height="20" viewBox="0 0 20 20" fill="none" xmlns="http://www.w3.org/2000/svg">
<path fill-rule="evenodd" clip-rule="evenodd" d="M3.59367 15.8921C3.59367 17.201 4.65457 18.2619 5.96346 18.2619H14.0364C15.3453 18.2619 16.4062 17.201 16.4062 15.8921V5.70329C16.4062 4.44716 15.4294 3.41994 14.1938 3.33895C13.9642 3.32389 13.7659 3.49784 13.7508 3.72746C13.7358 3.95709 13.9097 4.15544 14.1393 4.17049C14.9396 4.22296 15.5728 4.8891 15.5728 5.70329V15.8921C15.5728 16.7407 14.885 17.4285 14.0364 17.4285H5.96346C5.1148 17.4285 4.427 16.7407 4.427 15.8921V5.70329C4.427 4.8891 5.06024 4.22296 5.86051 4.17049C6.09014 4.15544 6.26408 3.95709 6.24903 3.72746C6.23397 3.49784 6.03562 3.32389 5.806 3.33895C4.57046 3.41994 3.59367 4.44716 3.59367 5.70329V15.8921Z" fill="#00CE7C"/>
<path fill-rule="evenodd" clip-rule="evenodd" d="M6.80981 4.896C6.50061 4.896 6.24992 4.64531 6.24992 4.3361V3.13167C6.24992 2.82247 6.50061 2.57178 6.80981 2.57178H13.19C13.4992 2.57178 13.7499 2.82247 13.7499 3.13167V4.3361C13.7499 4.64531 13.4992 4.896 13.19 4.896H6.80981ZM5.41659 4.3361C5.41659 5.10554 6.04037 5.72933 6.80981 5.72933H13.19C13.9595 5.72933 14.5833 5.10554 14.5833 4.3361V3.13167C14.5833 2.36223 13.9595 1.73844 13.19 1.73844H6.80981C6.04037 1.73844 5.41659 2.36223 5.41659 3.13167V4.3361Z" fill="#00CE7C"/>
<path fill-rule="evenodd" clip-rule="evenodd" d="M6.80981 1.84261C6.0979 1.84261 5.52075 2.41976 5.52075 3.13167V3.26912C5.61192 3.25266 5.70483 3.24119 5.79918 3.235C5.92841 3.22653 6.04971 3.26595 6.14575 3.33804V3.13167C6.14575 2.76494 6.44308 2.46761 6.80981 2.46761H13.19C13.5568 2.46761 13.8541 2.76494 13.8541 3.13167V3.33804C13.9501 3.26595 14.0714 3.22653 14.2007 3.235C14.295 3.24119 14.3879 3.25266 14.4791 3.26912V3.13167C14.4791 2.41976 13.9019 1.84261 13.19 1.84261H6.80981ZM14.6874 3.31615V3.13167C14.6874 2.3047 14.017 1.63428 13.19 1.63428H6.80981C5.98284 1.63428 5.31242 2.3047 5.31242 3.13167V3.31615C4.26183 3.60182 3.4895 4.56203 3.4895 5.70329V15.8921C3.4895 17.2585 4.59704 18.366 5.96346 18.366H14.0364C15.4028 18.366 16.5103 17.2585 16.5103 15.8921V5.70329C16.5103 4.56203 15.738 3.60182 14.6874 3.31615ZM14.4791 3.48115C14.3838 3.46229 14.2863 3.44939 14.187 3.44289C14.0148 3.4316 13.866 3.56206 13.8548 3.73428C13.8544 3.74035 13.8541 3.74639 13.8541 3.7524V3.75765C13.8554 3.91976 13.9818 4.05577 14.1461 4.06655C14.2607 4.07406 14.3721 4.09335 14.4791 4.12322V3.48115ZM14.6874 4.19699V3.53282C15.6214 3.81237 16.302 4.67811 16.302 5.70329V15.8921C16.302 17.1435 15.2877 18.1577 14.0364 18.1577H5.96346C4.7121 18.1577 3.69784 17.1435 3.69784 15.8921V5.70329C3.69784 4.67811 4.37841 3.81238 5.31242 3.53282V4.19699C4.73029 4.44877 4.32284 5.02839 4.32284 5.70329V15.8921C4.32284 16.7983 5.05727 17.5327 5.96346 17.5327H14.0364C14.9426 17.5327 15.677 16.7983 15.677 15.8921V5.70329C15.677 5.02839 15.2696 4.44877 14.6874 4.19699ZM14.4791 4.3408C14.3688 4.30504 14.2527 4.28232 14.1325 4.27444C14.0277 4.26757 13.9322 4.23016 13.8541 4.17146V4.3361C13.8541 4.70283 13.5568 5.00016 13.19 5.00016H6.80981C6.44308 5.00016 6.14575 4.70283 6.14575 4.3361V4.17146C6.06763 4.23016 5.97211 4.26757 5.86732 4.27444C5.74716 4.28232 5.63103 4.30504 5.52076 4.34081C5.5233 5.05055 6.09947 5.62516 6.80981 5.62516H13.19C13.9004 5.62516 14.4765 5.05055 14.4791 4.3408ZM5.31506 4.42584C5.36148 5.21104 6.01297 5.8335 6.80981 5.8335H13.19C13.9869 5.8335 14.6384 5.21103 14.6848 4.42584C15.1498 4.66227 15.4687 5.14552 15.4687 5.70329V15.8921C15.4687 16.6832 14.8275 17.3244 14.0364 17.3244H5.96346C5.17233 17.3244 4.53117 16.6832 4.53117 15.8921V5.70329C4.53117 5.14552 4.84999 4.66227 5.31506 4.42584ZM5.52075 4.12322C5.62772 4.09335 5.73911 4.07406 5.8537 4.06655C6.01803 4.05578 6.14434 3.91983 6.14575 3.75777V3.75228C6.1457 3.74631 6.14548 3.74031 6.14508 3.73428C6.13379 3.56206 5.98503 3.4316 5.81281 3.44289C5.71358 3.44939 5.61609 3.46229 5.52075 3.48116V4.12322ZM6.35409 3.75978V4.3361C6.35409 4.58778 6.55814 4.79183 6.80981 4.79183H13.19C13.4417 4.79183 13.6458 4.58778 13.6458 4.3361V3.75962C13.6457 3.7567 13.6457 3.75378 13.6458 3.75085V3.13167C13.6458 2.88 13.4417 2.67594 13.19 2.67594H6.80981C6.55814 2.67594 6.35409 2.88 6.35409 3.13167V3.75069C6.35411 3.75372 6.35411 3.75675 6.35409 3.75978Z" fill="#00CE7C"/>
<path fill-rule="evenodd" clip-rule="evenodd" d="M10.625 13.5531C10.625 13.7832 10.8116 13.9698 11.0417 13.9698H13.9063C14.1364 13.9698 14.3229 13.7832 14.3229 13.5531C14.3229 13.323 14.1364 13.1365 13.9063 13.1365H11.0417C10.8116 13.1365 10.625 13.323 10.625 13.5531Z" fill="#00CE7C"/>
<path fill-rule="evenodd" clip-rule="evenodd" d="M10.625 9.73769C10.625 9.96781 10.8116 10.1544 11.0417 10.1544H13.9063C14.1364 10.1544 14.3229 9.96781 14.3229 9.73769C14.3229 9.50757 14.1364 9.32102 13.9063 9.32102H11.0417C10.8116 9.32102 10.625 9.50757 10.625 9.73769Z" fill="#00CE7C"/>
<path fill-rule="evenodd" clip-rule="evenodd" d="M6.56652 10.9313C6.70606 10.9476 6.84437 10.8924 6.93441 10.7845L8.2365 9.22525C8.38399 9.04862 8.36038 8.78586 8.18374 8.63836C8.00711 8.49086 7.74435 8.51448 7.59686 8.69111L6.7023 9.76236L6.46628 9.29129C6.3632 9.08555 6.11285 9.00233 5.90711 9.10542C5.70137 9.2085 5.61815 9.45885 5.72124 9.66459L6.24207 10.7041C6.305 10.8297 6.42698 10.9151 6.56652 10.9313Z" fill="#00CE7C"/>
<path fill-rule="evenodd" clip-rule="evenodd" d="M7.63803 14.7628C7.82528 14.629 7.86865 14.3688 7.7349 14.1815L6.43282 12.3586C6.29906 12.1714 6.03883 12.128 5.85158 12.2617C5.66432 12.3955 5.62095 12.6557 5.7547 12.843L7.05679 14.6659C7.19054 14.8531 7.45077 14.8965 7.63803 14.7628Z" fill="#00CE7C"/>
<path fill-rule="evenodd" clip-rule="evenodd" d="M5.85158 14.7628C6.03883 14.8965 6.29906 14.8531 6.43282 14.6659L7.7349 12.843C7.86865 12.6557 7.82528 12.3955 7.63803 12.2617C7.45077 12.128 7.19054 12.1714 7.05679 12.3586L5.7547 14.1815C5.62095 14.3688 5.66432 14.629 5.85158 14.7628Z" fill="#00CE7C"/>
<path fill-rule="evenodd" clip-rule="evenodd" d="M10.625 13.5531C10.625 13.7832 10.8116 13.9698 11.0417 13.9698H13.9063C14.1364 13.9698 14.3229 13.7832 14.3229 13.5531C14.3229 13.323 14.1364 13.1365 13.9063 13.1365H11.0417C10.8116 13.1365 10.625 13.323 10.625 13.5531Z" stroke="#00CE7C"/>
<path fill-rule="evenodd" clip-rule="evenodd" d="M10.625 9.73769C10.625 9.96781 10.8116 10.1544 11.0417 10.1544H13.9063C14.1364 10.1544 14.3229 9.96781 14.3229 9.73769C14.3229 9.50757 14.1364 9.32102 13.9063 9.32102H11.0417C10.8116 9.32102 10.625 9.50757 10.625 9.73769Z" stroke="#00CE7C"/>
<path fill-rule="evenodd" clip-rule="evenodd" d="M6.56652 10.9313C6.70606 10.9476 6.84437 10.8924 6.93441 10.7845L8.2365 9.22525C8.38399 9.04862 8.36038 8.78586 8.18374 8.63836C8.00711 8.49086 7.74435 8.51448 7.59686 8.69111L6.7023 9.76236L6.46628 9.29129C6.3632 9.08555 6.11285 9.00233 5.90711 9.10542C5.70137 9.2085 5.61815 9.45885 5.72124 9.66459L6.24207 10.7041C6.305 10.8297 6.42698 10.9151 6.56652 10.9313Z" stroke="#00CE7C"/>
<path fill-rule="evenodd" clip-rule="evenodd" d="M7.63803 14.7628C7.82528 14.629 7.86865 14.3688 7.7349 14.1815L6.43282 12.3586C6.29906 12.1714 6.03883 12.128 5.85158 12.2617C5.66432 12.3955 5.62095 12.6557 5.7547 12.843L7.05679 14.6659C7.19054 14.8531 7.45077 14.8965 7.63803 14.7628Z" stroke="#00CE7C"/>
<path fill-rule="evenodd" clip-rule="evenodd" d="M5.85158 14.7628C6.03883 14.8965 6.29906 14.8531 6.43282 14.6659L7.7349 12.843C7.86865 12.6557 7.82528 12.3955 7.63803 12.2617C7.45077 12.128 7.19054 12.1714 7.05679 12.3586L5.7547 14.1815C5.62095 14.3688 5.66432 14.629 5.85158 14.7628Z" stroke="#00CE7C"/>
</svg>
