<svg width="20" height="20" viewBox="0 0 20 20" fill="none" xmlns="http://www.w3.org/2000/svg">
<path d="M14.7773 5.05033C13.5799 4.06044 12.0696 3.43515 10.4167 3.3447V5.41667H9.58342V3.3447C7.93058 3.43515 6.42033 4.06043 5.22291 5.05029L6.47325 6.30054L5.884 6.88983L4.6105 5.61637C3.48472 6.77879 2.73207 8.30429 2.54542 10H4.18871V10.8333H2.50008C2.50111 12.5842 3.10244 14.1942 4.11015 15.4697L5.32612 14.2537L5.91537 14.843L4.66321 16.0952L4.67104 16.1031L4.07912 16.6897C2.58825 15.1853 1.66675 13.1142 1.66675 10.8288C1.66675 6.22875 5.39791 2.5 10.0001 2.5C14.6022 2.5 18.3334 6.22875 18.3334 10.8288C18.3334 13.1765 17.361 15.2978 15.7981 16.8113L15.2184 16.2126L15.2236 16.2075L13.7748 14.7587L14.3641 14.1695L15.7892 15.5946C16.8575 14.3 17.499 12.6418 17.5001 10.8333H15.7019V10H17.4547C17.2681 8.30429 16.5155 6.77883 15.3897 5.61642L14.1667 6.83925L13.5775 6.24996L14.7773 5.05033Z" fill="#00CE7C"/>
<path d="M8.59452 15.7102C8.58273 15.8737 8.63098 16.0357 8.73023 16.1661L9.53123 17.0875C10.0002 17.2919 10.2085 17.2919 10.6013 17.0875L11.4023 16.1661C11.5015 16.0357 11.5498 15.8737 11.538 15.7102L10.5458 9.95936C10.4857 9.12732 9.64198 9.11978 9.58185 9.95178L8.59452 15.7102Z" fill="#00CE7C"/>
</svg>
