<svg width="20" height="20" viewBox="0 0 20 20" fill="none" xmlns="http://www.w3.org/2000/svg">
<path fill-rule="evenodd" clip-rule="evenodd" d="M3.59379 15.8921C3.59379 17.201 4.65469 18.2619 5.96358 18.2619H14.0365C15.3454 18.2619 16.4063 17.201 16.4063 15.8921V5.70329C16.4063 4.44716 15.4295 3.41994 14.194 3.33895C13.9643 3.32389 13.766 3.49784 13.7509 3.72746C13.7359 3.95709 13.9098 4.15544 14.1395 4.17049C14.9397 4.22296 15.573 4.8891 15.573 5.70329V15.8921C15.573 16.7407 14.8852 17.4285 14.0365 17.4285H5.96358C5.11493 17.4285 4.42712 16.7407 4.42712 15.8921V5.70329C4.42712 4.8891 5.06036 4.22296 5.86063 4.17049C6.09026 4.15544 6.2642 3.95709 6.24915 3.72746C6.23409 3.49784 6.03574 3.32389 5.80612 3.33895C4.57058 3.41994 3.59379 4.44716 3.59379 5.70329V15.8921Z" fill="#DA01C4"/>
<path fill-rule="evenodd" clip-rule="evenodd" d="M6.80994 4.896C6.50073 4.896 6.25004 4.64531 6.25004 4.3361V3.13167C6.25004 2.82247 6.50073 2.57178 6.80994 2.57178H13.1901C13.4994 2.57178 13.75 2.82247 13.75 3.13167V4.3361C13.75 4.64531 13.4994 4.896 13.1901 4.896H6.80994ZM5.41671 4.3361C5.41671 5.10554 6.0405 5.72933 6.80994 5.72933H13.1901C13.9596 5.72933 14.5834 5.10554 14.5834 4.3361V3.13167C14.5834 2.36223 13.9596 1.73844 13.1901 1.73844H6.80994C6.0405 1.73844 5.41671 2.36223 5.41671 3.13167V4.3361Z" fill="#DA01C4"/>
<path fill-rule="evenodd" clip-rule="evenodd" d="M6.80994 1.84261C6.09802 1.84261 5.52087 2.41976 5.52087 3.13167V3.26912C5.61204 3.25266 5.70495 3.24119 5.7993 3.235C5.92853 3.22653 6.04984 3.26595 6.14587 3.33804V3.13167C6.14587 2.76494 6.4432 2.46761 6.80994 2.46761H13.1901C13.5569 2.46761 13.8542 2.76494 13.8542 3.13167V3.33804C13.9502 3.26595 14.0716 3.22653 14.2008 3.235C14.2951 3.24119 14.388 3.25266 14.4792 3.26912V3.13167C14.4792 2.41976 13.9021 1.84261 13.1901 1.84261H6.80994ZM14.6875 3.31615V3.13167C14.6875 2.3047 14.0171 1.63428 13.1901 1.63428H6.80994C5.98297 1.63428 5.31254 2.3047 5.31254 3.13167V3.31615C4.26195 3.60182 3.48962 4.56203 3.48962 5.70329V15.8921C3.48962 17.2585 4.59716 18.366 5.96358 18.366H14.0365C15.4029 18.366 16.5105 17.2585 16.5105 15.8921V5.70329C16.5105 4.56203 15.7381 3.60182 14.6875 3.31615ZM14.4792 3.48115C14.3839 3.46229 14.2864 3.44939 14.1872 3.44289C14.0149 3.4316 13.8662 3.56206 13.8549 3.73428C13.8545 3.74035 13.8543 3.74639 13.8542 3.7524V3.75765C13.8556 3.91976 13.9819 4.05577 14.1463 4.06655C14.2609 4.07406 14.3722 4.09335 14.4792 4.12322V3.48115ZM14.6875 4.19699V3.53282C15.6216 3.81237 16.3021 4.67811 16.3021 5.70329V15.8921C16.3021 17.1435 15.2879 18.1577 14.0365 18.1577H5.96358C4.71222 18.1577 3.69796 17.1435 3.69796 15.8921V5.70329C3.69796 4.67811 4.37853 3.81238 5.31254 3.53282V4.19699C4.73041 4.44877 4.32296 5.02839 4.32296 5.70329V15.8921C4.32296 16.7983 5.0574 17.5327 5.96358 17.5327H14.0365C14.9427 17.5327 15.6771 16.7983 15.6771 15.8921V5.70329C15.6771 5.02839 15.2697 4.44877 14.6875 4.19699ZM14.4792 4.3408C14.3689 4.30504 14.2528 4.28231 14.1326 4.27444C14.0278 4.26757 13.9323 4.23016 13.8542 4.17146V4.3361C13.8542 4.70283 13.5569 5.00016 13.1901 5.00016H6.80994C6.4432 5.00016 6.14587 4.70283 6.14587 4.3361V4.17146C6.06775 4.23016 5.97223 4.26757 5.86745 4.27444C5.74728 4.28231 5.63115 4.30504 5.52088 4.3408C5.52342 5.05055 6.09959 5.62516 6.80994 5.62516H13.1901C13.9005 5.62516 14.4767 5.05055 14.4792 4.3408ZM5.31519 4.42584C5.3616 5.21104 6.0131 5.8335 6.80994 5.8335H13.1901C13.987 5.8335 14.6385 5.21103 14.6849 4.42584C15.15 4.66226 15.4688 5.14552 15.4688 5.70329V15.8921C15.4688 16.6832 14.8276 17.3244 14.0365 17.3244H5.96358C5.17245 17.3244 4.53129 16.6832 4.53129 15.8921V5.70329C4.53129 5.14552 4.85011 4.66227 5.31519 4.42584ZM5.52087 4.12322C5.62785 4.09335 5.73923 4.07406 5.85382 4.06655C6.01815 4.05578 6.14446 3.91983 6.14587 3.75777V3.75228C6.14582 3.74631 6.1456 3.74031 6.14521 3.73428C6.13391 3.56206 5.98515 3.4316 5.81293 3.44289C5.7137 3.44939 5.61621 3.46229 5.52087 3.48116V4.12322ZM6.35421 3.75978V4.3361C6.35421 4.58778 6.55826 4.79183 6.80994 4.79183H13.1901C13.4418 4.79183 13.6459 4.58778 13.6459 4.3361V3.75962C13.6459 3.7567 13.6459 3.75378 13.6459 3.75085V3.13167C13.6459 2.88 13.4418 2.67594 13.1901 2.67594H6.80994C6.55826 2.67594 6.35421 2.88 6.35421 3.13167V3.75069C6.35423 3.75372 6.35423 3.75675 6.35421 3.75978Z" fill="#DA01C4"/>
<path fill-rule="evenodd" clip-rule="evenodd" d="M10.6251 13.5531C10.6251 13.7832 10.8117 13.9698 11.0418 13.9698H13.9064C14.1365 13.9698 14.323 13.7832 14.323 13.5531C14.323 13.323 14.1365 13.1365 13.9064 13.1365H11.0418C10.8117 13.1365 10.6251 13.323 10.6251 13.5531Z" fill="#DA01C4"/>
<path fill-rule="evenodd" clip-rule="evenodd" d="M10.6251 9.73769C10.6251 9.96781 10.8117 10.1544 11.0418 10.1544H13.9064C14.1365 10.1544 14.323 9.96781 14.323 9.73769C14.323 9.50757 14.1365 9.32102 13.9064 9.32102H11.0418C10.8117 9.32102 10.6251 9.50757 10.6251 9.73769Z" fill="#DA01C4"/>
<path fill-rule="evenodd" clip-rule="evenodd" d="M6.56664 10.9313C6.70618 10.9476 6.84449 10.8924 6.93454 10.7845L8.23662 9.22525C8.38412 9.04862 8.3605 8.78586 8.18387 8.63836C8.00723 8.49086 7.74447 8.51448 7.59698 8.69111L6.70243 9.76236L6.46641 9.29129C6.36332 9.08555 6.11297 9.00233 5.90723 9.10542C5.7015 9.2085 5.61828 9.45885 5.72136 9.66459L6.24219 10.7041C6.30512 10.8297 6.4271 10.9151 6.56664 10.9313Z" fill="#DA01C4"/>
<path fill-rule="evenodd" clip-rule="evenodd" d="M7.63815 14.7628C7.8254 14.629 7.86877 14.3688 7.73502 14.1815L6.43294 12.3586C6.29918 12.1714 6.03895 12.128 5.8517 12.2617C5.66444 12.3955 5.62107 12.6557 5.75483 12.843L7.05691 14.6659C7.19066 14.8531 7.45089 14.8965 7.63815 14.7628Z" fill="#DA01C4"/>
<path fill-rule="evenodd" clip-rule="evenodd" d="M5.8517 14.7628C6.03895 14.8965 6.29918 14.8531 6.43294 14.6659L7.73502 12.843C7.86877 12.6557 7.8254 12.3955 7.63815 12.2617C7.45089 12.128 7.19066 12.1714 7.05691 12.3586L5.75483 14.1815C5.62107 14.3688 5.66444 14.629 5.8517 14.7628Z" fill="#DA01C4"/>
<path fill-rule="evenodd" clip-rule="evenodd" d="M10.6251 13.5531C10.6251 13.7832 10.8117 13.9698 11.0418 13.9698H13.9064C14.1365 13.9698 14.323 13.7832 14.323 13.5531C14.323 13.323 14.1365 13.1365 13.9064 13.1365H11.0418C10.8117 13.1365 10.6251 13.323 10.6251 13.5531Z" stroke="#DA01C4"/>
<path fill-rule="evenodd" clip-rule="evenodd" d="M10.6251 9.73769C10.6251 9.96781 10.8117 10.1544 11.0418 10.1544H13.9064C14.1365 10.1544 14.323 9.96781 14.323 9.73769C14.323 9.50757 14.1365 9.32102 13.9064 9.32102H11.0418C10.8117 9.32102 10.6251 9.50757 10.6251 9.73769Z" stroke="#DA01C4"/>
<path fill-rule="evenodd" clip-rule="evenodd" d="M6.56664 10.9313C6.70618 10.9476 6.84449 10.8924 6.93454 10.7845L8.23662 9.22525C8.38412 9.04862 8.3605 8.78586 8.18387 8.63836C8.00723 8.49086 7.74447 8.51448 7.59698 8.69111L6.70243 9.76236L6.46641 9.29129C6.36332 9.08555 6.11297 9.00233 5.90723 9.10542C5.7015 9.2085 5.61828 9.45885 5.72136 9.66459L6.24219 10.7041C6.30512 10.8297 6.4271 10.9151 6.56664 10.9313Z" stroke="#DA01C4"/>
<path fill-rule="evenodd" clip-rule="evenodd" d="M7.63815 14.7628C7.8254 14.629 7.86877 14.3688 7.73502 14.1815L6.43294 12.3586C6.29918 12.1714 6.03895 12.128 5.8517 12.2617C5.66444 12.3955 5.62107 12.6557 5.75483 12.843L7.05691 14.6659C7.19066 14.8531 7.45089 14.8965 7.63815 14.7628Z" stroke="#DA01C4"/>
<path fill-rule="evenodd" clip-rule="evenodd" d="M5.8517 14.7628C6.03895 14.8965 6.29918 14.8531 6.43294 14.6659L7.73502 12.843C7.86877 12.6557 7.8254 12.3955 7.63815 12.2617C7.45089 12.128 7.19066 12.1714 7.05691 12.3586L5.75483 14.1815C5.62107 14.3688 5.66444 14.629 5.8517 14.7628Z" stroke="#DA01C4"/>
</svg>
