<svg width="20" height="21" viewBox="0 0 20 21" fill="none" xmlns="http://www.w3.org/2000/svg">
<path d="M16.4234 16.75H3.57627C2.52278 16.75 1.6665 15.8937 1.6665 14.8402V6.15976C1.6665 5.10627 2.52278 4.25 3.57627 4.25H16.4234C17.4769 4.25 18.3332 5.10627 18.3332 6.15976V14.8402C18.3332 15.8937 17.4769 16.75 16.4234 16.75ZM3.57627 5.29167C3.09778 5.29167 2.70817 5.68127 2.70817 6.15976V14.8402C2.70817 15.3187 3.09778 15.7083 3.57627 15.7083H16.4234C16.9019 15.7083 17.2915 15.3187 17.2915 14.8402V6.15976C17.2915 5.68127 16.9019 5.29167 16.4234 5.29167H3.57627Z" fill="#64748B"/>
<path d="M6.87479 10.5001C5.91781 10.5001 5.13873 9.72089 5.13873 8.76404C5.13873 7.80706 5.91781 7.02785 6.87479 7.02785C7.83178 7.02785 8.61086 7.80706 8.61086 8.76404C8.61086 9.72089 7.83178 10.5001 6.87479 10.5001ZM6.87479 8.06951C6.49218 8.06951 6.18039 8.3813 6.18039 8.76404C6.18039 9.14666 6.49218 9.45844 6.87479 9.45844C7.25741 9.45844 7.5692 9.14666 7.5692 8.76404C7.5692 8.3813 7.25741 8.06951 6.87479 8.06951Z" fill="#64748B"/>
<path d="M9.479 13.9724C9.1915 13.9724 8.95817 13.739 8.95817 13.4515V13.1043C8.95817 12.6258 8.56856 12.2362 8.09007 12.2362H5.6596C5.18111 12.2362 4.7915 12.6258 4.7915 13.1043V13.4515C4.7915 13.739 4.55817 13.9724 4.27067 13.9724C3.98317 13.9724 3.74984 13.739 3.74984 13.4515V13.1043C3.74984 12.0508 4.60611 11.1945 5.6596 11.1945H8.09007C9.14357 11.1945 9.99984 12.0508 9.99984 13.1043V13.4515C9.99984 13.739 9.76651 13.9724 9.479 13.9724Z" fill="#64748B"/>
<path d="M15.729 8.41673H11.9096C11.6221 8.41673 11.3887 8.1834 11.3887 7.8959C11.3887 7.6084 11.6221 7.37507 11.9096 7.37507H15.729C16.0165 7.37507 16.2498 7.6084 16.2498 7.8959C16.2498 8.1834 16.0165 8.41673 15.729 8.41673Z" fill="#64748B"/>
<path d="M15.729 11.1945H11.9096C11.6221 11.1945 11.3887 10.9612 11.3887 10.6737C11.3887 10.3862 11.6221 10.1528 11.9096 10.1528H15.729C16.0165 10.1528 16.2498 10.3862 16.2498 10.6737C16.2498 10.9612 16.0165 11.1945 15.729 11.1945Z" fill="#64748B"/>
<path d="M15.729 13.9723H11.9096C11.6221 13.9723 11.3887 13.739 11.3887 13.4515C11.3887 13.164 11.6221 12.9306 11.9096 12.9306H15.729C16.0165 12.9306 16.2498 13.164 16.2498 13.4515C16.2498 13.739 16.0165 13.9723 15.729 13.9723Z" fill="#64748B"/>
</svg>
