<svg width="20" height="19" viewBox="0 0 20 19" fill="none" xmlns="http://www.w3.org/2000/svg">
<path d="M16.4234 15.1548H3.57627C2.52278 15.1548 1.6665 14.38 1.6665 13.4268V5.57312C1.6665 4.61996 2.52278 3.84524 3.57627 3.84524H16.4234C17.4769 3.84524 18.3332 4.61996 18.3332 5.57312V13.4268C18.3332 14.38 17.4769 15.1548 16.4234 15.1548ZM3.57627 4.7877C3.09778 4.7877 2.70817 5.1402 2.70817 5.57312V13.4268C2.70817 13.8598 3.09778 14.2123 3.57627 14.2123H16.4234C16.9019 14.2123 17.2915 13.8598 17.2915 13.4268V5.57312C17.2915 5.1402 16.9019 4.7877 16.4234 4.7877H3.57627Z" fill="#00CE7C"/>
<path d="M6.87479 9.50009C5.91781 9.50009 5.13873 8.79509 5.13873 7.92937C5.13873 7.06353 5.91781 6.35853 6.87479 6.35853C7.83178 6.35853 8.61086 7.06353 8.61086 7.92937C8.61086 8.79509 7.83178 9.50009 6.87479 9.50009ZM6.87479 7.30098C6.49218 7.30098 6.18039 7.58308 6.18039 7.92937C6.18039 8.27555 6.49218 8.55763 6.87479 8.55763C7.25741 8.55763 7.5692 8.27555 7.5692 7.92937C7.5692 7.58308 7.25741 7.30098 6.87479 7.30098Z" fill="#00CE7C"/>
<path d="M9.47901 12.6417C9.19151 12.6417 8.95818 12.4305 8.95818 12.1704V11.8563C8.95818 11.4233 8.56857 11.0708 8.09008 11.0708H5.65961C5.18112 11.0708 4.79151 11.4233 4.79151 11.8563V12.1704C4.79151 12.4305 4.55818 12.6417 4.27068 12.6417C3.98318 12.6417 3.74985 12.4305 3.74985 12.1704V11.8563C3.74985 10.9031 4.60612 10.1284 5.65961 10.1284H8.09008C9.14358 10.1284 9.99985 10.9031 9.99985 11.8563V12.1704C9.99985 12.4305 9.76652 12.6417 9.47901 12.6417Z" fill="#00CE7C"/>
<path d="M15.729 7.61514H11.9096C11.6221 7.61514 11.3887 7.40403 11.3887 7.14391C11.3887 6.88379 11.6221 6.67268 11.9096 6.67268H15.729C16.0165 6.67268 16.2498 6.88379 16.2498 7.14391C16.2498 7.40403 16.0165 7.61514 15.729 7.61514Z" fill="#00CE7C"/>
<path d="M15.729 10.1284H11.9096C11.6221 10.1284 11.3887 9.91728 11.3887 9.65716C11.3887 9.39704 11.6221 9.18587 11.9096 9.18587H15.729C16.0165 9.18587 16.2498 9.39704 16.2498 9.65716C16.2498 9.91728 16.0165 10.1284 15.729 10.1284Z" fill="#00CE7C"/>
<path d="M15.729 12.6416H11.9096C11.6221 12.6416 11.3887 12.4305 11.3887 12.1704C11.3887 11.9103 11.6221 11.6991 11.9096 11.6991H15.729C16.0165 11.6991 16.2498 11.9103 16.2498 12.1704C16.2498 12.4305 16.0165 12.6416 15.729 12.6416Z" fill="#00CE7C"/>
</svg>
