<svg width="16" height="14" viewBox="0 0 16 14" fill="none" xmlns="http://www.w3.org/2000/svg">
<path fill-rule="evenodd" clip-rule="evenodd" d="M8.00004 1.47635C7.21912 1.47635 6.59394 1.72622 5.10279 2.34332L3.03454 3.19923C2.29042 3.50717 1.7748 3.72137 1.44058 3.90265C1.40792 3.92036 1.37849 3.93699 1.35201 3.95254C1.37849 3.96809 1.40792 3.98472 1.44058 4.00244C1.7748 4.18372 2.29042 4.39792 3.03454 4.70586L5.10279 5.56177C6.59394 6.17886 7.21912 6.42873 8.00004 6.42873C8.78096 6.42873 9.40613 6.17886 10.8973 5.56177L12.9655 4.70586C13.7097 4.39792 14.2253 4.18372 14.5595 4.00244C14.5922 3.98472 14.6216 3.96809 14.6481 3.95254C14.6216 3.93699 14.5922 3.92036 14.5595 3.90265C14.2253 3.72137 13.7097 3.50717 12.9655 3.19923L10.8973 2.34332C9.40613 1.72622 8.78096 1.47635 8.00004 1.47635ZM4.77771 1.24694C6.15984 0.674798 6.98432 0.333496 8.00004 0.333496C9.01575 0.333496 9.84023 0.674797 11.2224 1.24694C11.2505 1.2586 11.2789 1.27035 11.3075 1.2822L13.4092 2.15193C14.1122 2.44284 14.6816 2.67846 15.0724 2.89046C15.2702 2.99775 15.4618 3.11938 15.6096 3.26602C15.7614 3.41668 15.9167 3.64517 15.9167 3.95254C15.9167 4.25991 15.7614 4.4884 15.6096 4.63907C15.4618 4.7857 15.2702 4.90734 15.0724 5.01463C14.6816 5.22663 14.1122 5.46224 13.4092 5.75315L11.3075 6.62289C11.2789 6.63474 11.2505 6.64649 11.2224 6.65815C9.84023 7.23029 9.01575 7.57159 8.00004 7.57159C6.98433 7.57159 6.15984 7.23029 4.77772 6.65815C4.74956 6.64649 4.72116 6.63474 4.69253 6.62289L2.59089 5.75316C1.88791 5.46225 1.31853 5.22663 0.92767 5.01463C0.729863 4.90734 0.538236 4.7857 0.390472 4.63907C0.238649 4.4884 0.083374 4.25991 0.083374 3.95254C0.083374 3.64517 0.238649 3.41668 0.390472 3.26602C0.538235 3.11938 0.729863 2.99775 0.92767 2.89046C1.31853 2.67846 1.88791 2.44284 2.5909 2.15193L4.69253 1.2822C4.72116 1.27035 4.74955 1.2586 4.77771 1.24694Z" fill="#8C62FF"/>
<path fill-rule="evenodd" clip-rule="evenodd" d="M1.0043 6.5746V6.5746L1.00327 6.57365L1.00584 6.57597C1.00908 6.57887 1.01513 6.58423 1.02396 6.59186C1.04164 6.60714 1.0705 6.6315 1.11054 6.66351C1.19063 6.72754 1.31535 6.8221 1.48466 6.93571C1.82331 7.16293 2.33995 7.46603 3.03454 7.75348L5.10279 8.60939C6.59394 9.22648 7.21912 9.47635 8.00004 9.47635C8.78096 9.47635 9.40613 9.22648 10.8973 8.60939L12.9655 7.75348C13.6601 7.46603 14.1768 7.16293 14.5154 6.93571C14.6847 6.8221 14.8094 6.72754 14.8895 6.66351C14.9296 6.6315 14.9584 6.60714 14.9761 6.59186C14.9849 6.58423 14.991 6.57887 14.9942 6.57597L14.9958 6.5746L14.997 6.5735C15.2241 6.36415 15.5722 6.38415 15.7755 6.61859C15.9792 6.85351 15.9603 7.21479 15.7332 7.42552L15.3644 7.00016C15.7332 7.42552 15.7332 7.42552 15.7332 7.42552L15.7322 7.42647L15.7309 7.42766L15.7275 7.43078L15.7174 7.4399C15.7092 7.44723 15.6981 7.45704 15.6841 7.46915C15.6561 7.49335 15.6164 7.52674 15.565 7.56781C15.4623 7.64993 15.3128 7.76286 15.1165 7.89457C14.7239 8.15798 14.1437 8.49682 13.3758 8.81459L11.3075 9.67051C11.2789 9.68235 11.2505 9.69411 11.2224 9.70577C9.84023 10.2779 9.01575 10.6192 8.00004 10.6192C6.98433 10.6192 6.15984 10.2779 4.77772 9.70576C4.74956 9.69411 4.72116 9.68235 4.69253 9.67051L2.62428 8.81459C1.8564 8.49682 1.27619 8.15798 0.883596 7.89457C0.68729 7.76286 0.537792 7.64993 0.435071 7.56781C0.383704 7.52674 0.344011 7.49335 0.315988 7.46915C0.301976 7.45704 0.290878 7.44723 0.282695 7.4399L0.272605 7.43078L0.269198 7.42766L0.267904 7.42647L0.267112 7.42574C0.267112 7.42574 0.266882 7.42552 0.635699 7.00016L0.267112 7.42574C0.0400449 7.215 0.0208659 6.85351 0.224558 6.61859C0.427841 6.38414 0.776173 6.36426 1.00327 6.57365M1.0043 6.5746V6.5746Z" fill="#8C62FF"/>
<path fill-rule="evenodd" clip-rule="evenodd" d="M1.0043 9.62222V9.62222L1.00327 9.62127L1.00584 9.62358C1.00908 9.62649 1.01513 9.63185 1.02396 9.63948C1.04164 9.65476 1.0705 9.67912 1.11054 9.71113C1.19063 9.77516 1.31535 9.86972 1.48466 9.98333C1.82331 10.2105 2.33995 10.5136 3.03454 10.8011L5.10279 11.657C6.59394 12.2741 7.21912 12.524 8.00004 12.524C8.78096 12.524 9.40613 12.2741 10.8973 11.657L12.9655 10.8011C13.6601 10.5136 14.1768 10.2105 14.5154 9.98333C14.6847 9.86972 14.8094 9.77516 14.8895 9.71113C14.9296 9.67912 14.9584 9.65476 14.9761 9.63948C14.9849 9.63185 14.991 9.62649 14.9942 9.62358L14.9958 9.62222L14.997 9.62112C15.2241 9.41176 15.5722 9.43177 15.7755 9.66621C15.9792 9.90113 15.9603 10.2624 15.7332 10.4731L15.3644 10.0478C15.7332 10.4731 15.7332 10.4731 15.7332 10.4731L15.7322 10.4741L15.7309 10.4753L15.7275 10.4784L15.7174 10.4875C15.7092 10.4948 15.6981 10.5047 15.6841 10.5168C15.6561 10.541 15.6164 10.5744 15.565 10.6154C15.4623 10.6976 15.3128 10.8105 15.1165 10.9422C14.7239 11.2056 14.1437 11.5444 13.3758 11.8622L11.3075 12.7181C11.2789 12.73 11.2505 12.7417 11.2224 12.7534C9.84023 13.3255 9.01575 13.6668 8.00004 13.6668C6.98433 13.6668 6.15984 13.3255 4.77772 12.7534C4.74956 12.7417 4.72116 12.73 4.69253 12.7181L2.62428 11.8622C1.8564 11.5444 1.27619 11.2056 0.883596 10.9422C0.68729 10.8105 0.537792 10.6976 0.435071 10.6154C0.383704 10.5744 0.344011 10.541 0.315988 10.5168C0.301976 10.5047 0.290878 10.4948 0.282695 10.4875L0.272605 10.4784L0.269198 10.4753L0.267904 10.4741L0.267112 10.4734C0.267112 10.4734 0.266882 10.4731 0.635699 10.0478L0.267112 10.4734C0.0400449 10.2626 0.0208659 9.90113 0.224558 9.66621C0.427841 9.43176 0.776173 9.41188 1.00327 9.62127M1.0043 9.62222V9.62222Z" fill="#8C62FF"/>
</svg>
