<svg width="24" height="24" viewBox="0 0 24 24" fill="none" xmlns="http://www.w3.org/2000/svg">
<path fill-rule="evenodd" clip-rule="evenodd" d="M3.34524 5.023C2.73778 5.58706 2.33496 6.49911 2.33496 7.91998V13.07C2.33496 14.0969 2.54541 14.8551 2.88434 15.4043C3.21858 15.9459 3.70358 16.3269 4.33604 16.5636C4.52934 16.6337 4.72902 16.6909 4.9287 16.7229C4.94159 16.7249 4.95441 16.7274 4.96715 16.7303C5.31311 16.8081 5.69585 16.845 6.10995 16.845H14.9C16.1242 16.845 17.0488 16.5388 17.6647 15.967C18.2721 15.4029 18.675 14.4909 18.675 13.07V7.91998C18.675 7.49922 18.6308 7.12889 18.5655 6.75474C18.3774 5.81278 17.9485 5.18477 17.3634 4.78045C16.7633 4.36576 15.9379 4.14502 14.9 4.14502H6.10995C4.88576 4.14502 3.96108 4.45115 3.34524 5.023ZM2.49468 4.107C3.41883 3.24887 4.69415 2.89502 6.10995 2.89502H14.9C16.102 2.89502 17.2016 3.14927 18.074 3.75208C18.96 4.36429 19.5504 5.29425 19.793 6.51853L19.7958 6.53225C19.8699 6.95571 19.925 7.40336 19.925 7.91998V13.07C19.925 14.7291 19.4478 16.0171 18.5152 16.883C17.5911 17.7411 16.3158 18.095 14.9 18.095H6.10995C5.63078 18.095 5.16 18.0531 4.7116 17.954C4.41955 17.9057 4.14693 17.8249 3.90638 17.7374L3.90136 17.7356C3.03505 17.4122 2.3159 16.8634 1.82058 16.0607C1.32952 15.265 1.08496 14.2631 1.08496 13.07V7.91998C1.08496 6.26086 1.56214 4.97292 2.49468 4.107Z" fill="#292D32"/>
<path fill-rule="evenodd" clip-rule="evenodd" d="M18.7403 6.19705C18.8896 6.0485 19.1037 5.98515 19.3098 6.02854C20.374 6.25259 21.2972 6.75257 21.9482 7.59561C22.5966 8.43518 22.9261 9.55143 22.9261 10.9201V16.0701C22.9261 17.7293 22.4489 19.0172 21.5163 19.8831C20.5922 20.7412 19.3169 21.0951 17.9011 21.0951H9.11105C8.31865 21.0951 7.57034 20.9886 6.90191 20.7355C5.49906 20.2159 4.548 19.1232 4.21803 17.4619C4.17683 17.2545 4.24331 17.0403 4.39472 16.8927C4.54613 16.745 4.76193 16.684 4.96825 16.7304C5.3142 16.8082 5.69694 16.8451 6.11105 16.8451H14.9011C16.1253 16.8451 17.0499 16.539 17.6658 15.9671C18.2732 15.4031 18.6761 14.491 18.6761 13.0701V7.9201C18.6761 7.48594 18.6391 7.10861 18.5688 6.76573C18.5265 6.55939 18.5909 6.34561 18.7403 6.19705ZM19.9173 7.53562C19.9232 7.66109 19.9261 7.78915 19.9261 7.9201V13.0701C19.9261 14.7293 19.4489 16.0172 18.5163 16.8831C17.5922 17.7412 16.3169 18.0951 14.9011 18.0951H6.11105C5.97913 18.0951 5.84784 18.0919 5.71747 18.0853C6.05738 18.8254 6.6126 19.2958 7.33781 19.5639L7.34273 19.5658C7.83366 19.752 8.42445 19.8451 9.11105 19.8451H17.9011C19.1253 19.8451 20.0499 19.539 20.6658 18.9671C21.2732 18.4031 21.6761 17.491 21.6761 16.0701V10.9201C21.6761 9.74878 21.3955 8.92504 20.9589 8.35963C20.6895 8.01085 20.342 7.73601 19.9173 7.53562Z" fill="#292D32"/>
<path fill-rule="evenodd" clip-rule="evenodd" d="M10.4984 8.48486C9.38556 8.48486 8.4834 9.38702 8.4834 10.4999C8.4834 11.6127 9.38556 12.5149 10.4984 12.5149C11.6113 12.5149 12.5134 11.6127 12.5134 10.4999C12.5134 9.38702 11.6113 8.48486 10.4984 8.48486ZM7.2334 10.4999C7.2334 8.69667 8.6952 7.23486 10.4984 7.23486C12.3016 7.23486 13.7634 8.69667 13.7634 10.4999C13.7634 12.3031 12.3016 13.7649 10.4984 13.7649C8.6952 13.7649 7.2334 12.3031 7.2334 10.4999Z" fill="#292D32"/>
<path fill-rule="evenodd" clip-rule="evenodd" d="M4.77997 7.67499C5.12515 7.67499 5.40497 7.95481 5.40497 8.29999V12.7C5.40497 13.0452 5.12515 13.325 4.77997 13.325C4.43479 13.325 4.15497 13.0452 4.15497 12.7V8.29999C4.15497 7.95481 4.43479 7.67499 4.77997 7.67499Z" fill="#292D32"/>
<path fill-rule="evenodd" clip-rule="evenodd" d="M16.2217 7.67529C16.5669 7.67529 16.8467 7.95511 16.8467 8.30029V12.7003C16.8467 13.0455 16.5669 13.3253 16.2217 13.3253C15.8765 13.3253 15.5967 13.0455 15.5967 12.7003V8.30029C15.5967 7.95511 15.8765 7.67529 16.2217 7.67529Z" fill="#292D32"/>
</svg>
