<svg width="24" height="24" viewBox="0 0 24 24" fill="none" xmlns="http://www.w3.org/2000/svg">
<path fill-rule="evenodd" clip-rule="evenodd" d="M4.5008 9.00496C4.5008 4.74856 7.83222 1.25 11.9999 1.25C16.1676 1.25 19.4991 4.74856 19.4991 9.00496V9.70957C19.4991 10.4132 19.6998 11.0989 20.0732 11.6801L21.1806 13.4042C22.4499 15.3803 21.503 18.1022 19.2338 18.7446C14.4979 20.0851 9.50195 20.0851 4.76602 18.7446C2.49686 18.1022 1.54998 15.3803 2.81925 13.4042L3.92669 11.6801C4.30002 11.0989 4.5008 10.4132 4.5008 9.70957V9.00496ZM11.9999 2.75C8.71275 2.75 6.0008 5.5239 6.0008 9.00496V9.70957C6.0008 10.6972 5.71927 11.6648 5.18876 12.4907L4.08132 14.2149C3.32752 15.3884 3.92508 16.9476 5.17456 17.3013C9.64338 18.5662 14.3565 18.5662 18.8253 17.3013C20.0748 16.9476 20.6723 15.3884 19.9185 14.2149L18.8111 12.4907C18.2806 11.6648 17.9991 10.6972 17.9991 9.70957V9.00496C17.9991 5.5239 15.2871 2.75 11.9999 2.75Z" fill="#1C274C"/>
<path fill-rule="evenodd" clip-rule="evenodd" d="M11.9999 21.25C10.2228 21.25 8.74328 20.1805 8.20223 18.7368C8.05686 18.3489 7.62459 18.1523 7.23672 18.2977C6.84885 18.4431 6.65226 18.8753 6.79763 19.2632C7.56662 21.3151 9.62193 22.75 11.9999 22.75C14.3779 22.75 16.4332 21.3151 17.2022 19.2632C17.3476 18.8753 17.151 18.4431 16.7631 18.2977C16.3753 18.1523 15.943 18.3489 15.7976 18.7368C15.2566 20.1805 13.777 21.25 11.9999 21.25Z" fill="#1C274C"/>
</svg>
