<svg width="24" height="24" viewBox="0 0 24 24" fill="none" xmlns="http://www.w3.org/2000/svg">
<path fill-rule="evenodd" clip-rule="evenodd" d="M13.4374 4.27252C12.7641 3.2425 11.2359 3.24249 10.5626 4.27252L7.16316 9.47274L4.56478 8.00058C3.26302 7.26303 1.69785 8.41888 2.05047 9.85733L3.81575 17.0584C3.89523 17.3827 4.18964 17.6111 4.52808 17.6111H19.4719C19.8104 17.6111 20.1048 17.3827 20.1843 17.0584L21.9495 9.85733C22.3022 8.41887 20.737 7.26304 19.4352 8.00058L16.8368 9.47274L13.4374 4.27252Z" fill="#292D32"/>
<path d="M5.16032 19.0554C4.75559 19.0554 4.42749 19.3788 4.42749 19.7777C4.42749 20.1765 4.75559 20.4999 5.16032 20.4999H18.8397C19.2444 20.4999 19.5725 20.1765 19.5725 19.7777C19.5725 19.3788 19.2444 19.0554 18.8397 19.0554H5.16032Z" fill="#292D32"/>
</svg>
