<svg width="20" height="19" viewBox="0 0 20 19" fill="none" xmlns="http://www.w3.org/2000/svg">
<path fill-rule="evenodd" clip-rule="evenodd" d="M10.0001 2.4861C8.46699 2.4861 7.2334 3.7255 7.2334 5.25277C7.2334 6.73876 8.39327 7.94424 9.85804 8.01083C9.949 8.00465 10.0449 8.00433 10.136 8.01077C11.5992 7.94344 12.7599 6.73879 12.7667 5.25142C12.766 3.72569 11.526 2.4861 10.0001 2.4861ZM5.9834 5.25277C5.9834 3.03698 7.7748 1.2361 10.0001 1.2361C12.2168 1.2361 14.0167 3.03606 14.0167 5.25277V5.25537C14.0077 7.42236 12.2995 9.18896 10.1433 9.26144C10.1155 9.26237 10.0877 9.26145 10.0601 9.25869C10.0269 9.25537 9.97514 9.25483 9.92679 9.25923C9.901 9.26157 9.87509 9.26231 9.84921 9.26144C7.69348 9.18898 5.9834 7.42224 5.9834 5.25277Z" fill="#64748B"/>
<path fill-rule="evenodd" clip-rule="evenodd" d="M10.132 9.7821C11.6127 9.7821 13.1254 10.1536 14.2966 10.9358C15.3508 11.6375 15.9609 12.6257 15.9609 13.6947C15.9609 14.7636 15.3509 15.7535 14.2972 16.4589C13.1226 17.2449 11.6078 17.6187 10.1262 17.6187C8.64501 17.6187 7.13074 17.2452 5.95615 16.4595C4.90174 15.7578 4.2915 14.7695 4.2915 13.7004C4.2915 12.6315 4.90153 11.6416 5.95528 10.9362L5.95758 10.9346C7.13544 10.1537 8.65097 9.7821 10.132 9.7821ZM6.64949 11.9757C5.85549 12.5076 5.5415 13.1444 5.5415 13.7004C5.5415 14.2563 5.85533 14.8911 6.64915 15.4192L6.65052 15.4201C7.57652 16.0397 8.83484 16.3687 10.1262 16.3687C11.4176 16.3687 12.6758 16.0397 13.6018 15.4202C14.3967 14.8881 14.7109 14.251 14.7109 13.6947C14.7109 13.1388 14.3971 12.504 13.6033 11.9759L13.6024 11.9753C12.6805 11.3596 11.4241 11.0321 10.132 11.0321C8.84056 11.0321 7.57985 11.3592 6.64949 11.9757Z" fill="#64748B"/>
</svg>
