<svg width="20" height="21" viewBox="0 0 20 21" fill="none" xmlns="http://www.w3.org/2000/svg">
<path fill-rule="evenodd" clip-rule="evenodd" d="M10.0001 3.4861C8.46699 3.4861 7.2334 4.7255 7.2334 6.25277C7.2334 7.73876 8.39327 8.94424 9.85804 9.01083C9.949 9.00465 10.0449 9.00433 10.136 9.01077C11.5992 8.94344 12.7599 7.73879 12.7667 6.25142C12.766 4.72569 11.526 3.4861 10.0001 3.4861ZM5.9834 6.25277C5.9834 4.03698 7.7748 2.2361 10.0001 2.2361C12.2168 2.2361 14.0167 4.03606 14.0167 6.25277L14.0167 6.25537C14.0077 8.42236 12.2995 10.189 10.1433 10.2614C10.1155 10.2624 10.0877 10.2615 10.0601 10.2587C10.0269 10.2554 9.97514 10.2548 9.92679 10.2592C9.901 10.2616 9.87509 10.2623 9.84921 10.2614C7.69348 10.189 5.9834 8.42224 5.9834 6.25277Z" fill="#00CE7C"/>
<path fill-rule="evenodd" clip-rule="evenodd" d="M10.132 10.7821C11.6127 10.7821 13.1254 11.1536 14.2966 11.9358C15.3508 12.6375 15.9609 13.6257 15.9609 14.6947C15.9609 15.7636 15.3509 16.7535 14.2972 17.4589L14.297 17.459C13.1224 18.245 11.6078 18.6187 10.1262 18.6187C8.64501 18.6187 7.13074 18.2452 5.95615 17.4595C4.90174 16.7578 4.2915 15.7695 4.2915 14.7004C4.2915 13.6315 4.90153 12.6416 5.95528 11.9362L5.95758 11.9346L5.95758 11.9346C7.13544 11.1537 8.65097 10.7821 10.132 10.7821ZM6.64949 12.9757C5.85549 13.5076 5.5415 14.1444 5.5415 14.7004C5.5415 15.2563 5.85533 15.8911 6.64915 16.4192L6.65052 16.4201C7.57652 17.0397 8.83484 17.3687 10.1262 17.3687C11.4176 17.3687 12.6758 17.0397 13.6018 16.4202C14.3967 15.8881 14.7109 15.251 14.7109 14.6947C14.7109 14.1388 14.3971 13.504 13.6033 12.9759L13.6024 12.9753C12.6805 12.3596 11.4241 12.0321 10.132 12.0321C8.84056 12.0321 7.57985 12.3592 6.64949 12.9757Z" fill="#00CE7C"/>
</svg>
