<svg width="20" height="20" viewBox="0 0 20 20" fill="none" xmlns="http://www.w3.org/2000/svg">
<path d="M5.20825 5.83333C5.20825 5.48833 5.48825 5.20833 5.83325 5.20833H11.6666C12.0116 5.20833 12.2916 5.48833 12.2916 5.83333C12.2916 6.17833 12.0116 6.45833 11.6666 6.45833H5.83325C5.48825 6.45833 5.20825 6.17833 5.20825 5.83333ZM10.6249 8.33333C10.6249 7.98833 10.3449 7.70833 9.99992 7.70833H5.83325C5.48825 7.70833 5.20825 7.98833 5.20825 8.33333C5.20825 8.67833 5.48825 8.95833 5.83325 8.95833H9.99992C10.3449 8.95833 10.6249 8.67833 10.6249 8.33333ZM17.8999 9.5075L14.7916 12.6158V15.8333C14.7916 17.0975 13.8158 18.125 12.6166 18.125H4.88325C3.68409 18.125 2.70825 17.0975 2.70825 15.8333V4.16667C2.70825 2.9025 3.68409 1.875 4.88325 1.875H12.6166C13.8158 1.875 14.7916 2.9025 14.7916 4.16667V6.15833C15.6908 5.385 17.0474 5.41417 17.8999 6.26667C18.7933 7.16 18.7933 8.61417 17.8999 9.5075ZM13.5416 13.8658L12.9533 14.4542C12.6324 14.7758 12.2274 14.9925 11.7824 15.0808L9.94325 15.4483C9.87492 15.4625 9.80658 15.4683 9.73825 15.4683C9.46492 15.4683 9.19992 15.3608 9.00242 15.1633C8.75575 14.9167 8.64909 14.565 8.71742 14.2233L9.08492 12.3842C9.17325 11.9383 9.39075 11.5333 9.71159 11.2125L13.5399 7.38333V4.16583C13.5399 3.60083 13.1166 3.12417 12.6149 3.12417H4.88325C4.38159 3.12417 3.95825 3.60083 3.95825 4.16583V15.8325C3.95825 16.3975 4.38159 16.8742 4.88325 16.8742H12.6166C13.1183 16.8742 13.5416 16.3975 13.5416 15.8325V13.8658ZM17.0158 7.15C16.8124 6.94667 16.5458 6.845 16.2791 6.845C16.0124 6.845 15.7458 6.94667 15.5424 7.15L10.5958 12.0967C10.4499 12.2425 10.3516 12.4267 10.3108 12.6283L10.0041 14.1608L11.5366 13.8542C11.7383 13.8142 11.9224 13.715 12.0683 13.5692L17.0149 8.6225C17.4208 8.21667 17.4208 7.555 17.0149 7.14917L17.0158 7.15Z" fill="#0F172A"/>
</svg>
