<svg width="12" height="12" viewBox="0 0 12 12" fill="none" xmlns="http://www.w3.org/2000/svg">
<path d="M8.76502 3.885C8.73002 3.88 8.69502 3.88 8.66002 3.885C7.88502 3.86 7.27002 3.225 7.27002 2.445C7.27002 1.65 7.91502 1 8.71502 1C9.51002 1 10.16 1.645 10.16 2.445C10.155 3.225 9.54002 3.86 8.76502 3.885Z" fill="#A2A2A2"/>
<path d="M10.395 7.3502C9.83499 7.7252 9.04999 7.8652 8.32499 7.7702C8.51499 7.3602 8.61499 6.9052 8.61999 6.4252C8.61999 5.9252 8.50999 5.4502 8.29999 5.0352C9.03999 4.9352 9.82499 5.0752 10.39 5.4502C11.18 5.9702 11.18 6.8252 10.395 7.3502Z" fill="#A2A2A2"/>
<path d="M3.22002 3.885C3.25502 3.88 3.29002 3.88 3.32502 3.885C4.10002 3.86 4.71502 3.225 4.71502 2.445C4.71502 1.645 4.07002 1 3.27002 1C2.47502 1 1.83002 1.645 1.83002 2.445C1.83002 3.225 2.44502 3.86 3.22002 3.885Z" fill="#A2A2A2"/>
<path d="M3.275 6.42481C3.275 6.90981 3.38 7.36981 3.57 7.78481C2.865 7.85981 2.13 7.70981 1.59 7.35481C0.799998 6.82981 0.799998 5.97481 1.59 5.44981C2.125 5.08981 2.88 4.94481 3.59 5.02481C3.385 5.44481 3.275 5.91981 3.275 6.42481Z" fill="#A2A2A2"/>
<path d="M6.06002 7.935C6.02002 7.93 5.97502 7.93 5.93002 7.935C5.01002 7.905 4.27502 7.15 4.27502 6.22C4.28002 5.27 5.04502 4.5 6.00002 4.5C6.95002 4.5 7.72002 5.27 7.72002 6.22C7.71502 7.15 6.98502 7.905 6.06002 7.935Z" fill="#A2A2A2"/>
<path d="M4.43502 8.96982C3.68002 9.47482 3.68002 10.3048 4.43502 10.8048C5.29502 11.3798 6.70502 11.3798 7.56503 10.8048C8.32003 10.2998 8.32003 9.46982 7.56503 8.96982C6.71002 8.39482 5.30002 8.39482 4.43502 8.96982Z" fill="#A2A2A2"/>
</svg>
