<svg width="10" height="11" viewBox="0 0 10 11" fill="none" xmlns="http://www.w3.org/2000/svg">
<path d="M7.765 2.885C7.73 2.88 7.695 2.88 7.66 2.885C6.885 2.86 6.27 2.225 6.27 1.445C6.27 0.65 6.915 0 7.715 0C8.51 0 9.16 0.645 9.16 1.445C9.155 2.225 8.54 2.86 7.765 2.885Z" fill="#8C62FF"/>
<path d="M9.395 6.3502C8.835 6.7252 8.05 6.8652 7.325 6.7702C7.515 6.3602 7.615 5.9052 7.62 5.4252C7.62 4.9252 7.51 4.4502 7.3 4.0352C8.04 3.9352 8.825 4.0752 9.39 4.4502C10.18 4.9702 10.18 5.8252 9.395 6.3502Z" fill="#8C62FF"/>
<path d="M2.22 2.885C2.255 2.88 2.29 2.88 2.325 2.885C3.1 2.86 3.715 2.225 3.715 1.445C3.715 0.645 3.07 0 2.27 0C1.475 0 0.830002 0.645 0.830002 1.445C0.830002 2.225 1.445 2.86 2.22 2.885Z" fill="#8C62FF"/>
<path d="M2.275 5.42481C2.275 5.90981 2.38 6.36981 2.57 6.78481C1.865 6.85981 1.13 6.70981 0.589998 6.35481C-0.200002 5.82981 -0.200002 4.97481 0.589998 4.44981C1.125 4.08981 1.88 3.94481 2.59 4.02481C2.385 4.44481 2.275 4.91981 2.275 5.42481Z" fill="#8C62FF"/>
<path d="M5.05999 6.935C5.01999 6.93 4.97499 6.93 4.92999 6.935C4.00999 6.905 3.27499 6.15 3.27499 5.22C3.27999 4.27 4.04499 3.5 4.99999 3.5C5.94999 3.5 6.71999 4.27 6.71999 5.22C6.71499 6.15 5.98499 6.905 5.05999 6.935Z" fill="#8C62FF"/>
<path d="M3.43499 7.96982C2.67999 8.47482 2.67999 9.30482 3.43499 9.80482C4.29499 10.3798 5.70499 10.3798 6.56499 9.80482C7.31999 9.29982 7.31999 8.46982 6.56499 7.96982C5.70999 7.39482 4.29999 7.39482 3.43499 7.96982Z" fill="#8C62FF"/>
</svg>
