<svg width="13" height="12" viewBox="0 0 13 12" fill="none" xmlns="http://www.w3.org/2000/svg">
<path d="M7.94862 5.06925L7.01784 6.00003L7.94862 6.93081C8.01556 6.99814 8.05313 7.08923 8.05313 7.18417C8.05313 7.27911 8.01556 7.3702 7.94862 7.43753C7.88169 7.50392 7.79134 7.54135 7.69706 7.54175C7.64976 7.54202 7.60288 7.53296 7.55909 7.51507C7.51531 7.49719 7.47548 7.47084 7.44191 7.43753L6.51112 6.50675L5.58034 7.43753C5.54676 7.47084 5.50694 7.49719 5.46315 7.51507C5.41937 7.53296 5.37248 7.54202 5.32519 7.54175C5.23091 7.54135 5.14056 7.50392 5.07362 7.43753C5.03994 7.40412 5.0132 7.36437 4.99496 7.32058C4.97671 7.27679 4.96732 7.22982 4.96732 7.18237C4.96732 7.13493 4.97671 7.08796 4.99496 7.04417C5.0132 7.00037 5.03994 6.96063 5.07362 6.92722L6.0044 6.00003L5.07362 5.06925C5.036 5.03703 5.00545 4.99739 4.98388 4.9528C4.96231 4.90821 4.95019 4.85965 4.94827 4.81016C4.94636 4.76067 4.9547 4.71131 4.97277 4.66519C4.99084 4.61908 5.01824 4.57719 5.05326 4.54217C5.08829 4.50715 5.13017 4.47974 5.17629 4.46168C5.22241 4.44361 5.27176 4.43527 5.32125 4.43718C5.37074 4.43909 5.41931 4.45121 5.46389 4.47278C5.50848 4.49436 5.54813 4.52491 5.58034 4.56253L6.51112 5.49331L7.44191 4.56253C7.47412 4.52491 7.51377 4.49436 7.55835 4.47278C7.60294 4.45121 7.6515 4.43909 7.701 4.43718C7.75049 4.43527 7.79984 4.44361 7.84596 4.46168C7.89208 4.47974 7.93396 4.50715 7.96898 4.54217C8.004 4.57719 8.03141 4.61908 8.04948 4.66519C8.06755 4.71131 8.07588 4.76067 8.07397 4.81016C8.07206 4.85965 8.05994 4.90821 8.03837 4.9528C8.0168 4.99739 7.98624 5.03703 7.94862 5.06925ZM11.0105 4.75659V7.27222C11.0106 7.46105 10.9736 7.64806 10.9014 7.82256C10.8293 7.99707 10.7235 8.15565 10.59 8.28925L8.79315 10.0861C8.52202 10.3537 8.15702 10.5046 7.77612 10.5066H5.2605C4.8796 10.5046 4.5146 10.3537 4.24347 10.0861L2.44659 8.28925C2.31314 8.15565 2.20732 7.99707 2.13518 7.82256C2.06303 7.64806 2.02598 7.46105 2.02612 7.27222V4.75659C2.02879 4.56625 2.06924 4.37832 2.14512 4.20374C2.221 4.02915 2.3308 3.87137 2.46815 3.73956L4.26503 1.94269C4.39863 1.80924 4.55721 1.70342 4.73171 1.63127C4.90622 1.55913 5.09323 1.52207 5.28206 1.52222H7.79769C8.17858 1.52425 8.54359 1.67515 8.81472 1.94269L10.6116 3.73956C10.8732 4.01287 11.0166 4.3783 11.0105 4.75659ZM10.2917 4.75659C10.2909 4.56628 10.2147 4.38405 10.0797 4.24987L8.28284 2.453C8.14867 2.31802 7.96644 2.24177 7.77612 2.24097H5.2605C5.07018 2.24177 4.88795 2.31802 4.75378 2.453L2.9569 4.24987C2.82193 4.38405 2.74568 4.56628 2.74487 4.75659V7.27222C2.74565 7.37103 2.76679 7.46863 2.80698 7.55891C2.84718 7.64918 2.90555 7.7302 2.97847 7.7969L4.77534 9.59378C4.90952 9.72876 5.09174 9.80501 5.28206 9.80581H7.79769C7.89433 9.80264 7.98933 9.77999 8.07702 9.73924C8.16471 9.69848 8.24327 9.64045 8.308 9.56862L10.1049 7.77175C10.2399 7.63758 10.3161 7.45535 10.3169 7.26503L10.2917 4.75659Z" fill="#E50101"/>
</svg>
