<svg width="24" height="24" viewBox="0 0 24 24" fill="none" xmlns="http://www.w3.org/2000/svg">
<path d="M19.2755 18.228L16.507 15.4595C18.8266 12.5414 18.3776 8.27644 15.4595 5.9569C12.5414 3.63737 8.27644 4.16113 5.9569 7.00444C3.63737 9.92256 4.16113 14.1875 7.00444 16.507C9.47362 18.4525 12.9903 18.4525 15.4595 16.507L18.228 19.2755C18.5273 19.5748 18.9762 19.5748 19.2755 19.2755C19.5748 18.9762 19.5748 18.5273 19.2755 18.228ZM11.2694 16.507C8.35126 16.507 6.03173 14.1875 6.03173 11.2694C6.03173 8.35126 8.35126 6.03173 11.2694 6.03173C14.1875 6.03173 16.507 8.35126 16.507 11.2694C16.507 14.1875 14.1875 16.507 11.2694 16.507Z" fill="#8F92A1"/>
</svg>
