<svg width="16" height="15" viewBox="0 0 16 15" fill="none" xmlns="http://www.w3.org/2000/svg">
<path d="M8.46565 13.0369C8.17416 12.8833 7.82572 12.8832 7.53409 13.0365L4.65022 14.5527C3.91658 14.9384 3.05911 14.3155 3.19925 13.4985L3.75019 10.2868C3.80588 9.96219 3.69813 9.63094 3.4621 9.40119L1.12638 7.1276C0.532106 6.54914 0.859709 5.54032 1.68046 5.42137L4.90195 4.95449C5.22781 4.90726 5.50954 4.70265 5.65526 4.40739L7.09741 1.48523C7.46422 0.741977 8.52408 0.741975 8.89089 1.48523L10.333 4.40739C10.4788 4.70265 10.7605 4.90726 11.0864 4.95449L14.3078 5.42137C15.1286 5.54032 15.4562 6.54913 14.8619 7.1276L12.5262 9.40119C12.2902 9.63094 12.1824 9.96219 12.2381 10.2868L12.7887 13.4962C12.9289 14.3135 12.0705 14.9365 11.3369 14.5499L8.46565 13.0369Z" fill="#E6BB20"/>
</svg>
