<svg width="20" height="21" viewBox="0 0 20 21" fill="none" xmlns="http://www.w3.org/2000/svg">
<path fill-rule="evenodd" clip-rule="evenodd" d="M3.59373 16.3919C3.59373 17.7008 4.65463 18.7617 5.96352 18.7617H14.0364C15.3453 18.7617 16.4062 17.7008 16.4062 16.3919V6.20312C16.4062 4.94699 15.4294 3.91978 14.1939 3.83878C13.9643 3.82372 13.7659 3.99767 13.7509 4.22729C13.7358 4.45692 13.9098 4.65527 14.1394 4.67033C14.9397 4.72279 15.5729 5.38894 15.5729 6.20312V16.3919C15.5729 17.2406 14.8851 17.9284 14.0364 17.9284H5.96352C5.11486 17.9284 4.42706 17.2406 4.42706 16.3919V6.20312C4.42706 5.38894 5.0603 4.72279 5.86057 4.67033C6.0902 4.65527 6.26414 4.45692 6.24909 4.22729C6.23403 3.99767 6.03568 3.82372 5.80606 3.83878C4.57052 3.91978 3.59373 4.94699 3.59373 6.20312V16.3919Z" fill="#64748B"/>
<path fill-rule="evenodd" clip-rule="evenodd" d="M6.80988 5.39583C6.50067 5.39583 6.24998 5.14514 6.24998 4.83593V3.63151C6.24998 3.3223 6.50067 3.07161 6.80988 3.07161H13.1901C13.4993 3.07161 13.75 3.3223 13.75 3.63151V4.83593C13.75 5.14514 13.4993 5.39583 13.1901 5.39583H6.80988ZM5.41665 4.83593C5.41665 5.60537 6.04043 6.22916 6.80988 6.22916H13.1901C13.9595 6.22916 14.5833 5.60537 14.5833 4.83593V3.63151C14.5833 2.86206 13.9595 2.23828 13.1901 2.23828H6.80988C6.04043 2.23828 5.41665 2.86206 5.41665 3.63151V4.83593Z" fill="#64748B"/>
<path fill-rule="evenodd" clip-rule="evenodd" d="M6.80988 2.34244C6.09796 2.34244 5.52081 2.91959 5.52081 3.63151V3.76895C5.61198 3.75249 5.70489 3.74102 5.79924 3.73483C5.92847 3.72636 6.04978 3.76578 6.14581 3.83787V3.63151C6.14581 3.26477 6.44314 2.96744 6.80988 2.96744H13.1901C13.5568 2.96744 13.8541 3.26477 13.8541 3.63151V3.83787C13.9502 3.76578 14.0715 3.72636 14.2007 3.73483C14.2951 3.74102 14.388 3.75249 14.4791 3.76895V3.63151C14.4791 2.91959 13.902 2.34244 13.1901 2.34244H6.80988ZM14.6875 3.81599V3.63151C14.6875 2.80453 14.0171 2.13411 13.1901 2.13411H6.80988C5.9829 2.13411 5.31248 2.80453 5.31248 3.63151V3.81599C4.26189 4.10166 3.48956 5.06186 3.48956 6.20312V16.3919C3.48956 17.7583 4.5971 18.8659 5.96352 18.8659H14.0364C15.4029 18.8659 16.5104 17.7583 16.5104 16.3919V6.20312C16.5104 5.06186 15.7381 4.10166 14.6875 3.81599ZM14.4791 3.98099C14.3838 3.96212 14.2863 3.94923 14.1871 3.94272C14.0149 3.93143 13.8661 4.06189 13.8548 4.23411C13.8544 4.24018 13.8542 4.24623 13.8541 4.25224V4.25748C13.8555 4.41959 13.9818 4.55561 14.1462 4.56638C14.2608 4.57389 14.3722 4.59319 14.4791 4.62306V3.98099ZM14.6875 4.69682V4.03265C15.6215 4.31221 16.3021 5.17794 16.3021 6.20312V16.3919C16.3021 17.6433 15.2878 18.6575 14.0364 18.6575H5.96352C4.71216 18.6575 3.6979 17.6433 3.6979 16.3919V6.20312C3.6979 5.17794 4.37847 4.31221 5.31248 4.03265V4.69682C4.73035 4.9486 4.3229 5.52823 4.3229 6.20312V16.3919C4.3229 17.2981 5.05733 18.0325 5.96352 18.0325H14.0364C14.9426 18.0325 15.6771 17.2981 15.6771 16.3919V6.20312C15.6771 5.52823 15.2696 4.9486 14.6875 4.69682ZM14.4791 4.84064C14.3689 4.80487 14.2527 4.78215 14.1326 4.77427C14.0278 4.7674 13.9323 4.72999 13.8541 4.67129V4.83593C13.8541 5.20267 13.5568 5.5 13.1901 5.5H6.80988C6.44314 5.5 6.14581 5.20267 6.14581 4.83593V4.67129C6.06769 4.72999 5.97217 4.7674 5.86739 4.77427C5.74722 4.78215 5.63109 4.80487 5.52082 4.84064C5.52336 5.55039 6.09953 6.125 6.80988 6.125H13.1901C13.9004 6.125 14.4766 5.55039 14.4791 4.84064ZM5.31512 4.92568C5.36154 5.71087 6.01304 6.33333 6.80988 6.33333H13.1901C13.9869 6.33333 14.6384 5.71087 14.6848 4.92568C15.1499 5.1621 15.4687 5.64535 15.4687 6.20312V16.3919C15.4687 17.1831 14.8276 17.8242 14.0364 17.8242H5.96352C5.17239 17.8242 4.53123 17.1831 4.53123 16.3919V6.20312C4.53123 5.64535 4.85005 5.1621 5.31512 4.92568ZM5.52081 4.62306C5.62779 4.59319 5.73917 4.57389 5.85376 4.56638C6.01809 4.55561 6.1444 4.41966 6.14581 4.2576V4.25211C6.14576 4.24614 6.14554 4.24014 6.14514 4.23411C6.13385 4.06189 5.98509 3.93143 5.81287 3.94272C5.71364 3.94923 5.61615 3.96212 5.52081 3.98099V4.62306ZM6.35415 4.25961V4.83593C6.35415 5.08761 6.5582 5.29166 6.80988 5.29166H13.1901C13.4418 5.29166 13.6458 5.08761 13.6458 4.83593V4.25945C13.6458 4.25653 13.6458 4.25361 13.6458 4.25068V3.63151C13.6458 3.37983 13.4418 3.17578 13.1901 3.17578H6.80988C6.5582 3.17578 6.35415 3.37983 6.35415 3.63151V4.25052C6.35417 4.25356 6.35417 4.25658 6.35415 4.25961Z" fill="#64748B"/>
<path fill-rule="evenodd" clip-rule="evenodd" d="M10.6251 14.0533C10.6251 14.2834 10.8116 14.47 11.0417 14.47H13.9063C14.1364 14.47 14.323 14.2834 14.323 14.0533C14.323 13.8232 14.1364 13.6366 13.9063 13.6366H11.0417C10.8116 13.6366 10.6251 13.8232 10.6251 14.0533Z" fill="#64748B"/>
<path fill-rule="evenodd" clip-rule="evenodd" d="M10.6251 10.2379C10.6251 10.468 10.8116 10.6545 11.0417 10.6545H13.9063C14.1364 10.6545 14.323 10.468 14.323 10.2379C14.323 10.0077 14.1364 9.82119 13.9063 9.82119H11.0417C10.8116 9.82119 10.6251 10.0077 10.6251 10.2379Z" fill="#64748B"/>
<path fill-rule="evenodd" clip-rule="evenodd" d="M6.56658 11.4315C6.70612 11.4477 6.84443 11.3925 6.93447 11.2847L8.23656 9.72542C8.38406 9.54878 8.36044 9.28603 8.18381 9.13853C8.00717 8.99103 7.74441 9.01465 7.59692 9.19128L6.70236 10.2625L6.46634 9.79146C6.36326 9.58572 6.11291 9.5025 5.90717 9.60558C5.70143 9.70867 5.61821 9.95902 5.7213 10.1648L6.24213 11.2043C6.30506 11.3299 6.42704 11.4153 6.56658 11.4315Z" fill="#64748B"/>
<path fill-rule="evenodd" clip-rule="evenodd" d="M7.63809 15.2629C7.82534 15.1292 7.86871 14.8689 7.73496 14.6817L6.43288 12.8588C6.29912 12.6715 6.03889 12.6281 5.85164 12.7619C5.66438 12.8957 5.62101 13.1559 5.75476 13.3431L7.05685 15.1661C7.1906 15.3533 7.45083 15.3967 7.63809 15.2629Z" fill="#64748B"/>
<path fill-rule="evenodd" clip-rule="evenodd" d="M5.85164 15.2629C6.03889 15.3967 6.29912 15.3533 6.43288 15.1661L7.73496 13.3431C7.86871 13.1559 7.82534 12.8957 7.63809 12.7619C7.45083 12.6281 7.1906 12.6715 7.05685 12.8588L5.75476 14.6817C5.62101 14.8689 5.66438 15.1292 5.85164 15.2629Z" fill="#64748B"/>
<path fill-rule="evenodd" clip-rule="evenodd" d="M10.6251 14.0533C10.6251 14.2834 10.8116 14.47 11.0417 14.47H13.9063C14.1364 14.47 14.323 14.2834 14.323 14.0533C14.323 13.8232 14.1364 13.6366 13.9063 13.6366H11.0417C10.8116 13.6366 10.6251 13.8232 10.6251 14.0533Z" stroke="#64748B"/>
<path fill-rule="evenodd" clip-rule="evenodd" d="M10.6251 10.2379C10.6251 10.468 10.8116 10.6545 11.0417 10.6545H13.9063C14.1364 10.6545 14.323 10.468 14.323 10.2379C14.323 10.0077 14.1364 9.82119 13.9063 9.82119H11.0417C10.8116 9.82119 10.6251 10.0077 10.6251 10.2379Z" stroke="#64748B"/>
<path fill-rule="evenodd" clip-rule="evenodd" d="M6.56658 11.4315C6.70612 11.4477 6.84443 11.3925 6.93447 11.2847L8.23656 9.72542C8.38406 9.54878 8.36044 9.28603 8.18381 9.13853C8.00717 8.99103 7.74441 9.01465 7.59692 9.19128L6.70236 10.2625L6.46634 9.79146C6.36326 9.58572 6.11291 9.5025 5.90717 9.60558C5.70143 9.70867 5.61821 9.95902 5.7213 10.1648L6.24213 11.2043C6.30506 11.3299 6.42704 11.4153 6.56658 11.4315Z" stroke="#64748B"/>
<path fill-rule="evenodd" clip-rule="evenodd" d="M7.63809 15.2629C7.82534 15.1292 7.86871 14.8689 7.73496 14.6817L6.43288 12.8588C6.29912 12.6715 6.03889 12.6281 5.85164 12.7619C5.66438 12.8957 5.62101 13.1559 5.75476 13.3431L7.05685 15.1661C7.1906 15.3533 7.45083 15.3967 7.63809 15.2629Z" stroke="#64748B"/>
<path fill-rule="evenodd" clip-rule="evenodd" d="M5.85164 15.2629C6.03889 15.3967 6.29912 15.3533 6.43288 15.1661L7.73496 13.3431C7.86871 13.1559 7.82534 12.8957 7.63809 12.7619C7.45083 12.6281 7.1906 12.6715 7.05685 12.8588L5.75476 14.6817C5.62101 14.8689 5.66438 15.1292 5.85164 15.2629Z" stroke="#64748B"/>
</svg>
