<svg width="20" height="20" viewBox="0 0 20 20" fill="none" xmlns="http://www.w3.org/2000/svg">
<path fill-rule="evenodd" clip-rule="evenodd" d="M3.59373 15.6113C3.59373 16.8579 4.65463 17.8683 5.96352 17.8683H14.0364C15.3453 17.8683 16.4062 16.8579 16.4062 15.6113V5.90773C16.4062 4.71142 15.4294 3.73312 14.1939 3.65598C13.9643 3.64164 13.7659 3.8073 13.7509 4.02599C13.7358 4.24469 13.9098 4.43359 14.1394 4.44793C14.9397 4.49789 15.5729 5.13232 15.5729 5.90773V15.6113C15.5729 16.4196 14.8851 17.0747 14.0364 17.0747H5.96352C5.11486 17.0747 4.42706 16.4196 4.42706 15.6113V5.90773C4.42706 5.13232 5.0603 4.49789 5.86057 4.44793C6.0902 4.43359 6.26414 4.24469 6.24909 4.02599C6.23403 3.8073 6.03568 3.64164 5.80606 3.65598C4.57052 3.73312 3.59373 4.71142 3.59373 5.90773V15.6113Z" fill="#00CE7C"/>
<path fill-rule="evenodd" clip-rule="evenodd" d="M6.80988 5.13889C6.50067 5.13889 6.24998 4.90013 6.24998 4.60565V3.45858C6.24998 3.16409 6.50067 2.92534 6.80988 2.92534H13.1901C13.4993 2.92534 13.75 3.16409 13.75 3.45858V4.60565C13.75 4.90013 13.4993 5.13889 13.1901 5.13889H6.80988ZM5.41665 4.60565C5.41665 5.33845 6.04043 5.93253 6.80988 5.93253H13.1901C13.9595 5.93253 14.5833 5.33845 14.5833 4.60565V3.45858C14.5833 2.72577 13.9595 2.13169 13.1901 2.13169H6.80988C6.04043 2.13169 5.41665 2.72577 5.41665 3.45858V4.60565Z" fill="#00CE7C"/>
<path fill-rule="evenodd" clip-rule="evenodd" d="M6.80988 2.2309C6.09796 2.2309 5.52081 2.78056 5.52081 3.45858V3.58948C5.61198 3.5738 5.70489 3.56288 5.79924 3.55698C5.92847 3.54891 6.04978 3.58646 6.14581 3.65511V3.45858C6.14581 3.10931 6.44314 2.82613 6.80988 2.82613H13.1901C13.5568 2.82613 13.8541 3.10931 13.8541 3.45858V3.65511C13.9502 3.58646 14.0715 3.54891 14.2007 3.55698C14.2951 3.56288 14.388 3.5738 14.4791 3.58948V3.45858C14.4791 2.78056 13.902 2.2309 13.1901 2.2309H6.80988ZM14.6875 3.63428V3.45858C14.6875 2.67098 14.0171 2.03249 13.1901 2.03249H6.80988C5.9829 2.03249 5.31248 2.67098 5.31248 3.45858V3.63428C4.26189 3.90634 3.48956 4.82082 3.48956 5.90773V15.6113C3.48956 16.9127 4.5971 17.9675 5.96352 17.9675H14.0364C15.4029 17.9675 16.5104 16.9127 16.5104 15.6113V5.90773C16.5104 4.82082 15.7381 3.90634 14.6875 3.63428ZM14.4791 3.79142C14.3838 3.77345 14.2863 3.76117 14.1871 3.75497C14.0149 3.74422 13.8661 3.86847 13.8548 4.03249C13.8544 4.03827 13.8542 4.04403 13.8541 4.04975V4.05474C13.8555 4.20913 13.9818 4.33868 14.1462 4.34893C14.2608 4.35609 14.3722 4.37447 14.4791 4.40291V3.79142ZM14.6875 4.47316V3.84062C15.6215 4.10687 16.3021 4.93137 16.3021 5.90773V15.6113C16.3021 16.8031 15.2878 17.769 14.0364 17.769H5.96352C4.71216 17.769 3.6979 16.8031 3.6979 15.6113V5.90773C3.6979 4.93137 4.37847 4.10687 5.31248 3.84062V4.47316C4.73035 4.71295 4.3229 5.26498 4.3229 5.90773V15.6113C4.3229 16.4744 5.05733 17.1738 5.96352 17.1738H14.0364C14.9426 17.1738 15.6771 16.4744 15.6771 15.6113V5.90773C15.6771 5.26498 15.2696 4.71295 14.6875 4.47316ZM14.4791 4.61013C14.3689 4.57607 14.2527 4.55443 14.1326 4.54692C14.0278 4.54038 13.9323 4.50475 13.8541 4.44885V4.60565C13.8541 4.95492 13.5568 5.2381 13.1901 5.2381H6.80988C6.44314 5.2381 6.14581 4.95492 6.14581 4.60565V4.44885C6.06769 4.50475 5.97217 4.54038 5.86739 4.54692C5.74722 4.55443 5.63109 4.57607 5.52082 4.61013C5.52336 5.28609 6.09953 5.83333 6.80988 5.83333H13.1901C13.9004 5.83333 14.4766 5.28609 14.4791 4.61013ZM5.31512 4.69112C5.36154 5.43892 6.01304 6.03174 6.80988 6.03174H13.1901C13.9869 6.03174 14.6384 5.43892 14.6848 4.69112C15.1499 4.91629 15.4687 5.37652 15.4687 5.90773V15.6113C15.4687 16.3649 14.8276 16.9754 14.0364 16.9754H5.96352C5.17239 16.9754 4.53123 16.3649 4.53123 15.6113V5.90773C4.53123 5.37652 4.85005 4.91629 5.31512 4.69112ZM5.52081 4.40291C5.62779 4.37447 5.73917 4.35609 5.85376 4.34893C6.01809 4.33868 6.1444 4.2092 6.14581 4.05486V4.04963C6.14576 4.04394 6.14554 4.03823 6.14514 4.03249C6.13385 3.86847 5.98509 3.74422 5.81287 3.75497C5.71364 3.76117 5.61615 3.77345 5.52081 3.79142V4.40291ZM6.35415 4.05677V4.60565C6.35415 4.84534 6.5582 5.03968 6.80988 5.03968H13.1901C13.4418 5.03968 13.6458 4.84534 13.6458 4.60565V4.05662C13.6458 4.05384 13.6458 4.05106 13.6458 4.04827V3.45858C13.6458 3.21889 13.4418 3.02455 13.1901 3.02455H6.80988C6.5582 3.02455 6.35415 3.21889 6.35415 3.45858V4.04811C6.35417 4.05101 6.35417 4.05389 6.35415 4.05677Z" fill="#00CE7C"/>
<path fill-rule="evenodd" clip-rule="evenodd" d="M10.6251 13.3841C10.6251 13.6032 10.8116 13.781 11.0417 13.781H13.9063C14.1364 13.781 14.323 13.6032 14.323 13.3841C14.323 13.165 14.1364 12.9872 13.9063 12.9872H11.0417C10.8116 12.9872 10.6251 13.165 10.6251 13.3841Z" fill="#64748B"/>
<path fill-rule="evenodd" clip-rule="evenodd" d="M10.6251 9.75038C10.6251 9.96953 10.8116 10.1471 11.0417 10.1471H13.9063C14.1364 10.1471 14.323 9.96953 14.323 9.75038C14.323 9.53114 14.1364 9.35352 13.9063 9.35352H11.0417C10.8116 9.35352 10.6251 9.53114 10.6251 9.75038Z" fill="#64748B"/>
<path fill-rule="evenodd" clip-rule="evenodd" d="M6.56658 10.8871C6.70612 10.9026 6.84443 10.85 6.93447 10.7473L8.23656 9.2623C8.38406 9.09407 8.36044 8.84384 8.18381 8.70336C8.00717 8.56288 7.74441 8.58538 7.59692 8.7536L6.70236 9.77381L6.46634 9.3252C6.36326 9.12925 6.11291 9.05 5.90717 9.14817C5.70143 9.24635 5.61821 9.48478 5.7213 9.68076L6.24213 10.6708C6.30506 10.7904 6.42704 10.8717 6.56658 10.8871Z" fill="#64748B"/>
<path fill-rule="evenodd" clip-rule="evenodd" d="M7.63809 14.5361C7.82534 14.4088 7.86871 14.1609 7.73496 13.9826L6.43288 12.2465C6.29912 12.0681 6.03889 12.0268 5.85164 12.1542C5.66438 12.2816 5.62101 12.5294 5.75476 12.7077L7.05685 14.4439C7.1906 14.6222 7.45083 14.6635 7.63809 14.5361Z" fill="#64748B"/>
<path fill-rule="evenodd" clip-rule="evenodd" d="M5.85164 14.5361C6.03889 14.6635 6.29912 14.6222 6.43288 14.4439L7.73496 12.7077C7.86871 12.5294 7.82534 12.2816 7.63809 12.1542C7.45083 12.0268 7.1906 12.0681 7.05685 12.2465L5.75476 13.9826C5.62101 14.1609 5.66438 14.4088 5.85164 14.5361Z" fill="#64748B"/>
<path fill-rule="evenodd" clip-rule="evenodd" d="M10.6251 13.3841C10.6251 13.6032 10.8116 13.781 11.0417 13.781H13.9063C14.1364 13.781 14.323 13.6032 14.323 13.3841C14.323 13.165 14.1364 12.9872 13.9063 12.9872H11.0417C10.8116 12.9872 10.6251 13.165 10.6251 13.3841Z" stroke="#00CE7C"/>
<path fill-rule="evenodd" clip-rule="evenodd" d="M10.6251 9.75038C10.6251 9.96953 10.8116 10.1471 11.0417 10.1471H13.9063C14.1364 10.1471 14.323 9.96953 14.323 9.75038C14.323 9.53114 14.1364 9.35352 13.9063 9.35352H11.0417C10.8116 9.35352 10.6251 9.53114 10.6251 9.75038Z" stroke="#00CE7C"/>
<path fill-rule="evenodd" clip-rule="evenodd" d="M6.56658 10.8871C6.70612 10.9026 6.84443 10.85 6.93447 10.7473L8.23656 9.2623C8.38406 9.09407 8.36044 8.84384 8.18381 8.70336C8.00717 8.56288 7.74441 8.58538 7.59692 8.7536L6.70236 9.77381L6.46634 9.3252C6.36326 9.12925 6.11291 9.05 5.90717 9.14817C5.70143 9.24635 5.61821 9.48478 5.7213 9.68076L6.24213 10.6708C6.30506 10.7904 6.42704 10.8717 6.56658 10.8871Z" stroke="#00CE7C"/>
<path fill-rule="evenodd" clip-rule="evenodd" d="M7.63809 14.5361C7.82534 14.4088 7.86871 14.1609 7.73496 13.9826L6.43288 12.2465C6.29912 12.0681 6.03889 12.0268 5.85164 12.1542C5.66438 12.2816 5.62101 12.5294 5.75476 12.7077L7.05685 14.4439C7.1906 14.6222 7.45083 14.6635 7.63809 14.5361Z" stroke="#00CE7C"/>
<path fill-rule="evenodd" clip-rule="evenodd" d="M5.85164 14.5361C6.03889 14.6635 6.29912 14.6222 6.43288 14.4439L7.73496 12.7077C7.86871 12.5294 7.82534 12.2816 7.63809 12.1542C7.45083 12.0268 7.1906 12.0681 7.05685 12.2465L5.75476 13.9826C5.62101 14.1609 5.66438 14.4088 5.85164 14.5361Z" stroke="#00CE7C"/>
</svg>
