<svg width="20" height="20" viewBox="0 0 20 20" fill="none" xmlns="http://www.w3.org/2000/svg">
<g clip-path="url(#clip0_496_5754)">
<path d="M0.746225 14.2904C8.34689 12.1298 11.125 16.496 19.5619 14.2938C19.875 14.212 20.0625 13.8919 19.9808 13.5788C19.8991 13.2658 19.579 13.0782 19.2659 13.1599C17.6095 13.5923 16.1738 13.7523 14.8737 13.754L13.175 11.0161C14.1791 12.2638 16.0453 12.3358 17.1388 11.173C17.6195 10.6618 17.8724 9.99403 17.8509 9.29263C17.7788 6.9413 14.8979 5.88626 13.3113 7.57333C12.547 8.38606 12.4084 9.54165 12.8387 10.4741L10.5143 6.72782L13.9636 5.73247C15.0348 5.42337 15.5411 4.1972 14.9968 3.22192C14.6016 2.5138 13.7814 2.17622 13.0023 2.40106L7.78033 3.90798C6.42638 4.29872 5.82005 5.87263 6.56349 7.07091L8.14185 9.61477C7.00408 10.321 3.39537 12.5588 3.35705 12.5854C2.45123 12.6811 1.48115 12.8632 0.425874 13.1632C0.114624 13.2517 -0.0660013 13.5758 0.0224752 13.887C0.110913 14.1984 0.435092 14.3789 0.746225 14.2904ZM14.1649 8.37622C14.7165 7.78974 15.6372 7.76313 16.222 8.3131C16.8079 8.86407 16.8362 9.78423 16.2851 10.3702C15.7342 10.956 14.814 10.9844 14.2281 10.4333C13.6422 9.88231 13.6139 8.96216 14.1649 8.37622ZM9.44646 9.49489L7.55923 6.45313C7.22591 5.91591 7.49728 5.20938 8.10517 5.03395L13.3272 3.52704C13.5798 3.45407 13.8454 3.56356 13.9735 3.79302C14.1502 4.1097 13.9851 4.50657 13.6387 4.60653L9.44607 5.81641C9.07291 5.92411 8.90623 6.35888 9.11064 6.68829L13.4577 13.6946C10.7239 13.4651 8.50251 12.6406 5.68978 12.5154L9.25751 10.3016C9.53248 10.1311 9.61709 9.76985 9.44646 9.49489Z" fill="#0F172A"/>
<path d="M19.266 15.8942C11.194 18.0014 8.3615 13.6417 0.425874 15.8976C0.114624 15.986 -0.0660013 16.3101 0.0224752 16.6214C0.110952 16.9327 0.435131 17.1133 0.746303 17.0248C8.34697 14.8642 11.1251 19.2304 19.5619 17.0281C19.8751 16.9464 20.0626 16.6263 19.9809 16.3132C19.8992 16.0001 19.579 15.8126 19.266 15.8942Z" fill="#0F172A"/>
</g>
<defs>
<clipPath id="clip0_496_5754">
<rect width="20" height="20" fill="white"/>
</clipPath>
</defs>
</svg>
