<svg width="18" height="14" viewBox="0 0 18 14" fill="none" xmlns="http://www.w3.org/2000/svg">
<path d="M17.707 11.2492C17.2529 10.4783 16.5083 9.88109 15.6401 9.18619C15.2188 8.8496 14.7393 8.46596 14.2743 8.03527C14.2416 6.48623 13.6496 4.98424 12.6107 3.80436C11.59 2.64258 10.1843 1.83911 8.64775 1.53871C8.57146 0.858288 7.97575 0.333496 7.26017 0.333496C6.54458 0.333496 5.94887 0.858288 5.87259 1.53871C2.61069 2.17208 0.249634 4.9589 0.249634 8.18004C0.250041 9.50016 0.275061 8.7736 0.275061 8.7736C0.275061 8.78445 0.275061 8.78807 0.275061 8.79531C0.275061 8.79893 0.275061 8.80617 0.275061 8.80979C0.275061 8.81341 0.275061 8.81703 0.275061 8.82427C0.275061 8.8315 0.275061 8.83512 0.278693 8.84236C0.278693 8.84236 0.278693 8.8496 0.282325 8.85322C0.282325 8.86046 0.285958 8.86408 0.28959 8.87132C0.28959 8.87494 0.28959 8.87856 0.293223 8.88217C0.293223 8.88941 0.300487 8.89303 0.30412 8.90027C0.30412 8.90389 0.307752 8.90751 0.311385 8.91113C0.311385 8.91475 0.318649 8.92199 0.322282 8.92561C0.322282 8.92922 0.329547 8.93284 0.329547 8.93646C0.329547 8.94008 0.336811 8.9437 0.340444 8.94732C0.344076 8.95094 0.347709 8.95456 0.351341 8.9618C0.351341 8.9618 0.358606 8.96904 0.362238 8.97266C0.365871 8.97628 0.369503 8.97989 0.376768 8.98351C0.376768 8.98351 0.384033 8.99075 0.387665 8.99437C0.391297 8.99799 0.39493 9.00161 0.402195 9.00523C0.405827 9.00523 0.409459 9.01247 0.416724 9.01247L0.460313 8.95456L0.423989 9.01609C0.423989 9.01609 0.431254 9.01971 0.434886 9.02333C0.445783 9.03056 0.453048 9.03418 0.463945 9.0378C1.69896 9.63498 2.7015 9.98967 3.61324 10.1489C4.06365 11.3071 4.60851 12.0997 5.33136 12.6426C6.02878 13.1638 6.89329 13.4642 8.14284 13.6125C8.44433 13.6487 8.74219 13.6668 9.02551 13.6668C10.5729 13.6668 11.6154 13.1348 12.6216 12.6209C12.9412 12.458 13.2427 12.306 13.5551 12.1685C14.5831 11.7233 15.295 11.7341 16.3666 11.745C16.6753 11.745 17.0241 11.7522 17.4127 11.745C17.5326 11.745 17.6452 11.6799 17.7033 11.5785C17.7651 11.4772 17.7651 11.3505 17.7033 11.2455L17.707 11.2492ZM2.54531 9.18619C2.0622 9.02333 1.5355 8.80617 0.943422 8.52749C0.936158 8.41891 0.932525 8.31033 0.932525 8.18004C0.932525 6.78663 1.40837 5.46922 2.30921 4.37982C3.1156 3.40262 4.22348 2.68239 5.45123 2.32771C4.33608 3.27233 3.52969 4.33639 3.05021 5.49093C2.58527 6.60928 2.41454 7.85431 2.54168 9.18981L2.54531 9.18619ZM4.76834 10.2503C6.03605 10.2503 7.25653 9.89557 9.06547 9.24048C10.3223 8.78445 12.0477 8.52025 13.7985 8.51301C14.2852 8.9618 14.772 9.35268 15.2042 9.70013C15.8181 10.1923 16.3521 10.6194 16.7516 11.0827C16.6245 11.0827 16.5046 11.0827 16.3884 11.0827H16.3739C15.2514 11.0718 14.4414 11.061 13.2754 11.564C12.9376 11.7088 12.6143 11.8753 12.2983 12.0345C11.2013 12.5955 10.0644 13.1746 8.22275 12.9538C6.41019 12.7367 5.25508 12.2372 4.38694 10.243C4.51407 10.2503 4.64121 10.2539 4.76834 10.2539V10.2503ZM7.2638 2.07074C7.3873 2.07074 7.51444 2.07436 7.6452 2.0816C9.42145 3.13118 11.5064 5.00595 11.4483 8.00631C10.4712 8.13661 9.56674 8.34653 8.82936 8.61435C6.35207 9.51193 5.01898 9.82318 3.26453 9.39249C2.88312 6.39213 4.07455 3.9998 6.89693 2.0816C7.02769 2.07436 7.14756 2.07074 7.26743 2.07074H7.2638ZM12.1312 7.93031C12.1385 6.86263 11.8915 5.83838 11.3975 4.89014C10.918 3.97085 10.206 3.13118 9.27978 2.39285C10.4095 2.76202 11.4302 3.44605 12.1857 4.34725C13.0284 5.3534 13.5115 6.56585 13.5842 7.85069C13.0974 7.85793 12.6107 7.88326 12.1348 7.93031H12.1312ZM6.6027 1.43375C6.70804 1.17678 6.96958 0.999439 7.2638 0.999439C7.55802 0.999439 7.81956 1.17678 7.9249 1.43375C7.48174 1.39394 7.04586 1.39394 6.6027 1.43375Z" fill="#8C62FF" stroke="#8C62FF" stroke-width="0.3"/>
</svg>
