<svg width="22" height="23" viewBox="0 0 22 23" fill="none" xmlns="http://www.w3.org/2000/svg">
<g clip-path="url(#clip0_390_4115)">
<path fill-rule="evenodd" clip-rule="evenodd" d="M5.5 7.83334C5.5 7.32708 5.91041 6.91667 6.41667 6.91667H15.5833C16.0896 6.91667 16.5 7.32708 16.5 7.83334C16.5 8.3396 16.0896 8.75001 15.5833 8.75001H6.41667C5.91041 8.75001 5.5 8.3396 5.5 7.83334ZM7.33333 11.5C7.33333 10.9937 7.74374 10.5833 8.25 10.5833H13.75C14.2563 10.5833 14.6667 10.9937 14.6667 11.5C14.6667 12.0063 14.2563 12.4167 13.75 12.4167H8.25C7.74374 12.4167 7.33333 12.0063 7.33333 11.5ZM9.16667 15.1667C9.16667 14.6604 9.57706 14.25 10.0833 14.25H11.9167C12.4229 14.25 12.8333 14.6604 12.8333 15.1667C12.8333 15.6729 12.4229 16.0833 11.9167 16.0833H10.0833C9.57706 16.0833 9.16667 15.6729 9.16667 15.1667Z" fill="#0F172A"/>
</g>
<defs>
<clipPath id="clip0_390_4115">
<rect width="22" height="22" fill="white" transform="translate(0 0.5)"/>
</clipPath>
</defs>
</svg>
