<svg width="16" height="16" viewBox="0 0 16 16" fill="none" xmlns="http://www.w3.org/2000/svg">
<path fill-rule="evenodd" clip-rule="evenodd" d="M3.77768 7.47674L4.51163 7.47674V8.52326H3.81395C3.14139 8.52326 2.6896 8.52437 2.3526 8.56968C2.03065 8.61296 1.89286 8.68777 1.80194 8.77869C1.71102 8.8696 1.63622 9.00739 1.59293 9.32934C1.54762 9.66634 1.54651 10.1181 1.54651 10.7907V12.186C1.54651 12.8586 1.54762 13.3104 1.59293 13.6474C1.63622 13.9693 1.71102 14.1071 1.80194 14.1981C1.89286 14.289 2.03065 14.3638 2.3526 14.4071C2.6896 14.4524 3.14139 14.4535 3.81395 14.4535H5.2093C5.88187 14.4535 6.33365 14.4524 6.67066 14.4071C6.99261 14.3638 7.13039 14.289 7.22131 14.1981C7.31223 14.1071 7.38704 13.9693 7.43032 13.6474C7.47563 13.3104 7.47674 12.8586 7.47674 12.186V11.4884H8.52325L8.52326 12.2223C8.52328 12.8492 8.52329 13.3719 8.4675 13.7868C8.40862 14.2248 8.27908 14.6203 7.96131 14.9381C7.64354 15.2558 7.2481 15.3854 6.8101 15.4442C6.39514 15.5 5.87243 15.5 5.24558 15.5H3.77768C3.15083 15.5 2.62812 15.5 2.21315 15.4442C1.77516 15.3854 1.37972 15.2558 1.06195 14.9381C0.744178 14.6203 0.614641 14.2248 0.555754 13.7868C0.499963 13.3719 0.49998 12.8492 0.500001 12.2223V10.7544C0.49998 10.1276 0.499963 9.60486 0.555754 9.1899C0.614641 8.7519 0.744178 8.35646 1.06195 8.03869C1.37972 7.72092 1.77516 7.59138 2.21316 7.5325C2.62812 7.47671 3.15083 7.47672 3.77768 7.47674Z" fill="#8C62FF"/>
<path fill-rule="evenodd" clip-rule="evenodd" d="M7.26605 3.98837L8 3.98837V5.03488H7.30232C6.62976 5.03488 6.17797 5.036 5.84097 5.0813C5.51902 5.12459 5.38123 5.1994 5.29031 5.29031C5.1994 5.38123 5.12459 5.51902 5.0813 5.84097C5.036 6.17797 5.03488 6.62976 5.03488 7.30232V8.69767C5.03488 9.37024 5.036 9.82203 5.0813 10.159C5.12459 10.481 5.1994 10.6188 5.29031 10.7097C5.38123 10.8006 5.51902 10.8754 5.84097 10.9187C6.17797 10.964 6.62976 10.9651 7.30232 10.9651H8.69767C9.37024 10.9651 9.82203 10.964 10.159 10.9187C10.481 10.8754 10.6188 10.8006 10.7097 10.7097C10.8006 10.6188 10.8754 10.481 10.9187 10.159C10.964 9.82203 10.9651 9.37024 10.9651 8.69767V8H12.0116L12.0116 8.73395C12.0116 9.3608 12.0117 9.88351 11.9559 10.2985C11.897 10.7365 11.7674 11.1319 11.4497 11.4497C11.1319 11.7674 10.7365 11.897 10.2985 11.9559C9.88351 12.0117 9.3608 12.0116 8.73395 12.0116H7.26605C6.6392 12.0116 6.11649 12.0117 5.70153 11.9559C5.26353 11.897 4.86809 11.7674 4.55032 11.4497C4.23255 11.1319 4.10301 10.7365 4.04412 10.2985C3.98833 9.88351 3.98835 9.3608 3.98837 8.73395V7.26605C3.98835 6.6392 3.98833 6.11649 4.04412 5.70153C4.10301 5.26353 4.23255 4.86809 4.55032 4.55032C4.86809 4.23255 5.26353 4.10301 5.70153 4.04412C6.11649 3.98833 6.6392 3.98835 7.26605 3.98837Z" fill="#8C62FF"/>
<path fill-rule="evenodd" clip-rule="evenodd" d="M10.7544 0.500001H12.2223C12.8492 0.49998 13.3719 0.499963 13.7868 0.555754C14.2248 0.614641 14.6203 0.744178 14.9381 1.06195C15.2558 1.37972 15.3854 1.77516 15.4442 2.21315C15.5 2.62812 15.5 3.15083 15.5 3.77768V5.24558C15.5 5.87243 15.5 6.39514 15.4442 6.8101C15.3854 7.2481 15.2558 7.64354 14.9381 7.96131C14.6203 8.27908 14.2248 8.40862 13.7868 8.4675C13.3719 8.52329 12.8492 8.52328 12.2223 8.52326H10.7544C10.1276 8.52328 9.60486 8.52329 9.1899 8.4675C8.7519 8.40862 8.35646 8.27908 8.03869 7.96131C7.72092 7.64354 7.59138 7.2481 7.5325 6.8101C7.47671 6.39514 7.47672 5.87243 7.47674 5.24558V3.77768C7.47672 3.15083 7.47671 2.62812 7.5325 2.21315C7.59138 1.77516 7.72092 1.37972 8.03869 1.06195C8.35646 0.744178 8.7519 0.614641 9.1899 0.555754C9.60486 0.499963 10.1276 0.49998 10.7544 0.500001ZM9.32934 1.59293C9.00739 1.63622 8.8696 1.71102 8.77869 1.80194C8.68777 1.89286 8.61296 2.03065 8.56968 2.3526C8.52437 2.6896 8.52326 3.14139 8.52326 3.81395V5.2093C8.52326 5.88187 8.52437 6.33365 8.56968 6.67066C8.61296 6.99261 8.68777 7.13039 8.77869 7.22131C8.8696 7.31223 9.00739 7.38704 9.32934 7.43032C9.66634 7.47563 10.1181 7.47674 10.7907 7.47674H12.186C12.8586 7.47674 13.3104 7.47563 13.6474 7.43032C13.9693 7.38704 14.1071 7.31223 14.1981 7.22131C14.289 7.13039 14.3638 6.99261 14.4071 6.67066C14.4524 6.33365 14.4535 5.88187 14.4535 5.2093V3.81395C14.4535 3.14139 14.4524 2.6896 14.4071 2.3526C14.3638 2.03065 14.289 1.89286 14.1981 1.80194C14.1071 1.71102 13.9693 1.63622 13.6474 1.59293C13.3104 1.54762 12.8586 1.54651 12.186 1.54651H10.7907C10.1181 1.54651 9.66634 1.54762 9.32934 1.59293Z" fill="#8C62FF"/>
</svg>
