<svg width="20" height="20" viewBox="0 0 20 20" fill="none" xmlns="http://www.w3.org/2000/svg">
<path fill-rule="evenodd" clip-rule="evenodd" d="M10.0001 2.9861C8.46699 2.9861 7.2334 4.2255 7.2334 5.75277C7.2334 7.23876 8.39327 8.44423 9.85804 8.51083C9.949 8.50465 10.0449 8.50433 10.136 8.51077C11.5992 8.44344 12.7599 7.23879 12.7667 5.75142C12.766 4.22569 11.526 2.9861 10.0001 2.9861ZM5.9834 5.75277C5.9834 3.53698 7.7748 1.7361 10.0001 1.7361C12.2168 1.7361 14.0167 3.53606 14.0167 5.75277L14.0167 5.75537C14.0077 7.92236 12.2995 9.68896 10.1433 9.76144C10.1155 9.76237 10.0877 9.76145 10.0601 9.75869C10.0269 9.75537 9.97514 9.75483 9.92679 9.75923C9.901 9.76157 9.87509 9.76231 9.84921 9.76144C7.69348 9.68898 5.9834 7.92224 5.9834 5.75277Z" fill="#0F172A"/>
<path fill-rule="evenodd" clip-rule="evenodd" d="M10.1317 10.2821C11.6125 10.2821 13.1252 10.6536 14.2964 11.4358C15.3506 12.1375 15.9607 13.1257 15.9607 14.1947C15.9607 15.2636 15.3507 16.2535 14.2969 16.9589L14.2968 16.959C13.1221 17.745 11.6075 18.1187 10.126 18.1187C8.64477 18.1187 7.13049 17.7452 5.9559 16.9595C4.9015 16.2578 4.29126 15.2695 4.29126 14.2004C4.29126 13.1315 4.90128 12.1416 5.95504 11.4362L5.95733 11.4346L5.95734 11.4346C7.1352 10.6537 8.65072 10.2821 10.1317 10.2821ZM6.64925 12.4757C5.85524 13.0076 5.54126 13.6444 5.54126 14.2004C5.54126 14.7563 5.85508 15.3911 6.64891 15.9192L6.65028 15.9201C7.57628 16.5397 8.83459 16.8687 10.126 16.8687C11.4173 16.8687 12.6756 16.5397 13.6016 15.9202C14.3964 15.3881 14.7107 14.751 14.7107 14.1947C14.7107 13.6388 14.3969 13.004 13.6031 12.4759L13.6021 12.4753C12.6802 11.8596 11.4238 11.5321 10.1317 11.5321C8.84032 11.5321 7.57961 11.8592 6.64925 12.4757Z" fill="#0F172A"/>
</svg>
