<svg width="13" height="12" viewBox="0 0 13 12" fill="none" xmlns="http://www.w3.org/2000/svg">
<path fill-rule="evenodd" clip-rule="evenodd" d="M8.49914 4.58607C8.63963 4.72627 8.63987 4.95382 8.49967 5.09431L6.18529 7.41347C6.11783 7.48108 6.02623 7.51905 5.93073 7.519C5.83522 7.51895 5.74367 7.48088 5.67627 7.41321L4.52148 6.25363C4.38143 6.11299 4.3819 5.88545 4.52253 5.7454C4.66317 5.60534 4.89071 5.60581 5.03077 5.74645L5.93118 6.6506L7.99091 4.5866C8.13111 4.44611 8.35865 4.44588 8.49914 4.58607Z" fill="#4BB607"/>
<path fill-rule="evenodd" clip-rule="evenodd" d="M6.88641 1.69769C6.68366 1.528 6.3401 1.53052 6.1453 1.69708L5.38896 2.34332C5.27466 2.44206 5.12896 2.51692 4.99414 2.56701C4.85895 2.61725 4.7002 2.6554 4.55092 2.6554H3.72196C3.41252 2.6554 3.15654 2.91138 3.15654 3.22082V4.04499C3.15654 4.19451 3.11826 4.35205 3.06891 4.48539C3.01936 4.61923 2.94643 4.76169 2.85283 4.87401L2.85071 4.87655L2.20497 5.63706C2.2048 5.63726 2.20464 5.63746 2.20447 5.63766C2.03959 5.83449 2.03959 6.17506 2.20447 6.3719C2.20464 6.3721 2.2048 6.3723 2.20497 6.3725L2.85284 7.13554C2.94644 7.24785 3.01936 7.39033 3.06891 7.52416C3.11826 7.65751 3.15654 7.81505 3.15654 7.96457V8.78395C3.15654 9.09338 3.41252 9.34936 3.72196 9.34936H4.55092C4.70211 9.34936 4.86085 9.38728 4.99654 9.43798C5.13197 9.48858 5.27596 9.56368 5.38942 9.66184C5.38962 9.66201 5.38983 9.66219 5.39003 9.66237L6.14461 10.3119C6.34718 10.4814 6.69032 10.479 6.8852 10.3129C6.88536 10.3128 6.88553 10.3126 6.8857 10.3125L7.64097 9.66237C7.64119 9.66218 7.64141 9.66199 7.64163 9.6618C7.75599 9.56288 7.90188 9.48791 8.03686 9.43775C8.17205 9.38752 8.3308 9.34936 8.48008 9.34936H9.29467C9.6041 9.34936 9.86008 9.09338 9.86008 8.78395V7.96936C9.86008 7.81817 9.898 7.65943 9.9487 7.52374C9.99929 7.38833 10.0744 7.24436 10.1725 7.1309C10.1727 7.13069 10.1729 7.13047 10.1731 7.13025L10.8226 6.37567C10.9921 6.1731 10.9898 5.82996 10.8236 5.63508C10.8235 5.63491 10.8233 5.63475 10.8232 5.63458L10.1731 4.87931C10.1729 4.87911 10.1727 4.8789 10.1726 4.8787C10.0736 4.76433 9.99864 4.61841 9.94847 4.48342C9.89824 4.34823 9.86008 4.18948 9.86008 4.0402V3.22561C9.86008 2.91617 9.6041 2.6602 9.29467 2.6602H8.48008C8.32889 2.6602 8.17015 2.62228 8.03446 2.57158C7.89902 2.52098 7.75501 2.44586 7.64155 2.34769C7.64135 2.34752 7.64116 2.34735 7.64097 2.34719L6.88641 1.69769ZM5.6783 1.15072C6.14436 0.752297 6.88264 0.754514 7.35086 1.14916L7.35371 1.15156L8.1117 1.80403C8.14189 1.83021 8.20367 1.86752 8.28602 1.89829C8.36835 1.92905 8.43961 1.94145 8.48008 1.94145H9.29467C10.0011 1.94145 10.5788 2.51922 10.5788 3.22561V4.0402C10.5788 4.07779 10.591 4.14904 10.6222 4.23307C10.6534 4.31705 10.6909 4.37929 10.7162 4.40858L10.717 4.4095L11.3695 5.16748C11.768 5.63353 11.7658 6.37188 11.3711 6.84014L11.3687 6.84299L10.717 7.60006L10.7162 7.60098C10.6901 7.63117 10.6528 7.69295 10.622 7.7753C10.5912 7.85763 10.5788 7.92889 10.5788 7.96936V8.78395C10.5788 9.49034 10.0011 10.0681 9.29467 10.0681H8.48008C8.44249 10.0681 8.37124 10.0803 8.28721 10.1115C8.20323 10.1427 8.14099 10.1801 8.1117 10.2055L8.11078 10.2063L7.3537 10.858L7.3528 10.8587C6.88675 11.2573 6.1484 11.2551 5.68014 10.8604L5.67729 10.858L4.92022 10.2063L4.9193 10.2055C4.8891 10.1794 4.82733 10.142 4.74498 10.1113C4.66265 10.0805 4.59139 10.0681 4.55092 10.0681H3.72196C3.01556 10.0681 2.43779 9.49034 2.43779 8.78395V7.96457C2.43779 7.92722 2.42576 7.85716 2.39485 7.77367C2.36445 7.69153 2.32762 7.62841 2.30148 7.59665L1.65477 6.83498C1.26449 6.37067 1.26449 5.63889 1.65478 5.17458L1.65592 5.17322L2.30147 4.41291C2.32762 4.38115 2.36445 4.31803 2.39485 4.23588C2.42576 4.1524 2.43779 4.08234 2.43779 4.04499V3.22082C2.43779 2.51443 3.01556 1.93665 3.72196 1.93665H4.55092C4.58851 1.93665 4.65976 1.9245 4.74379 1.89327C4.82777 1.86207 4.89001 1.82463 4.9193 1.79924L4.92121 1.79759L5.6783 1.15072C5.67833 1.15069 5.67827 1.15075 5.6783 1.15072Z" fill="#4BB607"/>
</svg>
