<svg width="18" height="18" viewBox="0 0 18 18" fill="none" xmlns="http://www.w3.org/2000/svg">
<path fill-rule="evenodd" clip-rule="evenodd" d="M0.578711 10.2599C1.03533 9.7745 1.68709 9.62791 2.38605 9.62791H15.614C16.3129 9.62791 16.9647 9.7745 17.4213 10.2599C17.8688 10.7356 18 11.4025 18 12.1228V15.5051C18 16.2254 17.8688 16.8923 17.4213 17.368C16.9647 17.8534 16.3129 18 15.614 18H2.38605C1.68709 18 1.03533 17.8534 0.578711 17.368C0.131154 16.8923 0 16.2254 0 15.5051V12.1228C0 11.4025 0.131154 10.7356 0.578711 10.2599ZM1.49338 11.1204C1.37582 11.2453 1.25581 11.5119 1.25581 12.1228V15.5051C1.25581 16.116 1.37582 16.3826 1.49338 16.5075C1.60188 16.6229 1.82918 16.7442 2.38605 16.7442H15.614C16.1708 16.7442 16.3981 16.6229 16.5066 16.5075C16.6242 16.3826 16.7442 16.116 16.7442 15.5051V12.1228C16.7442 11.5119 16.6242 11.2453 16.5066 11.1204C16.3981 11.005 16.1708 10.8837 15.614 10.8837H2.38605C1.82918 10.8837 1.60188 11.005 1.49338 11.1204Z" fill="#0F172A"/>
<path fill-rule="evenodd" clip-rule="evenodd" d="M0.578711 0.631963C1.03533 0.146594 1.68709 0 2.38605 0H9.75349C10.4524 0 11.1042 0.146594 11.5608 0.631963C12.0084 1.1077 12.1395 1.77462 12.1395 2.49488V5.87721C12.1395 6.59747 12.0084 7.26439 11.5608 7.74013C11.1042 8.2255 10.4524 8.37209 9.75349 8.37209H2.38605C1.68709 8.37209 1.03533 8.2255 0.578711 7.74013C0.131154 7.26439 0 6.59747 0 5.87721V2.49488C0 1.77462 0.131154 1.1077 0.578711 0.631963ZM1.49338 1.49246C1.37582 1.61742 1.25581 1.88398 1.25581 2.49488V5.87721C1.25581 6.48811 1.37582 6.75468 1.49338 6.87964C1.60188 6.99497 1.82918 7.11628 2.38605 7.11628H9.75349C10.3103 7.11628 10.5377 6.99497 10.6462 6.87964C10.7637 6.75468 10.8837 6.48811 10.8837 5.87721V2.49488C10.8837 1.88398 10.7637 1.61742 10.6462 1.49246C10.5377 1.37713 10.3103 1.25581 9.75349 1.25581H2.38605C1.82918 1.25581 1.60188 1.37713 1.49338 1.49246Z" fill="#0F172A"/>
</svg>
